<?xml version="1.0" encoding="utf-8" ?><svg xmlns="http://www.w3.org/2000/svg" xmlns:xlink="http://www.w3.org/1999/xlink" width="1024" height="1024" viewBox="0 0 1024 1024"><path fill="#FFFEFE" d="M0 0L1024 0L1024 1024L0 1024L0 0Z"/><path fill="#FEF9F4" d="M636.901 290.796C635.27 286.396 632.576 281.697 630.549 277.466C623.98 263.76 618.933 248.029 622.677 232.837C627.983 211.305 645.385 195.719 662.904 183.968C690.377 165.44 721.879 153.741 754.786 149.843C816.376 142.684 872.74 162.558 920.523 201.047C952.9 227.127 979.294 262.495 983.878 304.818C988.045 343.29 971.727 380.699 950.544 411.821C947.617 416.121 943.436 422.977 940.456 426.689C955.537 430.657 970.499 435.812 985.565 439.935C988.742 440.804 992.289 441.83 995.386 442.934C994.599 445.322 991.076 454.895 992.422 456.582C998.39 457.795 1004.18 460.236 1010.15 461.528C1003.16 479.905 998.908 499.457 992.86 518.169C992.101 520.519 991.5 522.882 990.469 525.133C984.077 549.001 975.594 575.757 968.462 599.619L941.657 691.466L916.65 776.377C911.499 794.037 905.153 817.512 899.118 834.532L965.001 834.547C974.992 834.551 985.307 834.375 995.32 834.56C996.898 834.59 997.336 835.141 998.36 836.038C998.987 838.072 998.924 837.05 998.421 839.222C996.422 841.116 995.121 840.743 992.221 840.765L382.095 840.53L160.705 840.621L67.1572 840.781C54.2745 840.748 41.3383 840.769 28.4503 840.743C26.5394 840.739 26.1767 840.381 25.0841 839.229C24.6025 836.98 24.5519 838.059 25.2365 835.868C28.1973 833.299 40.62 834.246 44.9185 834.271L80.1912 834.489C62.1468 821.979 67.3476 797.973 89.1192 796.943C88.0103 792.86 85.7537 788.122 83.7544 784.362C67.8733 754.496 78.6024 725.659 91.5044 696.843C106.941 662.366 123.081 625.006 116.564 586.091C103.945 510.734 33.3332 457.153 24.6201 380.6C20.398 342.43 37.7436 303.096 61.6309 273.894C112.013 212.303 198.274 172.032 276.442 163.619C366.467 153.931 437.804 179.701 513.373 226.432C544.77 245.909 574.861 267.415 603.455 290.813L602.997 290.81C614.298 290.886 625.6 290.881 636.901 290.796Z"/><path fill="#FEB997" d="M741.667 354.281L743.444 355.075C750.915 356.805 759.785 360.403 767.293 362.801C778.53 366.392 790.199 369.93 801.08 374.378C805.51 376.188 807.152 383.463 807.971 387.631C814.064 389.53 825.231 392.467 830.624 394.524L830.572 395.73C836.86 397.376 843.124 399.11 849.363 400.931L848.805 399.808C878.439 408.463 911.312 417.267 940.456 426.689C955.537 430.657 970.499 435.812 985.565 439.935C988.742 440.804 992.289 441.83 995.386 442.934C994.599 445.322 991.076 454.895 992.422 456.582C998.39 457.795 1004.18 460.236 1010.15 461.528C1003.16 479.905 998.908 499.457 992.86 518.169C992.101 520.519 991.5 522.882 990.469 525.133C984.077 549.001 975.594 575.757 968.462 599.619L941.657 691.466L916.65 776.377C911.499 794.037 905.153 817.512 899.118 834.532L965.001 834.547C974.992 834.551 985.307 834.375 995.32 834.56C996.898 834.59 997.336 835.141 998.36 836.038C998.987 838.072 998.924 837.05 998.421 839.222C996.422 841.116 995.121 840.743 992.221 840.765L382.095 840.53L160.705 840.621L67.1572 840.781C54.2745 840.748 41.3383 840.769 28.4503 840.743C26.5394 840.739 26.1767 840.381 25.0841 839.229C24.6025 836.98 24.5519 838.059 25.2365 835.868C28.1973 833.299 40.62 834.246 44.9185 834.271L80.1912 834.489C62.1468 821.979 67.3476 797.973 89.1192 796.943L136.315 797.112C138.408 799.072 141.034 801.179 143.997 801.369C150.322 801.773 156.993 801.753 163.332 801.802L201.397 801.925L320.82 801.983L518.633 801.998L581.519 801.958C594.22 801.978 607.006 802.116 619.701 801.88C620.404 801.866 620.94 801.788 621.625 801.665C613.232 798.809 574.923 789.331 571.211 785.227C568.923 782.696 569.438 779.178 569.686 776.064C570.816 773.76 573.785 764.136 574.793 761.089C578.11 750.936 581.539 740.821 585.08 730.744C586.405 731.104 587.907 731.558 589.223 731.822L589.469 731.193C593.444 731.977 601.672 734.288 605.114 733.575L605.46 733.07C603.776 731.863 604.699 732.24 602.539 732.021L600.874 731.625L601.035 731.455C599.641 730.339 588.917 728.503 586.266 728.016L588.821 717.477C584.193 717.445 579.876 717.431 575.245 717.115C579.198 716.901 584.595 717.089 588.653 717.111L590.352 711.449C591.337 709.175 592.501 704.779 593.162 702.374L594.281 700.153C595.133 695.662 597.487 687.505 598.739 682.933L598.982 682.989L599.276 682.572L598.759 681.451L600.543 680.581C602.786 675.256 606.381 661.734 607.925 655.899L608.591 653.57C610.299 648.581 611.873 640.937 613.35 635.535L613.027 635.178L613.698 635.088L614.679 633.933L615.154 633.004C611.125 631.095 608.073 629.656 603.901 628.158C604.127 625.123 603.675 614.14 604.372 612.197C604.936 610.697 605.084 609.973 606.177 608.775C610.052 607.162 618.253 607.924 623.001 607.887C623.919 606.36 626.857 595.256 627.521 592.783C621.458 591.525 618.555 591.645 612.547 591.13C601.629 583.362 603.149 573.844 613.972 567.082C621.003 564.795 628.249 565.532 635.111 568.227L638.436 556.042C639.468 553.719 640.548 549.283 641.103 546.796L641.572 545.871L640.391 544.904L641.181 544.02C642.962 539.898 648.445 522.589 649.765 518.048L650.483 516.167C651.479 514.058 653.786 506.28 654.629 503.663L654.948 499.598C653.965 498.949 654.009 499.02 653.437 497.997L652.692 495.87L653.986 496.077L654.291 495.606L655.147 495.662C656.102 494.457 656.193 493.08 656.589 491.452L657.168 490.466C658.999 487.137 661.071 477.426 661.844 473.596C663.459 469.144 665.226 462.175 664.862 457.423L664.929 456.743C662.446 455.244 662.642 455.903 661.868 453.76C663.499 454.238 667.083 455.404 668.595 455.686L669.653 454.693L668.551 454.177C670.011 453.026 677.338 428.707 677.015 426.73C677.796 426.214 677.535 426.34 678.03 425.355C679.294 421.496 681.699 414.574 682.159 410.708C680.092 409.975 680.284 409.666 679.315 407.918L688.155 410.388L689.427 409.529C687.478 408.886 685.503 408.154 683.566 407.463C685.491 403.293 699.639 359.999 700.116 356.028L700.846 355.386C702.443 355.2 727.701 363.148 731.671 364.345C733.151 357.301 734.914 355.805 741.667 354.281Z"/><path fill="#6B6D8B" d="M898.183 834.549C900.31 829.78 903.543 817.873 905.154 812.36L916.875 772.31C923.233 750.682 989.095 525.935 990.469 525.133C984.077 549.001 975.594 575.757 968.462 599.619L941.657 691.466L916.65 776.377C911.499 794.037 905.153 817.512 899.118 834.532L965.001 834.547C974.992 834.551 985.307 834.375 995.32 834.56C996.898 834.59 997.336 835.141 998.36 836.038C998.987 838.072 998.924 837.05 998.421 839.222C996.422 841.116 995.121 840.743 992.221 840.765L382.095 840.53L160.705 840.621L67.1572 840.781C54.2745 840.748 41.3383 840.769 28.4503 840.743C26.5394 840.739 26.1767 840.381 25.0841 839.229C24.6025 836.98 24.5519 838.059 25.2365 835.868C28.1973 833.299 40.62 834.246 44.9185 834.271L80.1912 834.489C62.1468 821.979 67.3476 797.973 89.1192 796.943L136.315 797.112C138.408 799.072 141.034 801.179 143.997 801.369C150.322 801.773 156.993 801.753 163.332 801.802L201.397 801.925L320.82 801.983L518.633 801.998L581.519 801.958C594.22 801.978 607.006 802.116 619.701 801.88C620.404 801.866 620.94 801.788 621.625 801.665C646.75 808.547 671.804 816.827 696.947 823.786C708.182 826.896 720.876 831.395 732.027 833.865C736.647 835.269 761.26 834.61 767.531 834.644L879.264 834.65L880.446 834.456C886.198 834.751 892.392 834.589 898.183 834.549Z"/><path fill="#47273E" d="M898.183 834.549C900.31 829.78 903.543 817.873 905.154 812.36L916.875 772.31C923.233 750.682 989.095 525.935 990.469 525.133C984.077 549.001 975.594 575.757 968.462 599.619L941.657 691.466L916.65 776.377C911.499 794.037 905.153 817.512 899.118 834.532L965.001 834.547C974.992 834.551 985.307 834.375 995.32 834.56C996.898 834.59 997.336 835.141 998.36 836.038C998.987 838.072 998.924 837.05 998.421 839.222C996.422 841.116 995.121 840.743 992.221 840.765L382.095 840.53L160.705 840.621L67.1572 840.781C54.2745 840.748 41.3383 840.769 28.4503 840.743C26.5394 840.739 26.1767 840.381 25.0841 839.229C24.6025 836.98 24.5519 838.059 25.2365 835.868C28.1973 833.299 40.62 834.246 44.9185 834.271L80.1912 834.489C101.155 834.104 122.953 834.452 143.979 834.482L247.469 834.441L601.646 834.435L685.848 834.348C692.839 834.361 728.215 835.108 732.027 833.865C736.647 835.269 761.26 834.61 767.531 834.644L879.264 834.65L880.446 834.456C886.198 834.751 892.392 834.589 898.183 834.549Z"/><path fill="#F79D67" d="M992.422 456.582C998.39 457.795 1004.18 460.236 1010.15 461.528C1003.16 479.905 998.908 499.457 992.86 518.169C992.101 520.519 991.5 522.882 990.469 525.133C989.095 525.935 923.233 750.682 916.875 772.31L905.154 812.36C903.543 817.873 900.31 829.78 898.183 834.549C892.392 834.589 886.198 834.751 880.446 834.456L970.205 528.844C975.869 509.584 985.267 477.562 991.403 457.199C991.742 456.994 992.082 456.788 992.422 456.582Z"/><path fill="#47273E" d="M741.667 354.281L743.444 355.075C750.915 356.805 759.785 360.403 767.293 362.801C778.53 366.392 790.199 369.93 801.08 374.378C805.51 376.188 807.152 383.463 807.971 387.631C814.064 389.53 825.231 392.467 830.624 394.524L830.572 395.73L729.606 365.21C723.46 363.286 704.234 358.268 700.116 356.028L700.846 355.386C702.443 355.2 727.701 363.148 731.671 364.345C733.151 357.301 734.914 355.805 741.667 354.281Z"/><path fill="#FFFEFE" d="M738.015 356.599C745.209 355.732 761.761 362.737 770.073 365.426C778.686 368.212 794.297 372.287 802.029 377.207C803.319 378.028 807.556 384.821 805.094 386.727L802.989 386.283C783.405 379.305 762.433 374.206 742.595 367.84C735.613 365.599 728.175 364.251 738.015 356.599Z"/><path fill="#FFFEFE" d="M613.972 567.082C621.003 564.795 628.249 565.532 635.111 568.227L634.262 569.531C632.86 576.038 630.243 584.369 628.263 590.818C631.488 591.494 642.132 594.058 644.726 593.429L646.146 594.441L646.172 595.225C644.743 595.662 644.783 595.65 643.286 595.662L642.886 596.787C640.473 596.458 635.517 595.109 632.96 594.486C631.139 593.942 629.326 593.375 627.521 592.783C621.458 591.525 618.555 591.645 612.547 591.13C601.629 583.362 603.149 573.844 613.972 567.082Z"/><path fill="#47273E" d="M613.972 567.082C621.003 564.795 628.249 565.532 635.111 568.227L634.262 569.531C630.855 568.844 627.438 568.102 623.994 567.621C617.205 566.672 609.032 570.489 607.719 577.762C607.212 580.703 607.968 583.721 609.801 586.077C610.835 587.426 612.215 588.405 613.573 589.416C622.767 589.882 623.903 590.196 632.63 593.276L632.96 594.486C631.139 593.942 629.326 593.375 627.521 592.783C621.458 591.525 618.555 591.645 612.547 591.13C601.629 583.362 603.149 573.844 613.972 567.082Z"/><path fill="#30131D" d="M632.63 593.276C635.894 594.025 640.062 595.102 643.286 595.662L642.886 596.787C640.473 596.458 635.517 595.109 632.96 594.486L632.63 593.276Z"/><path fill="#30131D" d="M848.805 399.808C878.439 408.463 911.312 417.267 940.456 426.689C955.537 430.657 970.499 435.812 985.565 439.935C988.742 440.804 992.289 441.83 995.386 442.934C994.599 445.322 991.076 454.895 992.422 456.582C992.082 456.788 991.742 456.994 991.403 457.199C985.267 477.562 975.869 509.584 970.205 528.844L880.446 834.456L879.264 834.65C891.256 791.563 905.208 747.603 917.706 704.464C933.806 648.359 950.213 592.342 966.923 536.416C975.999 505.538 984.915 474 994.326 443.259C960.592 434.238 926.952 423.17 893.254 413.832C878.715 409.803 863.682 405.594 849.363 400.931L848.805 399.808Z"/><path fill="#83A5DC" d="M604.372 612.197C604.936 610.697 605.084 609.973 606.177 608.775C610.052 607.162 618.253 607.924 623.001 607.887C620.592 615.663 617.249 625.299 615.154 633.004C611.125 631.095 608.073 629.656 603.901 628.158C604.127 625.123 603.675 614.14 604.372 612.197Z"/><path fill="#47273E" d="M654.291 495.606L655.147 495.662C661.442 497.912 667.833 499.881 674.303 501.561C676.161 499.586 678.123 498.038 680.978 498.106C690.192 498.324 690.171 515.084 680.013 513.448C675.087 512.655 673.069 509.878 672.191 505.104C665.952 503.272 661.065 501.723 654.948 499.598C653.965 498.949 654.009 499.02 653.437 497.997L652.692 495.87L653.986 496.077L654.291 495.606Z"/><path fill="#FFFEFE" d="M652.692 495.87L653.986 496.077C657.79 497.63 674.5 502.26 675.589 503.897C672.167 506.102 657.803 498.868 653.437 497.997L652.692 495.87Z"/><path fill="#47273E" d="M658.004 547.22C660.465 543.269 664.831 541.022 669.109 543.783C671.065 545.069 672.402 547.107 672.803 549.414C673.566 553.897 670.758 556.864 666.426 557.359C661.242 557.952 659.849 554.827 657.286 551.252L657.698 550.415C652.217 548.763 647.19 547.806 641.572 545.871L640.391 544.904L641.181 544.02L642.328 544.187C645.355 544.113 654.388 546.448 658.004 547.22Z"/><path fill="#FFFEFE" d="M640.391 544.904L641.181 544.02L642.328 544.187C645.831 545.073 658.773 547.723 660.202 549.805C659.035 550.501 659.079 550.411 657.698 550.415C652.217 548.763 647.19 547.806 641.572 545.871L640.391 544.904Z"/><path fill="#47273E" d="M602.539 732.021C603.747 724.555 611.667 721.704 615.783 727.52C622.997 737.71 610.146 746.62 602.069 734.485C597.771 733.673 593.489 732.785 589.223 731.822L589.469 731.193C593.444 731.977 601.672 734.288 605.114 733.575L605.46 733.07C603.776 731.863 604.699 732.24 602.539 732.021Z"/><path fill="#47273E" d="M617.562 685.138C619.282 680.445 622.719 677.094 627.966 679.167C630.169 680.026 631.918 681.759 632.798 683.953C633.521 685.797 633.422 687.861 632.526 689.627C630.579 693.481 625.869 695.476 622.073 693.091C618.168 690.637 618.613 688.05 613.658 687.221L615.279 686.616C616.963 687.006 619.775 687.87 621.228 686.774C620.276 685.663 619.032 685.542 617.562 685.138Z"/><path fill="#47273E" d="M679.618 457.922C681.489 458.525 683.15 459.357 684.925 458.706C688.106 456.021 688.89 454.269 693.596 454.472C697.954 454.66 700.021 458.487 699.537 462.407C699.254 464.685 698.062 466.752 696.231 468.138C690.798 472.182 686 466.763 683.33 462.377C684.853 462.522 685.784 462.792 687.124 462.094C685.646 460.147 681.284 459.328 678.86 458.738L679.618 457.922Z"/><path fill="#47273E" d="M644.726 593.429C644.307 587.886 654.077 583.834 657.439 590.197C661.234 597.382 656.46 605.1 648.193 601.644C645.446 600.454 644.622 597.833 642.886 596.787L643.286 595.662C644.783 595.65 644.743 595.662 646.172 595.225L646.146 594.441L644.726 593.429Z"/><path fill="#47273E" d="M631.433 638.395C632.159 636.192 633.671 633.46 635.738 632.781C648.231 628.673 651.512 652.442 635.838 646.5C634.308 645.92 632.787 643.626 631.945 642.101L631.607 641.501C631.542 641.38 631.477 641.259 631.412 641.137L631.381 640.311C632.911 640.651 632.922 640.675 634.477 640.613C633.963 639.526 632.723 639.144 631.433 638.395Z"/><path fill="#47273E" d="M698.613 412.52C700.032 412.886 702.056 413.776 703.087 412.71C706.29 409.395 711.605 407.305 715 412.399C716.26 414.318 716.691 416.664 716.196 418.905C715.239 423.355 711.421 424.269 707.538 423.132C702.682 421.71 701.638 418.557 698.312 415.705C700.1 416.33 701.885 417.095 703.646 416.536L703.777 415.815C702.314 414.338 701.117 414.292 699.002 413.754L698.613 412.52Z"/><path fill="#FFFEFE" d="M661.868 453.76C663.499 454.238 667.083 455.404 668.595 455.686L669.653 454.693C672.94 455.875 676.263 456.952 679.618 457.922L678.86 458.738C681.284 459.328 685.646 460.147 687.124 462.094C685.784 462.792 684.853 462.522 683.33 462.377C681.352 461.056 667.767 457.244 664.929 456.743C662.446 455.244 662.642 455.903 661.868 453.76Z"/><path fill="#30131D" d="M669.653 454.693C672.94 455.875 676.263 456.952 679.618 457.922L678.86 458.738C675.678 457.674 671.857 456.65 668.595 455.686L669.653 454.693Z"/><path fill="#FFFEFE" d="M679.315 407.918L688.155 410.388L689.427 409.529C692.443 410.522 695.584 411.606 698.613 412.52L699.002 413.754C701.117 414.292 702.314 414.338 703.777 415.815L703.646 416.536C701.885 417.095 700.1 416.33 698.312 415.705C695.651 414.76 684.387 410.621 682.159 410.708C680.092 409.975 680.284 409.666 679.315 407.918Z"/><path fill="#30131D" d="M688.155 410.388L689.427 409.529C692.443 410.522 695.584 411.606 698.613 412.52L699.002 413.754C695.605 412.587 691.627 411.463 688.155 410.388Z"/><path fill="#FFFEFE" d="M598.759 681.451C605.805 682.054 611.427 684.281 617.562 685.138C619.032 685.542 620.276 685.663 621.228 686.774C619.775 687.87 616.963 687.006 615.279 686.616L613.658 687.221C609.656 686.299 602.493 684.779 598.982 682.989L599.276 682.572L598.759 681.451Z"/><path fill="#47312E" d="M599.276 682.572L615.279 686.616L613.658 687.221C609.656 686.299 602.493 684.779 598.982 682.989L599.276 682.572Z"/><path fill="#FFFEFE" d="M614.679 633.933C620.339 635.342 625.856 636.668 631.433 638.395C632.723 639.144 633.963 639.526 634.477 640.613C632.922 640.675 632.911 640.651 631.381 640.311C628.416 638.911 617.342 636.088 613.698 635.088L614.679 633.933Z"/><path fill="#47312E" d="M613.698 635.088C617.342 636.088 628.416 638.911 631.381 640.311L631.412 641.137C626.898 639.886 617.235 637.373 613.35 635.535L613.027 635.178L613.698 635.088Z"/><path fill="#30131D" d="M641.572 545.871C647.19 547.806 652.217 548.763 657.698 550.415L657.286 551.252C651.611 550.063 646.558 548.74 641.103 546.796L641.572 545.871Z"/><path fill="#47273E" d="M736.211 440.678C740.802 441.287 751.302 444.89 756.184 446.424C768.086 450.183 780.011 453.868 791.959 457.48C839.476 472.098 887.171 486.131 935.033 499.574C934.339 503.262 932.287 509.158 931.105 512.924C928.856 520.029 926.687 527.159 924.599 534.312L896.652 629.464C894.628 636.402 881.614 683.301 879.367 686.39C854.971 678.37 826.184 670.623 801.219 663.295L679.502 627.045L711.895 519.744C719.607 493.269 727.713 466.911 736.211 440.678Z"/><path fill="#F8E5CD" d="M737.331 442.482C746.61 444.869 758.235 448.816 767.626 451.698C785.223 457.118 802.855 462.422 820.522 467.609L892.895 489.508C906.084 493.386 920.405 496.682 933.307 500.905C919.239 544.87 907.201 589.659 893.76 633.824C891.957 639.747 880.371 682.543 878.074 684.276C861.836 679.128 844.415 674.459 827.952 669.511L681.515 626.033C686.43 610.838 690.972 594.562 695.593 579.192L719.629 499.688C724.894 482.152 731.06 459.467 737.331 442.482Z"/><path fill="#D0E4F9" d="M867.484 520.956C880.161 519.32 891.78 528.228 893.491 540.895C895.203 553.563 886.365 565.235 873.708 567.022C860.944 568.824 849.151 559.895 847.425 547.12C845.699 534.345 854.699 522.606 867.484 520.956Z"/><path fill="#ACC0E1" d="M813.397 502.798C825.953 502.09 836.725 511.653 837.509 524.205C838.293 536.757 828.795 547.586 816.248 548.446C803.594 549.313 792.651 539.716 791.86 527.057C791.069 514.397 800.733 503.513 813.397 502.798Z"/><path fill="#F79D67" d="M758.481 487.688C770.426 486.589 780.988 495.414 782.028 507.365C783.067 519.316 774.189 529.833 762.233 530.813C750.361 531.786 739.935 522.984 738.902 511.118C737.87 499.251 746.619 488.78 758.481 487.688Z"/><path fill="#47273E" d="M720.469 580.486C724.834 580.768 737.727 585.171 742.647 586.643L776.74 596.631L832.14 612.83C841.91 615.668 851.736 618.468 861.48 621.389C863.611 622.028 863.962 621.874 865.01 623.393C861.502 623.687 849.118 619.29 844.964 618.114L765.649 595.254C754.427 592.02 743.234 588.685 732.072 585.25C730.066 584.654 722.133 582.648 720.796 581.957L720.469 580.486Z"/><path fill="#47273E" d="M771.566 575.532C774.415 575.726 789.842 580.538 793.303 581.546L843.64 596.143C851.912 598.538 860.308 600.986 868.643 603.183C869.82 603.493 869.714 603.962 870.086 604.981C867.049 605.013 859.873 602.613 856.511 601.615C829.919 593.722 803.18 586.198 776.539 578.463C774.065 577.744 772.151 577.965 771.566 575.532Z"/><path fill="#47273E" d="M763.041 613.552C767.694 614.251 778.5 617.669 783.658 619.141L826.882 631.67C832.69 633.374 853.461 638.722 857.607 640.974L857.672 642.374C850.737 640.669 842.124 637.885 835.163 635.847L793.124 623.635L772.6 617.73C769.765 616.92 763.862 616.28 763.041 613.552Z"/><path fill="#47273E" d="M715.561 599.556C722.49 600.365 737.086 605.788 744.505 607.773C746.642 608.345 747.053 608.498 747.83 610.046C744.123 609.403 718.607 602.075 715.894 600.783L715.561 599.556Z"/><path fill="#47273E" d="M727.85 563.073C732.251 563.109 749.357 569.296 754.538 570.683C756.451 571.195 756.76 571.548 757.371 572.934C756.938 572.865 756.504 572.797 756.07 572.729C751.324 570.774 729.751 566.266 727.85 563.073Z"/><path fill="#FFFEFE" d="M147.83 352.505L314.249 352.747C350.858 352.738 387.946 352.292 424.529 352.727L424.483 776.077L248.003 776.006L194.622 776.014C185.393 776.013 176.135 776.153 167.052 775.64C157.774 775.116 148.508 766.163 148.145 756.977C147.644 744.319 147.994 731.059 147.987 718.348L147.941 634.861L147.83 352.505Z"/><path fill="#FEB997" d="M291.458 373.012C317.771 374.117 335.996 382.819 354.111 402.041C355.314 404.496 357.327 406.288 358.92 408.511C373.841 429.334 377.517 456.031 369.968 480.347C363.481 501.234 348.892 518.65 329.465 528.699C314.334 536.606 294.486 540.376 277.682 536.871C279.693 525.792 281.648 514.702 283.546 503.603C284.375 498.82 286.598 487.388 286.487 483.051L286.847 482.787C289.687 483.139 294.81 482.446 297.539 481.685C305.283 479.512 311.805 474.274 315.597 467.182C320.457 458.111 319.896 449.683 316.994 440.236L316.509 439.473C312.012 429.206 302.013 424.156 291.505 422.362L291.458 373.012Z"/><path fill="#D0E4F9" d="M291.458 373.012C317.771 374.117 335.996 382.819 354.111 402.041C351.513 402.96 318.767 436.036 316.509 439.473C312.012 429.206 302.013 424.156 291.505 422.362L291.458 373.012Z"/><path fill="#42194F" d="M316.509 439.473C318.767 436.036 351.513 402.96 354.111 402.041C353.274 404.889 321.239 436.007 316.994 440.236L316.509 439.473Z"/><path fill="#ACC0E1" d="M209.442 446.386C219.251 445.841 231.025 446.598 241.012 446.348C243.581 446.284 258.544 446.18 260.12 446.593L259.935 448.002C259.859 458.663 261.599 465.709 269.116 473.84C273.173 478.229 280.858 482.327 286.847 482.787L286.487 483.051C286.598 487.388 284.375 498.82 283.546 503.603C281.648 514.702 279.693 525.792 277.682 536.871L276.753 536.669C274.036 536.188 271.34 535.597 268.671 534.896C233.925 525.888 209.192 493.239 209.023 457.693C209.005 454.061 208.52 449.904 209.442 446.386Z"/><path fill="#5B478B" d="M209.442 446.386C219.251 445.841 231.025 446.598 241.012 446.348C243.581 446.284 258.544 446.18 260.12 446.593L259.935 448.002C252.101 448.011 214.835 448.947 209.859 447.598L209.442 446.386Z"/><path fill="#0F0328" d="M286.487 483.051C286.598 487.388 284.375 498.82 283.546 503.603C281.648 514.702 279.693 525.792 277.682 536.871L276.753 536.669C277.604 530.649 284.771 485.136 286.487 483.051Z"/><path fill="#D0E4F9" d="M209.442 446.386C213.536 405.458 246.754 376.48 286.95 373.082L286.936 421.617C273.038 426.137 264.71 429.507 260.487 445.242L260.12 446.593C258.544 446.18 243.581 446.284 241.012 446.348C231.025 446.598 219.251 445.841 209.442 446.386Z"/><path fill="#ACC0E1" d="M215.3 712.144C245.603 711.574 276.136 712.337 306.468 711.984C327.786 711.736 349.152 712.137 370.474 711.8C372.991 711.761 374.423 712.466 375.018 714.918C374.525 716.616 374.626 716.648 373.246 717.863C346.327 718.673 315.57 717.933 288.28 717.938L240.939 717.958C234.665 717.963 221.693 718.522 215.084 717.355C214.056 717.174 213.685 716.084 213.389 715.113C213.961 713.291 213.98 713.383 215.3 712.144Z"/><path fill="#ACC0E1" d="M213.918 563.577C222.416 562.922 239.457 563.45 248.477 563.459L316.092 563.471L354.689 563.411C360.371 563.388 366.874 563.21 372.552 563.515C373.874 563.586 374.309 564.293 374.906 565.144C374.98 566.912 374.546 567.371 373.691 568.912C362.66 569.585 346.68 569.101 335.375 569.103L262.527 569.095C248.828 569.089 235.127 569.105 221.429 569.067C218.374 569.059 214.512 569.705 212.834 566.855C212.886 565.049 213.006 565.07 213.918 563.577Z"/><path fill="#ACC0E1" d="M216.437 644.733C229.331 644.834 371.729 644.417 373.296 645.071C374.665 645.644 374.735 645.883 375.277 647.167C374.991 648.915 374.608 649.153 373.453 650.473L267.892 650.084L233.25 650.127C229.687 650.134 216.773 650.687 214.599 649.3C213.55 647.619 213.804 648.524 213.914 646.461C215.148 644.729 214.345 645.3 216.437 644.733Z"/><path fill="#ACC0E1" d="M214.52 680.117L281.871 680.024C290.001 680.012 301.256 679.724 309.512 680.441C310.578 680.534 310.799 681.466 311.125 682.253C310.937 683.939 310.486 684.313 309.488 685.671C303.81 686.199 295.436 685.932 289.487 685.932L254.524 685.951L228.815 685.963C224.684 685.961 215.707 687.126 213.55 683.695C213.438 681.789 213.622 681.759 214.52 680.117Z"/><path fill="#ACC0E1" d="M214.739 607.169L279.166 607.024C286.577 607.019 298.511 606.708 306.186 607.436C307.441 607.555 307.703 608.623 308.044 609.54C307.808 611.496 307.685 611.445 306.472 612.917C287.303 613.754 265.651 612.675 246.167 613.126C241.55 613.233 218.391 613.312 215.221 612.728C212.955 610.952 212.806 609.484 214.739 607.169Z"/><path fill="#ACC0E1" d="M215.168 729.058C220.755 728.646 229.023 728.858 234.775 728.856L272.659 728.93C282.802 728.926 295.864 728.753 306.207 729.159C307.181 729.198 307.733 730.242 308.225 730.97C308.146 732.729 307.741 733.011 306.67 734.4L250.498 734.445C239.573 734.459 226.16 734.926 215.557 734.332C213.705 733.226 214.326 733.966 213.439 732.21C213.847 730.074 213.586 730.834 215.168 729.058Z"/><path fill="#E59F7E" d="M349.603 665.26C354.499 665.203 374.521 663.029 376.272 667.538L375.529 668.469C370.979 670.309 349.756 669.504 343.25 669.473C336.71 669.48 330.157 669.492 323.617 669.439C321.288 669.421 317.832 669.63 316.768 667.119C319.533 664.282 344.009 665.261 349.603 665.26Z"/><path fill="#E59F7E" d="M318.033 591.599L356.066 591.525C361.652 591.513 367.523 591.393 373.113 591.536C374.604 591.574 374.522 591.847 375.503 592.793C375.799 594.241 375.526 594.341 374.856 595.739C356.499 594.735 337.417 596.228 319.001 595.433C318.16 595.397 317.635 594.983 317.034 594.466C316.855 592.6 316.736 593.558 318.033 591.599Z"/><path fill="#E59F7E" d="M258.43 665.133C259.166 665.109 259.903 665.09 260.64 665.078C275.01 664.876 289.869 664.925 304.249 665.26C305.733 665.295 305.902 665.693 306.839 666.602C306.765 668.218 306.708 667.789 305.521 669.35C290.829 668.913 275.882 669.498 261.177 669.208C258.974 669.165 258.32 669.138 257.024 667.72C257.29 665.917 257.01 666.803 258.43 665.133Z"/><path fill="#E59F7E" d="M257.999 591.577C269.856 591.59 292.6 591.315 305.524 591.819C305.924 592.115 306.324 592.41 306.724 592.706C307.033 594.408 307.01 593.522 306.118 595.503C304.73 595.535 298.541 595.651 297.615 595.527C292.479 594.839 259.858 596.98 257.052 594.465C256.812 592.605 256.713 593.566 257.999 591.577Z"/><path fill="#E59F7E" d="M214.127 665.082C221.557 664.657 238.74 664.875 246.835 665.295C247.239 665.624 247.644 665.952 248.048 666.28C248.427 668.114 248.413 667.169 247.689 669.199C243.574 669.674 215.754 669.896 213.852 668.219C213.248 666.334 213.339 667.339 214.127 665.082Z"/><path fill="#E59F7E" d="M214.272 591.539C218.962 591.456 245.561 590.733 247.717 592.292C248.303 594.034 248.131 593.468 247.643 595.526C243.14 595.87 216.415 596.421 214.219 594.849C213.496 593.186 213.72 593.72 214.272 591.539Z"/><path fill="#FFFEFE" d="M438.091 352.884C453.201 352.392 469.558 352.597 484.733 352.564L564.58 352.498C622.391 352.298 680.203 352.495 738.011 353.09C739.585 353.784 740.035 353.868 741.667 354.281C734.914 355.805 733.151 357.301 731.671 364.345C727.701 363.148 702.443 355.2 700.846 355.386L700.116 356.028C699.639 359.999 685.491 403.293 683.566 407.463C685.503 408.154 687.478 408.886 689.427 409.529L688.155 410.388L679.315 407.918C680.284 409.666 680.092 409.975 682.159 410.708C681.699 414.574 679.294 421.496 678.03 425.355C677.535 426.34 677.796 426.214 677.015 426.73C677.338 428.707 670.011 453.026 668.551 454.177L669.653 454.693L668.595 455.686C667.083 455.404 663.499 454.238 661.868 453.76C662.642 455.903 662.446 455.244 664.929 456.743L664.862 457.423C665.226 462.175 663.459 469.144 661.844 473.596C661.071 477.426 658.999 487.137 657.168 490.466L656.589 491.452C656.193 493.08 656.102 494.457 655.147 495.662L654.291 495.606L653.986 496.077L652.692 495.87L653.437 497.997C654.009 499.02 653.965 498.949 654.948 499.598L654.629 503.663C653.786 506.28 651.479 514.058 650.483 516.167L649.765 518.048C648.445 522.589 642.962 539.898 641.181 544.02L640.391 544.904L641.572 545.871L641.103 546.796C640.548 549.283 639.468 553.719 638.436 556.042L635.111 568.227C628.249 565.532 621.003 564.795 613.972 567.082C603.149 573.844 601.629 583.362 612.547 591.13C618.555 591.645 621.458 591.525 627.521 592.783C626.857 595.256 623.919 606.36 623.001 607.887C618.253 607.924 610.052 607.162 606.177 608.775C605.084 609.973 604.936 610.697 604.372 612.197C603.675 614.14 604.127 625.123 603.901 628.158C608.073 629.656 611.125 631.095 615.154 633.004L614.679 633.933L613.698 635.088L613.027 635.178L613.35 635.535C611.873 640.937 610.299 648.581 608.591 653.57L607.925 655.899C606.381 661.734 602.786 675.256 600.543 680.581L598.759 681.451L599.276 682.572L598.982 682.989L598.739 682.933C597.487 687.505 595.133 695.662 594.281 700.153L593.162 702.374C592.501 704.779 591.337 709.175 590.352 711.449L588.653 717.111C584.595 717.089 579.198 716.901 575.245 717.115C579.876 717.431 584.193 717.445 588.821 717.477L586.266 728.016C588.917 728.503 599.641 730.339 601.035 731.455L600.874 731.625L602.539 732.021C604.699 732.24 603.776 731.863 605.46 733.07L605.114 733.575C601.672 734.288 593.444 731.977 589.469 731.193L589.223 731.822C587.907 731.558 586.405 731.104 585.08 730.744C581.539 740.821 578.11 750.936 574.793 761.089C573.785 764.136 570.816 773.76 569.686 776.064C526.645 775.371 481.53 776.028 438.356 776.09C437.745 763.775 438.454 747.215 438.464 734.357L438.437 646.365L438.091 352.884Z"/><path fill="#ACC0E1" d="M563.971 600.034L603.512 599.996C603.429 603.093 602.885 609.687 604.372 612.197C603.675 614.14 604.127 625.123 603.901 628.158C608.073 629.656 611.125 631.095 615.154 633.004L614.679 633.933L613.698 635.088L613.027 635.178L613.35 635.535C611.873 640.937 610.299 648.581 608.591 653.57L607.925 655.899C606.381 661.734 602.786 675.256 600.543 680.581L598.759 681.451L599.276 682.572L598.982 682.989L598.739 682.933C597.487 687.505 595.133 695.662 594.281 700.153L593.162 702.374C592.501 704.779 591.337 709.175 590.352 711.449L570.016 711.425C569.118 711.483 567.543 711.349 566.588 711.3L564.322 711.089C563.603 698.626 564.024 682.354 564.028 669.644L563.971 600.034Z"/><path fill="#ACC0E1" d="M603.901 628.158C608.073 629.656 611.125 631.095 615.154 633.004L614.679 633.933L613.698 635.088L613.027 635.178L613.35 635.535C611.873 640.937 610.299 648.581 608.591 653.57L607.925 655.899C587.676 652.591 585.579 628.113 603.901 628.158Z"/><path fill="#42194F" d="M603.901 628.158C608.073 629.656 611.125 631.095 615.154 633.004L614.679 633.933L613.698 635.088L613.027 635.178C608.66 632.813 604.167 629.565 599.049 631.213C593.787 632.908 593.034 639.064 594.898 643.578C597.373 649.573 602.681 652.136 608.591 653.57L607.925 655.899C587.676 652.591 585.579 628.113 603.901 628.158Z"/><path fill="#ACC0E1" d="M581.908 696.808C577.01 692.209 576.805 683.034 582.727 679.212C587.159 676.352 595.553 679.287 600.543 680.581L598.759 681.451L599.276 682.572L598.982 682.989L598.739 682.933C597.487 687.505 595.133 695.662 594.281 700.153L593.162 702.374C590.205 701.66 586.61 700.04 583.712 698.839C582.971 697.867 582.8 697.63 581.908 696.808Z"/><path fill="#42194F" d="M581.908 696.808C577.01 692.209 576.805 683.034 582.727 679.212C587.159 676.352 595.553 679.287 600.543 680.581L598.759 681.451L599.276 682.572L598.982 682.989L598.739 682.933C593.618 681.065 589.138 679.163 583.78 681.68C579.094 683.882 579.147 688.581 581.701 692.448C584.704 696.996 589.423 698.454 594.281 700.153L593.162 702.374C590.205 701.66 586.61 700.04 583.712 698.839C582.971 697.867 582.8 697.63 581.908 696.808Z"/><path fill="#ACC0E1" d="M583.712 698.839C586.61 700.04 590.205 701.66 593.162 702.374C592.501 704.779 591.337 709.175 590.352 711.449L570.016 711.425C571.337 702.782 574.93 699.134 583.712 698.839Z"/><path fill="#42194F" d="M581.908 696.808C582.8 697.63 582.971 697.867 583.712 698.839C574.93 699.134 571.337 702.782 570.016 711.425C569.118 711.483 567.543 711.349 566.588 711.3C570.674 707.89 565.696 698.325 581.908 696.808Z"/><path fill="#FEB997" d="M483.563 612.417C493.419 612.391 503.893 612.532 513.699 612.307L513.784 710.965L483.88 710.977C483.587 678.125 483.482 645.271 483.563 612.417Z"/><path fill="#ACC0E1" d="M623.917 432.358L668.441 432.142C668.427 439.338 668.167 446.785 667.979 453.993L668.551 454.177L669.653 454.693L668.595 455.686C667.083 455.404 663.499 454.238 661.868 453.76C662.642 455.903 662.446 455.244 664.929 456.743L664.862 457.423C665.226 462.175 663.459 469.144 661.844 473.596C661.071 477.426 658.999 487.137 657.168 490.466L656.589 491.452C656.193 493.08 656.102 494.457 655.147 495.662L654.291 495.606L653.986 496.077L652.692 495.87L653.437 497.997C654.009 499.02 653.965 498.949 654.948 499.598L654.629 503.663L623.959 503.933L623.917 432.358Z"/><path fill="#ACC0E1" d="M657.168 490.466C655.189 488.764 652.89 487.488 650.748 485.944C643.206 480.509 636.324 470.558 640.026 460.915C641.406 457.285 644.218 454.382 647.802 452.887C652.419 451.005 657.389 451.967 661.868 453.76C662.642 455.903 662.446 455.244 664.929 456.743L664.862 457.423C665.226 462.175 663.459 469.144 661.844 473.596C661.071 477.426 658.999 487.137 657.168 490.466Z"/><path fill="#FFFEFE" d="M661.844 473.596C661.532 471.447 661.535 457.718 662.437 456.725L664.862 457.423C665.226 462.175 663.459 469.144 661.844 473.596Z"/><path fill="#42194F" d="M652.027 489.336C647.165 485.681 640.978 480.367 638.346 474.802C636.243 470.412 635.962 465.367 637.566 460.771C642.978 445.639 656.88 450.02 667.979 453.993L668.551 454.177L669.653 454.693L668.595 455.686C667.083 455.404 663.499 454.238 661.868 453.76C657.389 451.967 652.419 451.005 647.802 452.887C644.218 454.382 641.406 457.285 640.026 460.915C636.324 470.558 643.206 480.509 650.748 485.944C652.89 487.488 655.189 488.764 657.168 490.466L656.589 491.452C656.193 493.08 656.102 494.457 655.147 495.662L654.291 495.606L653.986 496.077L652.692 495.87C651.211 493.662 651.763 492.038 652.027 489.336Z"/><path fill="#FFFEFE" d="M654.291 495.606C652.984 494.138 652.211 492.962 653.163 491.076C654.724 490.371 654.374 490.677 656.589 491.452C656.193 493.08 656.102 494.457 655.147 495.662L654.291 495.606Z"/><path fill="#D0E4F9" d="M521.002 641.485L550 641.486L549.998 711.025L520.904 710.994C521.389 688.345 521.01 664.245 521.002 641.485Z"/><path fill="#D0E4F9" d="M613.972 567.082C611.215 565.434 580.202 566.072 574.462 566.073L501.7 566.045C497.425 566.052 493.125 566.105 488.854 566.103C483.901 566.102 471.327 567.565 470.651 560.362C471.679 557.597 474.837 556.221 477.61 556.227C494.272 556.261 510.996 556.165 527.653 556.105C564.579 555.713 601.509 555.692 638.436 556.042L635.111 568.227C628.249 565.532 621.003 564.795 613.972 567.082Z"/><defs><linearGradient id="gradient_0" gradientUnits="userSpaceOnUse" x1="531.93152" y1="730.63959" x2="530.74878" y2="708.87775"><stop offset="0" stop-color="#541B4D"/><stop offset="1" stop-color="#50344D"/></linearGradient></defs><path fill="url(#gradient_0)" d="M513.784 710.965L520.904 710.994L549.998 711.025L564.322 711.089L566.588 711.3C567.543 711.349 569.118 711.483 570.016 711.425L590.352 711.449L588.653 717.111C584.595 717.089 579.198 716.901 575.245 717.115C579.876 717.431 584.193 717.445 588.821 717.477L586.266 728.016C588.917 728.503 599.641 730.339 601.035 731.455L600.874 731.625L602.539 732.021C604.699 732.24 603.776 731.863 605.46 733.07L605.114 733.575C601.672 734.288 593.444 731.977 589.469 731.193L589.223 731.822C587.907 731.558 586.405 731.104 585.08 730.744C575.715 728.989 569.617 726.886 567.019 716.97L502.551 716.987C493.91 716.981 484.117 717.115 475.453 716.773C474.226 716.725 472.803 715.952 472.056 714.814C472.184 710.22 480.958 710.923 483.88 710.977L513.784 710.965Z"/><path fill="#FFFEFE" d="M586.266 728.016C581.549 727.03 569.028 724.704 570.579 717.588C571.913 716.671 573.516 717.029 575.245 717.115C579.876 717.431 584.193 717.445 588.821 717.477L586.266 728.016Z"/><path fill="#FFFEFE" d="M580.485 728.569C589.871 728.668 594.585 731.29 600.874 731.625L602.539 732.021C604.699 732.24 603.776 731.863 605.46 733.07L605.114 733.575C601.672 734.288 593.444 731.977 589.469 731.193C586.483 730.357 583.419 729.553 580.485 728.569Z"/><path fill="#FFFEFE" d="M640.391 544.904C636.263 543.12 633.439 541.831 629.793 539.054C620.961 532.327 620.859 520.181 631.943 515.811C638.583 513.192 643.598 515.307 649.765 518.048C648.445 522.589 642.962 539.898 641.181 544.02L640.391 544.904Z"/><path fill="#FFFEFE" d="M665.17 404.025C671.008 404.59 673.831 405.741 679.315 407.918C680.284 409.666 680.092 409.975 682.159 410.708C681.699 414.574 679.294 421.496 678.03 425.355C673.374 424.131 668.188 422.95 663.733 421.139C651.73 416.26 656.19 408.775 665.17 404.025Z"/><path fill="#47273E" d="M641.103 546.796C608.741 540.3 619.736 500.503 650.483 516.167L649.765 518.048C643.598 515.307 638.583 513.192 631.943 515.811C620.859 520.181 620.961 532.327 629.793 539.054C633.439 541.831 636.263 543.12 640.391 544.904L641.572 545.871L641.103 546.796Z"/><path fill="#47273E" d="M677.015 426.73C673.961 426.007 670.914 425.252 667.875 424.465C655.777 421.228 647.69 414.147 662.25 403.441C666.554 400.277 678.373 405.562 683.566 407.463C685.503 408.154 687.478 408.886 689.427 409.529L688.155 410.388L679.315 407.918C673.831 405.741 671.008 404.59 665.17 404.025C656.19 408.775 651.73 416.26 663.733 421.139C668.188 422.95 673.374 424.131 678.03 425.355C677.535 426.34 677.796 426.214 677.015 426.73Z"/><path fill="#FEB997" d="M491.996 381.896L524.966 381.846L524.729 504.276C513.822 504.263 502.916 504.352 492.011 504.541L491.996 381.896Z"/><path fill="#D0E4F9" d="M557.871 413.199C569.007 413.554 581.411 413.397 592.535 413.227L592.573 471.988C592.615 482.377 592.912 493.963 592.555 504.275C581.031 504.198 569.507 504.202 557.983 504.288C558.037 474.72 557.132 442.346 557.871 413.199Z"/><path fill="#D0E4F9" d="M153.773 308.497L599.385 308.457L749.763 308.483L798.764 308.477C806.675 308.478 814.616 308.435 822.504 308.542C826.545 308.596 830.774 313.257 830.831 317.131C831.197 341.912 830.85 366.735 830.904 391.524C830.906 392.192 830.729 393.31 830.524 393.937L830.624 394.524C825.231 392.467 814.064 389.53 807.971 387.631C807.152 383.463 805.51 376.188 801.08 374.378C790.199 369.93 778.53 366.392 767.293 362.801C759.785 360.403 750.915 356.805 743.444 355.075L741.667 354.281C740.035 353.868 739.585 353.784 738.011 353.09C680.203 352.495 622.391 352.298 564.58 352.498L484.733 352.564C469.558 352.597 453.201 352.392 438.091 352.884L438.437 646.365L438.464 734.357C438.454 747.215 437.745 763.775 438.356 776.09L424.483 776.077L424.529 352.727C387.946 352.292 350.858 352.738 314.249 352.747L147.83 352.505L147.741 328.512C147.712 319.235 145.486 313.768 153.773 308.497Z"/><path fill="#FFFEFE" d="M744.113 353.449C772.574 352.751 801.827 353.524 830.451 353.571L830.349 380.003C830.345 383.447 830.177 390.764 830.524 393.937L830.624 394.524C825.231 392.467 814.064 389.53 807.971 387.631C807.152 383.463 805.51 376.188 801.08 374.378C790.199 369.93 778.53 366.392 767.293 362.801C759.785 360.403 750.915 356.805 743.444 355.075L744.113 353.449Z"/><path fill="#F0F7FB" d="M738.011 353.09C739.858 353.194 742.329 353.254 744.113 353.449L743.444 355.075L741.667 354.281C740.035 353.868 739.585 353.784 738.011 353.09Z"/><path fill="#F0F7FB" d="M192.114 326.265C193.976 325.387 196.167 325.584 197.843 326.779C199.519 327.975 200.419 329.982 200.195 332.029C199.972 334.075 198.66 335.842 196.765 336.647C193.913 337.86 190.615 336.566 189.348 333.738C188.08 330.909 189.31 327.587 192.114 326.265Z"/><path fill="#F0F7FB" d="M217.742 325.396C224.494 325.162 226.45 333.372 219.752 336.862C211.114 336.852 210.536 329.279 217.742 325.396Z"/><path fill="#F0F7FB" d="M169.332 326.284C171.243 325.593 173.38 326.002 174.902 327.349C176.424 328.697 177.088 330.769 176.633 332.75C176.178 334.731 174.677 336.306 172.719 336.855C169.842 337.661 166.843 336.047 165.931 333.202C165.019 330.357 166.522 327.3 169.332 326.284Z"/><path fill="#47273E" d="M136.315 797.112C134.629 794.542 132.678 791.099 132.599 788.029C132.359 778.716 132.454 769.146 132.454 759.828L132.392 705.519L132.323 541.183L132.375 386.623L132.385 339.416C132.378 330.771 132.19 321.886 132.548 313.255C132.757 308.195 135.56 303.217 138.915 299.45C143.181 294.737 149.137 291.901 155.485 291.56C169.197 290.915 187.079 291.437 201.044 291.434L281.233 291.212L542.297 291.243L734.41 291.17L793.432 291.229C803.805 291.244 814.424 291.123 824.773 291.482C829.577 291.649 836.061 295.02 839.579 298.214C842.93 301.375 846.819 307.287 847.46 311.851C848.765 321.131 848.145 331.436 848.204 340.831C848.327 360.221 847.882 379.635 848.21 399.009L848.805 399.808L849.363 400.931C843.124 399.11 836.86 397.376 830.572 395.73L830.624 394.524L830.524 393.937C830.729 393.31 830.906 392.192 830.904 391.524C830.85 366.735 831.197 341.912 830.831 317.131C830.774 313.257 826.545 308.596 822.504 308.542C814.616 308.435 806.675 308.478 798.764 308.477L749.763 308.483L599.385 308.457L153.773 308.497C145.486 313.768 147.712 319.235 147.741 328.512L147.83 352.505L147.941 634.861L147.987 718.348C147.994 731.059 147.644 744.319 148.145 756.977C148.508 766.163 157.774 775.116 167.052 775.64C176.135 776.153 185.393 776.013 194.622 776.014L248.003 776.006L424.483 776.077L438.356 776.09C481.53 776.028 526.645 775.371 569.686 776.064C569.438 779.178 568.923 782.696 571.211 785.227C574.923 789.331 613.232 798.809 621.625 801.665C620.94 801.788 620.404 801.866 619.701 801.88C607.006 802.116 594.22 801.978 581.519 801.958L518.633 801.998L320.82 801.983L201.397 801.925L163.332 801.802C156.993 801.753 150.322 801.773 143.997 801.369C141.034 801.179 138.408 799.072 136.315 797.112Z"/></svg>