<?xml version="1.0" encoding="utf-8" ?><svg xmlns="http://www.w3.org/2000/svg" xmlns:xlink="http://www.w3.org/1999/xlink" width="1024" height="1024" viewBox="0 0 1024 1024"><path fill="#FFFEFE" d="M0 0L1024 0L1024 1024L0 1024L0 0Z"/><path fill="#FEF9F4" d="M405.326 218.418C417.528 217.428 436.269 218.007 449.079 218.026L525.067 218.096L775.302 218.026C775.124 228.5 775.041 238.976 775.054 249.451C775.041 254.71 774.802 262.658 775.211 267.81C775.856 272.63 775.526 285.503 775.52 291.004L775.484 336.098L775.655 494.554L775.793 527.904C775.801 530.539 775.47 540.307 776.027 542.289C784.658 546.305 799.578 556.785 808.309 561.942C813.496 565.005 827.357 573.128 831.577 576.337C831.43 597.145 831.4 617.954 831.485 638.762C831.497 651.065 831.143 665.517 831.57 677.673C847.37 676.523 861.041 678.694 873.47 689.344C883.181 697.563 889.1 709.402 889.85 722.103C890.84 737.196 889.738 757.341 890.085 773.018C891.205 773.018 893.256 772.962 894.284 773.075C904.192 773 919.795 772.493 929.327 773.068C933.404 772.913 939.881 771.853 940.011 777.721C940.135 783.28 940.089 788.835 940.081 794.397L940.036 825.407L940.221 929.692C954.89 929.737 969.559 929.708 984.228 929.605C991.683 929.57 999.046 929.438 1006.48 929.724C1013.82 930.007 1012.95 939.976 1010.18 941.263C1004.05 944.114 990.903 942.79 983.8 942.704C972.9 942.604 961.999 942.572 951.099 942.607L818.051 942.575L233.321 942.725L106.163 942.653C98.0375 942.584 89.9119 942.595 81.787 942.685C75.937 942.771 68.4449 943.39 62.7355 942.6C55.6086 941.613 54.0036 933.358 60.9224 929.659C63.5048 929.239 70.9158 929.386 73.8672 929.395L97.0606 929.467L180.587 929.46C181.161 914.979 180.866 898.991 180.886 884.414C180.983 856.53 180.904 828.645 180.65 800.761L180.679 633.286C180.708 617.015 180.424 593.35 180.782 576.682C180.999 576.353 181.217 576.024 181.434 575.695C186.274 573.558 193.385 568.031 198.028 565.142C210.78 557.209 223.992 547.427 236.883 539.98C238.074 537.82 237.385 386.802 238.171 368.257C238.879 366.078 238.218 366.789 239.912 365.788L352.815 260.04L382.552 232.03C385.261 229.514 394.657 221.373 396.528 219.174C397.667 218.122 397.245 218.565 399.101 218.126C401.659 218.535 402.713 218.49 405.326 218.418Z"/><path fill="#FED79C" d="M236.883 539.98C237.715 545.121 237.128 553.842 237.278 559.33C237.699 574.714 236.383 592.842 237.275 607.954L274.701 631.459C281.493 635.755 292.218 642.913 299.163 646.643C301.691 648.301 304.783 650.44 307.383 651.861C324.439 663.526 343.152 674.775 360.629 685.947L381.816 699.443C383.981 700.811 390 704.804 392.013 705.77C396.181 708.511 408.124 717.152 411.951 718.714C430.578 731.284 450.609 743.709 469.639 755.857C475.987 753.981 491.028 739.27 500.201 736.99C506.927 735.317 514.22 734.898 520.542 738.215C521.554 738.542 539.483 752.529 542.401 754.564C561.054 743.121 579.588 731.484 597.999 719.656C601.65 717.917 616.062 708.282 619.561 705.829C621.641 704.899 627.829 700.819 629.975 699.451L649.576 686.963C667.369 675.785 688.365 663.634 705.629 651.779C709.219 649.767 713.955 646.571 717.538 644.313C737.109 632.205 756.087 619.643 775.875 607.825C775.95 586.42 775.403 563.528 776.027 542.289C784.658 546.305 799.578 556.785 808.309 561.942C813.496 565.005 827.357 573.128 831.577 576.337C831.43 597.145 831.4 617.954 831.485 638.762C831.497 651.065 831.143 665.517 831.57 677.673C847.37 676.523 861.041 678.694 873.47 689.344C883.181 697.563 889.1 709.402 889.85 722.103C890.84 737.196 889.738 757.341 890.085 773.018C891.205 773.018 893.256 772.962 894.284 773.075C904.192 773 919.795 772.493 929.327 773.068C933.404 772.913 939.881 771.853 940.011 777.721C940.135 783.28 940.089 788.835 940.081 794.397L940.036 825.407L940.221 929.692C954.89 929.737 969.559 929.708 984.228 929.605C991.683 929.57 999.046 929.438 1006.48 929.724C1013.82 930.007 1012.95 939.976 1010.18 941.263C1004.05 944.114 990.903 942.79 983.8 942.704C972.9 942.604 961.999 942.572 951.099 942.607L818.051 942.575L233.321 942.725L106.163 942.653C98.0375 942.584 89.9119 942.595 81.787 942.685C75.937 942.771 68.4449 943.39 62.7355 942.6C55.6086 941.613 54.0036 933.358 60.9224 929.659C63.5048 929.239 70.9158 929.386 73.8672 929.395L97.0606 929.467L180.587 929.46C181.161 914.979 180.866 898.991 180.886 884.414C180.983 856.53 180.904 828.645 180.65 800.761L180.679 633.286C180.708 617.015 180.424 593.35 180.782 576.682C180.999 576.353 181.217 576.024 181.434 575.695C186.274 573.558 193.385 568.031 198.028 565.142C210.78 557.209 223.992 547.427 236.883 539.98Z"/><path fill="#FED79C" d="M776.027 542.289C784.658 546.305 799.578 556.785 808.309 561.942C813.496 565.005 827.357 573.128 831.577 576.337C831.43 597.145 831.4 617.954 831.485 638.762C831.497 651.065 831.143 665.517 831.57 677.673C847.37 676.523 861.041 678.694 873.47 689.344C883.181 697.563 889.1 709.402 889.85 722.103C890.84 737.196 889.738 757.341 890.085 773.018C891.205 773.018 893.256 772.962 894.284 773.075C895.879 773.295 897.467 773.557 899.047 773.861L898.777 774.36L896.309 774.966L911.344 774.993C916.952 774.962 933.528 774.113 937.417 776.366C938.672 778.309 937.755 788.51 938.092 792.07L938.152 793.871C937.491 806.515 938.03 823.15 938.026 836.134L937.923 928.398L801.868 928.478L763.017 928.446C758.221 928.442 746.902 928.159 742.779 928.756C741.702 929.18 741.524 929.308 740.404 929.536C740.479 919.277 740.473 909.018 740.388 898.76C735.279 895.694 729.528 891.269 724.534 887.806L686.124 860.798L552.548 765.758C544.621 760.157 522.572 741.531 515.658 738.997L515.685 738.855C515.336 738.441 515.059 738.077 514.731 737.648L514.867 737.416C516.64 737.842 518.716 738.042 520.542 738.215C521.554 738.542 539.483 752.529 542.401 754.564C561.054 743.121 579.588 731.484 597.999 719.656C601.65 717.917 616.062 708.282 619.561 705.829C621.641 704.899 627.829 700.819 629.975 699.451L649.576 686.963C667.369 675.785 688.365 663.634 705.629 651.779C709.219 649.767 713.955 646.571 717.538 644.313C737.109 632.205 756.087 619.643 775.875 607.825C775.95 586.42 775.403 563.528 776.027 542.289Z"/><defs><linearGradient id="gradient_0" gradientUnits="userSpaceOnUse" x1="842.71143" y1="930.2135" x2="837.32233" y2="773.76709"><stop offset="0" stop-color="#73B5FE"/><stop offset="1" stop-color="#BFDCFD"/></linearGradient></defs><path fill="url(#gradient_0)" d="M743.062 775.142C753.592 774.466 769.876 774.874 780.704 775.086C815.213 774.694 849.786 775.36 884.3 775.104C888.184 775.075 892.477 775.201 896.309 774.966L911.344 774.993C916.952 774.962 933.528 774.113 937.417 776.366C938.672 778.309 937.755 788.51 938.092 792.07L938.152 793.871C937.491 806.515 938.03 823.15 938.026 836.134L937.923 928.398L801.868 928.478L763.017 928.446C758.221 928.442 746.902 928.159 742.779 928.756C742.334 912.281 742.664 894.208 742.62 877.601C755.661 877.331 768.932 877.855 781.978 877.431C783.078 877.395 783.199 877.021 783.67 876.248L783.109 875.485C780.7 874.389 748.044 874.869 742.749 874.874L742.808 856.53C746.725 856.53 768.659 856.955 770.879 856.198L771.129 854.981L770.416 854.253C768.104 853.579 746.789 853.929 742.815 853.937C742.554 842.826 742.735 831.149 742.763 819.998C742.781 812.72 742.576 803.405 742.993 796.293C742.693 789.525 742.918 781.918 743.062 775.142Z"/><path fill="#ACC0E1" d="M743.062 775.142C753.592 774.466 769.876 774.874 780.704 775.086C782.911 775.636 784.34 775.704 786.621 775.784C778.851 777.18 775.625 774.609 768.006 778.382C762.591 781.064 748.229 784.695 743.613 788.475C743.281 791.276 743.717 793.981 742.993 796.293C742.693 789.525 742.918 781.918 743.062 775.142Z"/><path fill="#341243" d="M938.092 792.07L938.152 793.871C911.899 793.971 870.742 794.856 843.035 794.264C842.762 794.043 842.489 793.823 842.216 793.602L842.618 792.622C844.021 791.749 849.144 792.151 851.105 792.157L870.781 792.189L938.092 792.07Z"/><path fill="#47273E" d="M833.264 824.031C839.126 823.58 844.783 825.276 848.055 830.487C850.195 833.843 850.833 837.941 849.814 841.789C848.303 847.331 844.727 849.802 840.09 852.314C840.022 858.871 841.281 878.043 838.568 882.28C831.328 883.694 832.779 874.777 832.751 869.995C832.716 864.202 832.868 858.347 832.908 852.547C832.257 852.275 831.61 851.993 830.967 851.701C826.838 849.842 823.987 847.449 822.452 842.991C821.193 839.268 821.511 835.193 823.333 831.711C825.562 827.503 828.932 825.496 833.264 824.031Z"/><path fill="#341243" d="M776.027 542.289C784.658 546.305 799.578 556.785 808.309 561.942C813.496 565.005 827.357 573.128 831.577 576.337C826.587 579.342 813.847 586.607 809.74 589.738L544.738 756.361C556.58 765.547 570.008 774.781 582.223 783.597C608.323 802.61 634.588 821.396 661.015 839.953L712.567 876.154C720.374 881.656 732.534 890.935 740.364 895.624C740.234 870.45 740.247 845.275 740.402 820.1C740.397 813.634 739.25 776.411 742.288 773.183C747.234 771.802 780.214 772.581 787.64 772.515L787.733 727.219C787.493 709.894 796.765 695.745 810.023 685.472C817.68 680.724 822.641 679.337 831.57 677.673C847.37 676.523 861.041 678.694 873.47 689.344C883.181 697.563 889.1 709.402 889.85 722.103C890.84 737.196 889.738 757.341 890.085 773.018C891.205 773.018 893.256 772.962 894.284 773.075C895.879 773.295 897.467 773.557 899.047 773.861L898.777 774.36L896.309 774.966C892.477 775.201 888.184 775.075 884.3 775.104C849.786 775.36 815.213 774.694 780.704 775.086C769.876 774.874 753.592 774.466 743.062 775.142C742.918 781.918 742.693 789.525 742.993 796.293C742.576 803.405 742.781 812.72 742.763 819.998C742.735 831.149 742.554 842.826 742.815 853.937C746.789 853.929 768.104 853.579 770.416 854.253L771.129 854.981L770.879 856.198C768.659 856.955 746.725 856.53 742.808 856.53L742.749 874.874C748.044 874.869 780.7 874.389 783.109 875.485L783.67 876.248C783.199 877.021 783.078 877.395 781.978 877.431C768.932 877.855 755.661 877.331 742.62 877.601C742.664 894.208 742.334 912.281 742.779 928.756C741.702 929.18 741.524 929.308 740.404 929.536C740.479 919.277 740.473 909.018 740.388 898.76C735.279 895.694 729.528 891.269 724.534 887.806L686.124 860.798L552.548 765.758C544.621 760.157 522.572 741.531 515.658 738.997L515.685 738.855C515.336 738.441 515.059 738.077 514.731 737.648L514.867 737.416C516.64 737.842 518.716 738.042 520.542 738.215C521.554 738.542 539.483 752.529 542.401 754.564C561.054 743.121 579.588 731.484 597.999 719.656C601.65 717.917 616.062 708.282 619.561 705.829C621.641 704.899 627.829 700.819 629.975 699.451L649.576 686.963C667.369 675.785 688.365 663.634 705.629 651.779C709.219 649.767 713.955 646.571 717.538 644.313C737.109 632.205 756.087 619.643 775.875 607.825C775.95 586.42 775.403 563.528 776.027 542.289Z"/><defs><linearGradient id="gradient_1" gradientUnits="userSpaceOnUse" x1="841.57953" y1="680.48236" x2="837.68494" y2="773.41455"><stop offset="0" stop-color="#CBEBFB"/><stop offset="1" stop-color="#85BFFF"/></linearGradient></defs><path fill="url(#gradient_1)" d="M831.57 677.673C847.37 676.523 861.041 678.694 873.47 689.344C883.181 697.563 889.1 709.402 889.85 722.103C890.84 737.196 889.738 757.341 890.085 773.018C888.307 774.297 882.309 773.623 879.897 773.319C882.511 773.228 885.122 773.07 887.727 772.846C882.553 772.332 873.009 772.576 867.499 772.571C867.368 759.338 867.675 746.098 867.619 732.865C867.606 729.885 867.725 726.846 867.344 723.884C866.972 720.879 866.128 717.952 864.843 715.211C861.444 707.987 855.234 702.472 847.659 699.951C841.705 697.94 833.012 698.307 827.382 701.188C826.339 703.417 813.346 710.144 813.779 718.91L814.364 717.125C815.038 716.921 814.777 716.859 815.161 717.02C812.773 725.449 813.438 734.355 813.412 743.212C813.462 752.031 813.359 760.851 813.103 769.667C812.955 770.918 812.884 771.569 812.583 772.784C811.366 772.955 811.631 773.107 810.627 772.748C804.754 772.05 796.406 773.196 790.905 772.308C789.911 770.991 790.199 770.265 790.023 768.304C787.286 766.21 791.394 721.314 790.12 716.731C787.698 720.347 788.534 760.495 788.391 768.024C787.371 758.088 789.304 735.386 787.733 727.219C787.493 709.894 796.765 695.745 810.023 685.472C817.68 680.724 822.641 679.337 831.57 677.673Z"/><path fill="#2B0D4C" d="M831.57 677.673C847.37 676.523 861.041 678.694 873.47 689.344C883.181 697.563 889.1 709.402 889.85 722.103C890.84 737.196 889.738 757.341 890.085 773.018C888.307 774.297 882.309 773.623 879.897 773.319C882.511 773.228 885.122 773.07 887.727 772.846C887.562 762.782 887.526 752.716 887.619 742.651C887.682 725.398 889.199 711.677 877.659 697.27C861.138 676.648 827.926 674.126 807.704 690.543C783.583 710.126 791.839 741.011 790.069 767.889C790.053 768.027 790.038 768.165 790.023 768.304C787.286 766.21 791.394 721.314 790.12 716.731C787.698 720.347 788.534 760.495 788.391 768.024C787.371 758.088 789.304 735.386 787.733 727.219C787.493 709.894 796.765 695.745 810.023 685.472C817.68 680.724 822.641 679.337 831.57 677.673Z"/><path fill="#2B0D4C" d="M810.627 772.748C811.298 769.69 810.659 763.736 810.91 760.417C812.443 740.195 803.724 711.305 827.382 701.188C826.339 703.417 813.346 710.144 813.779 718.91L814.364 717.125C815.038 716.921 814.777 716.859 815.161 717.02C812.773 725.449 813.438 734.355 813.412 743.212C813.462 752.031 813.359 760.851 813.103 769.667C812.955 770.918 812.884 771.569 812.583 772.784C811.366 772.955 811.631 773.107 810.627 772.748Z"/><path fill="#FEF9F4" d="M831.477 702.101C839.77 700.877 846.547 700.622 853.79 705.82C866.508 714.946 865.066 728.32 865.034 741.902L864.947 772.599C853.63 772.66 842.312 772.642 830.994 772.546C828.177 772.583 815.047 773.091 813.478 772.021L813.103 769.667C813.359 760.851 813.462 752.031 813.412 743.212C813.438 734.355 812.773 725.449 815.161 717.02C820.271 708.422 822.148 706.403 831.477 702.101Z"/><path fill="#FA8764" d="M815.161 717.02C820.271 708.422 822.148 706.403 831.477 702.101C831.185 725.581 831.024 749.063 830.994 772.546C828.177 772.583 815.047 773.091 813.478 772.021L813.103 769.667C813.359 760.851 813.462 752.031 813.412 743.212C813.438 734.355 812.773 725.449 815.161 717.02Z"/><path fill="#FA8764" d="M831.577 576.337C831.43 597.145 831.4 617.954 831.485 638.762C831.497 651.065 831.143 665.517 831.57 677.673C822.641 679.337 817.68 680.724 810.023 685.472C809.452 675.635 809.946 665.557 809.85 655.68C809.637 633.851 810.293 611.527 809.74 589.738C813.847 586.607 826.587 579.342 831.577 576.337Z"/><path fill="#FED79C" d="M236.883 539.98C237.715 545.121 237.128 553.842 237.278 559.33C237.699 574.714 236.383 592.842 237.275 607.954L274.701 631.459C281.493 635.755 292.218 642.913 299.163 646.643C301.691 648.301 304.783 650.44 307.383 651.861C324.439 663.526 343.152 674.775 360.629 685.947L381.816 699.443C383.981 700.811 390 704.804 392.013 705.77C396.181 708.511 408.124 717.152 411.951 718.714C430.578 731.284 450.609 743.709 469.639 755.857C468.444 756.742 468.414 756.515 467.728 757.668C455.601 767.18 440.385 777.531 427.631 786.672C398.256 807.704 368.708 828.492 338.99 849.034C310.255 869.404 281.342 889.522 252.255 909.386C242.883 915.827 232.612 923.569 223.244 929.646L113.208 929.909C98.6817 929.902 74.9093 930.636 60.9224 929.659C63.5048 929.239 70.9158 929.386 73.8672 929.395L97.0606 929.467L180.587 929.46C181.161 914.979 180.866 898.991 180.886 884.414C180.983 856.53 180.904 828.645 180.65 800.761L180.679 633.286C180.708 617.015 180.424 593.35 180.782 576.682C180.999 576.353 181.217 576.024 181.434 575.695C186.274 573.558 193.385 568.031 198.028 565.142C210.78 557.209 223.992 547.427 236.883 539.98Z"/><path fill="#341243" d="M236.883 539.98C237.715 545.121 237.128 553.842 237.278 559.33C237.699 574.714 236.383 592.842 237.275 607.954L274.701 631.459C281.493 635.755 292.218 642.913 299.163 646.643C301.691 648.301 304.783 650.44 307.383 651.861C324.439 663.526 343.152 674.775 360.629 685.947L381.816 699.443C383.981 700.811 390 704.804 392.013 705.77C396.181 708.511 408.124 717.152 411.951 718.714C430.578 731.284 450.609 743.709 469.639 755.857C468.444 756.742 468.414 756.515 467.728 757.668C459.744 751.623 443.606 742.145 434.473 736.319L373.864 697.332C309.951 656.423 245.807 615.877 181.434 575.695C186.274 573.558 193.385 568.031 198.028 565.142C210.78 557.209 223.992 547.427 236.883 539.98Z"/><path fill="#341243" d="M208.193 638.131L210.265 638.615C211.263 639.971 210.762 656.829 210.747 659.981L210.581 734.905C208.902 734.584 209.449 734.883 208.143 733.951C207.391 726.346 207.928 706.639 207.982 697.95C208.102 678.482 207.596 657.459 208.193 638.131Z"/><path fill="#341243" d="M208.438 785.058C209.635 785.301 209.675 785.347 210.785 785.883C211.235 791.182 211.003 799.66 210.987 805.21C210.961 813.891 211.122 823.253 210.796 831.875C209.436 831.697 209.342 831.836 208.363 830.943C207.977 825.79 208.236 818.9 208.278 813.54L208.438 785.058Z"/><defs><linearGradient id="gradient_2" gradientUnits="userSpaceOnUse" x1="534.32776" y1="945.40973" x2="532.59973" y2="736.28021"><stop offset="0" stop-color="#401E3C"/><stop offset="1" stop-color="#280048"/></linearGradient></defs><path fill="url(#gradient_2)" d="M469.639 755.857C475.987 753.981 491.028 739.27 500.201 736.99C506.927 735.317 514.22 734.898 520.542 738.215C518.716 738.042 516.64 737.842 514.867 737.416L514.731 737.648C515.059 738.077 515.336 738.441 515.685 738.855L515.658 738.997C508.591 738.286 501.836 738.063 495.447 741.806C487.722 746.332 479.75 752.606 472.349 757.847L417.08 797.41L304.846 876.103C292.812 884.569 280.445 892.761 268.592 901.414C270.573 902.394 336.521 901.986 344.562 901.985L495.707 901.98L658.312 901.989C685.048 902.019 712.753 902.461 739.381 902.205C740.294 901.031 740.141 900.395 740.388 898.76C740.473 909.018 740.479 919.277 740.404 929.536C741.524 929.308 741.702 929.18 742.779 928.756C746.902 928.159 758.221 928.442 763.017 928.446L801.868 928.478L937.923 928.398L938.026 836.134C938.03 823.15 937.491 806.515 938.152 793.871L938.092 792.07C937.755 788.51 938.672 778.309 937.417 776.366C933.528 774.113 916.952 774.962 911.344 774.993L896.309 774.966L898.777 774.36L899.047 773.861C897.467 773.557 895.879 773.295 894.284 773.075C904.192 773 919.795 772.493 929.327 773.068C933.404 772.913 939.881 771.853 940.011 777.721C940.135 783.28 940.089 788.835 940.081 794.397L940.036 825.407L940.221 929.692C954.89 929.737 969.559 929.708 984.228 929.605C991.683 929.57 999.046 929.438 1006.48 929.724C1013.82 930.007 1012.95 939.976 1010.18 941.263C1004.05 944.114 990.903 942.79 983.8 942.704C972.9 942.604 961.999 942.572 951.099 942.607L818.051 942.575L233.321 942.725L106.163 942.653C98.0375 942.584 89.9119 942.595 81.787 942.685C75.937 942.771 68.4449 943.39 62.7355 942.6C55.6086 941.613 54.0036 933.358 60.9224 929.659C74.9093 930.636 98.6817 929.902 113.208 929.909L223.244 929.646C232.612 923.569 242.883 915.827 252.255 909.386C281.342 889.522 310.255 869.404 338.99 849.034C368.708 828.492 398.256 807.704 427.631 786.672C440.385 777.531 455.601 767.18 467.728 757.668C468.414 756.515 468.444 756.742 469.639 755.857Z"/><path fill="#F79D67" d="M740.388 898.76C740.473 909.018 740.479 919.277 740.404 929.536C724.61 930.194 704.6 929.561 688.423 929.548L585.555 929.512L227.604 929.669C239.572 922.24 256.209 909.801 268.592 901.414C270.573 902.394 336.521 901.986 344.562 901.985L495.707 901.98L658.312 901.989C685.048 902.019 712.753 902.461 739.381 902.205C740.294 901.031 740.141 900.395 740.388 898.76Z"/><path fill="#04000A" d="M894.284 773.075C904.192 773 919.795 772.493 929.327 773.068C926.953 774.506 913.666 772.335 912.714 774.498L911.344 774.993L896.309 774.966L898.777 774.36L899.047 773.861C897.467 773.557 895.879 773.295 894.284 773.075Z"/><path fill="#FFFEFE" d="M299.929 580.798C362.395 581.19 424.862 581.242 487.329 580.953L716.877 580.88C716.937 600.417 716.283 625.255 717.538 644.313C713.955 646.571 709.219 649.767 705.629 651.779C688.365 663.634 667.369 675.785 649.576 686.963L629.975 699.451C627.829 700.819 621.641 704.899 619.561 705.829C616.062 708.282 601.65 717.917 597.999 719.656C579.588 731.484 561.054 743.121 542.401 754.564C539.483 752.529 521.554 738.542 520.542 738.215C514.22 734.898 506.927 735.317 500.201 736.99C491.028 739.27 475.987 753.981 469.639 755.857C450.609 743.709 430.578 731.284 411.951 718.714C408.124 717.152 396.181 708.511 392.013 705.77C390 704.804 383.981 700.811 381.816 699.443L360.629 685.947C343.152 674.775 324.439 663.526 307.383 651.861C304.783 650.44 301.691 648.301 299.163 646.643C299.935 640.791 299.71 629.246 299.738 622.979L299.929 580.798Z"/><path fill="#FEF9F4" d="M307.383 651.861C312.2 650.922 335.723 651.425 341.726 651.421L416.5 651.28L629.05 651.007C636.175 651.007 702.005 650.311 705.629 651.779C688.365 663.634 667.369 675.785 649.576 686.963L629.975 699.451C627.829 700.819 621.641 704.899 619.561 705.829C616.062 708.282 601.65 717.917 597.999 719.656C579.588 731.484 561.054 743.121 542.401 754.564C539.483 752.529 521.554 738.542 520.542 738.215C514.22 734.898 506.927 735.317 500.201 736.99C491.028 739.27 475.987 753.981 469.639 755.857C450.609 743.709 430.578 731.284 411.951 718.714C408.124 717.152 396.181 708.511 392.013 705.77C390 704.804 383.981 700.811 381.816 699.443L360.629 685.947C343.152 674.775 324.439 663.526 307.383 651.861Z"/><path fill="#ACC0E1" d="M392.013 705.77C398.386 705.219 404.857 705.531 411.252 705.478C444.598 705.198 478.083 705.906 511.415 705.464L511.402 718.039C499.215 718.209 415.477 717.161 411.951 718.714C408.124 717.152 396.181 708.511 392.013 705.77Z"/><path fill="#ACC0E1" d="M525.502 705.485C547.331 705.911 569.46 705.354 591.301 705.505C596.364 705.54 615.305 705.089 619.561 705.829C616.062 708.282 601.65 717.917 597.999 719.656C597.112 718.435 596.635 718.174 595.063 718.137C586.391 717.93 577.692 718.036 569.014 718.026C554.514 717.89 540.013 717.877 525.513 717.985L525.502 705.485Z"/><path fill="#341243" d="M437.656 600.826C446.752 600.305 454.565 607.221 455.149 616.314C455.734 625.406 448.872 633.266 439.785 633.914C430.607 634.569 422.651 627.624 422.061 618.442C421.47 609.26 428.47 601.353 437.656 600.826Z"/><path fill="#FFFEFE" d="M434.98 607.803C438.469 606.546 442.366 607.269 445.17 609.696C447.975 612.123 449.252 615.875 448.509 619.509C447.766 623.143 445.119 626.092 441.587 627.224C436.26 628.93 430.548 626.054 428.746 620.758C426.945 615.462 429.718 609.7 434.98 607.803Z"/><path fill="#341243" d="M600.995 602.013C609.93 601.859 626.489 599.879 623.229 614.961C622.611 617.822 620.027 619.617 617.644 621.031L625.095 632.516L618.421 632.568C616.1 631.626 613.247 621.735 608.689 621.127C607.447 622.675 607.693 630.095 607.648 632.511L601.07 632.611L600.995 602.013Z"/><path fill="#FFFEFE" d="M607.531 607.87C613.879 607.603 618.438 607.301 615.778 615.501C612.919 616.768 610.633 616.498 607.544 616.483L607.531 607.87Z"/><path fill="#341243" d="M377.704 601.52L384.23 601.539C384.291 606.455 386.232 633.166 381.362 633.195C377.498 631.362 366.003 616.833 361.738 612.521C361.549 618.731 361.626 625.369 361.597 631.613L361.324 632.459C359.777 633.248 357.367 632.928 355.533 632.871L355.562 601.935L361.392 601.784C366.625 608.33 372.187 615.39 377.743 621.606C377.65 614.911 377.637 608.215 377.704 601.52Z"/><path fill="#341243" d="M568.515 601.636L574.879 601.72C574.949 606.158 573.688 623.571 576.921 625.695C590.333 634.505 587.251 608.684 587.188 601.998C589.258 602.009 591.666 601.601 593.139 602.734C593.996 604.33 593.687 606.614 593.641 608.512C593.64 613.572 595.091 625.277 590.68 629.774C584.277 636.302 569.661 634.19 568.665 623.82C568.066 617.57 568.427 608.65 568.515 601.636Z"/><path fill="#341243" d="M512.586 602.04L532.425 601.984C532.489 603.647 532.756 605.122 532.037 606.562C529.197 608.885 523.536 607.795 519.05 607.822L519.063 614.413C521.449 614.401 527.982 614.236 529.975 614.607L530.705 615.752C530.873 617.582 530.994 617.631 530.275 619.385C528.025 620.332 522.766 619.202 519.582 620.153L519.172 621.098C519.173 623.027 519.275 625.116 519.331 627.058L532.571 627.017C532.64 629.493 532.701 630.117 532.255 632.506C530.477 633.415 515.34 632.98 512.533 632.96L512.586 602.04Z"/><path fill="#341243" d="M329.803 601.687C333.471 601.711 347.256 601.013 349.256 602.515C349.579 604.274 349.554 604.179 349.261 605.955C346.579 608.344 340.455 607.331 336.382 607.243L336.369 614.099C339.531 614.17 343.661 613.654 346.587 614.233C348.559 614.623 349.196 617.552 347.653 619.435C344.138 620.544 338.663 618.48 336.414 620.488L336.467 627.149C340.181 627.179 343.721 626.869 347.449 627.265C350.304 627.569 349.978 631.12 348.848 632.665C343.926 633.241 335.117 632.885 329.832 632.803L329.803 601.687Z"/><path fill="#341243" d="M671.325 601.744C674.291 601.726 685.686 600.832 687.529 602.687C687.617 604.525 687.767 604.709 686.996 606.409C684.55 608.711 678.272 607.666 674.321 607.608L674.301 614.51C676.499 614.49 684.091 614.191 685.682 614.834C686.111 616.72 686.023 616.768 685.819 618.618C683.239 622.539 680.193 617.61 675.13 620.604C673.949 622.54 674.365 623.1 674.378 625.625L674.508 626.377C676.658 628.11 682.626 626.419 686.721 627.177C688.16 628.407 687.693 627.67 688.237 629.424C687.055 634.466 672.765 632.57 667.998 632.556C667.998 625.684 667.52 608.091 668.216 602.454C669.42 601.543 669.511 601.849 671.325 601.744Z"/><path fill="#341243" d="M495.934 601.121C500.957 601.362 503.098 602.975 507.185 605.561L502.14 609.945C498.775 607.686 496.957 606.759 492.804 607.941C489.432 612.527 502.07 615.789 504.605 617.687C509.182 621.115 507.892 626.369 504.848 630.346C502.794 633.032 498.068 633.446 495.025 633.55C489.353 632.371 487.807 631.725 484.397 626.805C486.219 625.804 487.462 624.916 489.519 624.662C491.987 626.174 498.166 629.341 500.508 626.64C501.508 620.094 493.617 620.185 489.725 617.361C480.826 610.904 486.675 602.519 495.934 601.121Z"/><path fill="#341243" d="M648.506 601.624C652.496 601.169 659.831 601.445 661.762 605.689C657.925 611.638 654.359 605.863 649.748 607.475C648.462 608.904 648.879 608.097 648.483 610.005C650.529 615.658 669.547 616.624 660.89 629.928C659.344 632.305 655.296 632.909 652.84 633.188C646.897 632.916 644.853 632.229 640.151 628.872C641.214 627.264 642.446 625.878 643.684 624.404C646.859 626.353 654.248 630.277 656.475 625.092C655.121 620.353 645.819 619.091 642.679 614.104C639.041 608.327 643.033 604.281 648.506 601.624Z"/><path fill="#341243" d="M548.727 601.618C549.637 601.542 550.548 601.485 551.46 601.447C557.074 601.228 560.241 602.667 564.25 606.356C563.04 607.671 561.512 609.076 560.213 610.331C554.748 605.701 547.209 604.973 543.817 612.3C542.392 615.36 542.35 618.885 543.702 621.979C546.314 628.047 552.057 629.037 557.665 626.365C559.031 625.555 559.032 625.458 560.555 625.134C562.445 625.524 563.596 627.18 564.969 628.647C563.398 629.897 561.298 631.363 559.48 632.168C555.092 634.157 550.07 634.211 545.64 632.317C541.763 630.662 538.723 627.504 537.216 623.566C533.377 613.302 538.968 604.997 548.727 601.618Z"/><path fill="#341243" d="M388.534 601.61L395.542 601.55C398.423 607.797 401.431 615.741 404.086 622.214C407.015 616.254 410.085 607.961 412.595 601.616L419.468 601.72C418.548 604.358 417.066 607.671 415.962 610.301C412.649 617.711 408.484 627.347 404.377 634.256C400.901 629.577 391.254 607.931 388.534 601.61Z"/><path fill="#341243" d="M629.848 601.988L636.388 601.901L636.323 632.61L629.764 632.716L629.848 601.988Z"/><path fill="#341243" d="M460.997 601.939L467.511 601.82L467.501 632.814L461.063 632.768L460.997 601.939Z"/><path fill="#FEB997" d="M405.326 218.418C417.528 217.428 436.269 218.007 449.079 218.026L525.067 218.096L775.302 218.026C775.124 228.5 775.041 238.976 775.054 249.451C775.041 254.71 774.802 262.658 775.211 267.81C761.425 267.124 743.926 267.574 729.823 267.557L644.59 267.488L414.417 267.511L414.113 267.443C409.259 267.279 403.894 267.41 399 267.428L399.207 235.855C399.242 230.469 399.486 223.291 399.101 218.126C401.659 218.535 402.713 218.49 405.326 218.418Z"/><path fill="#FA8764" d="M399.101 218.126C401.659 218.535 402.713 218.49 405.326 218.418C408.541 218.531 411.301 218.593 414.517 218.516C414.528 224.999 415.252 263.954 414.113 267.443C409.259 267.279 403.894 267.41 399 267.428L399.207 235.855C399.242 230.469 399.486 223.291 399.101 218.126Z"/><path fill="#FEB997" d="M396.528 219.174C397.667 218.122 397.245 218.565 399.101 218.126C399.486 223.291 399.242 230.469 399.207 235.855L399 267.428C399.148 301.107 399.103 334.787 398.864 368.466L258.742 368.578C252.033 368.231 245.206 368.816 238.171 368.257C238.879 366.078 238.218 366.789 239.912 365.788L352.815 260.04L382.552 232.03C385.261 229.514 394.657 221.373 396.528 219.174Z"/><path fill="#341243" d="M396.528 219.174C397.667 218.122 397.245 218.565 399.101 218.126C399.486 223.291 399.242 230.469 399.207 235.855L399 267.428C399.148 301.107 399.103 334.787 398.864 368.466L258.742 368.578C252.033 368.231 245.206 368.816 238.171 368.257C238.879 366.078 238.218 366.789 239.912 365.788C255.474 366.467 275.086 365.911 291.057 365.936L396.158 365.94L396.145 272.795C396.133 256.01 395.8 235.777 396.528 219.174Z"/><path fill="#ACC0E1" d="M399 267.428C403.894 267.41 409.259 267.279 414.113 267.443L414.417 267.511L414.377 338.133C414.359 350.201 414.72 365.279 414.08 377.135C380.88 376.957 348.184 373.649 315.09 372.831C295.215 372.339 278.371 371.038 258.742 368.578L398.864 368.466C399.103 334.787 399.148 301.107 399 267.428Z"/><path fill="#FEB997" d="M682.117 319.903C696.002 325.827 709.983 331.523 724.055 336.987C727.075 338.184 741.223 343.577 743.313 344.821L749.247 347.019L749.224 398.854C749.209 407.357 749.585 423.357 748.499 431.178C744.122 462.704 722.772 490.638 700.88 512.601C694.371 519.097 687.642 525.37 680.706 531.408C678.784 533.911 673.681 538.345 671.161 540.581C649.405 521.86 628.207 502.935 615.156 476.492C613.232 472.661 610.552 467.063 608.342 463.529C602.414 450.45 602.42 440.662 602.608 426.856C602.806 422.802 602.622 418.632 602.51 414.565C602.225 392.072 602.649 369.384 602.414 346.822C602.593 346.74 602.773 346.658 602.953 346.577C616.212 341.895 630.266 334.818 643.841 331.79C645.627 331.392 647.768 332.167 649.358 332.766C658.542 329.114 673.128 322.799 682.117 319.903Z"/><path fill="#ACC0E1" d="M602.414 346.822C602.593 346.74 602.773 346.658 602.953 346.577C616.212 341.895 630.266 334.818 643.841 331.79C645.627 331.392 647.768 332.167 649.358 332.766C636.611 337.654 624.778 342.249 611.861 346.611L611.849 407.751C611.841 415.514 611.377 434.715 612.766 441.361C617.414 468.129 644.642 499.719 664.638 517.565C669.281 521.709 675.672 527.86 680.706 531.408C678.784 533.911 673.681 538.345 671.161 540.581C649.405 521.86 628.207 502.935 615.156 476.492C613.232 472.661 610.552 467.063 608.342 463.529C602.414 450.45 602.42 440.662 602.608 426.856C602.806 422.802 602.622 418.632 602.51 414.565C602.225 392.072 602.649 369.384 602.414 346.822Z"/><path fill="#2B0D4C" d="M743.313 344.821L749.247 347.019L749.224 398.854C749.209 407.357 749.585 423.357 748.499 431.178C744.122 462.704 722.772 490.638 700.88 512.601C694.371 519.097 687.642 525.37 680.706 531.408C675.672 527.86 669.281 521.709 664.638 517.565C644.642 499.719 617.414 468.129 612.766 441.361C613.785 439.549 612.467 435.119 612.716 432.668L613.353 432.175L613.294 431.53L613.511 434.609L614.341 434.875C617.764 470.908 654.403 505.433 680.325 527.921C685.452 524.113 692.214 517.355 696.848 512.865C721.732 488.752 746.026 456.641 746.599 420.603C746.979 396.761 746.092 372.717 746.594 348.865L747.235 348.405L747.181 347.525C745.332 346.571 744.798 346.258 743.313 344.821Z"/><path fill="#341243" d="M682.117 319.903C696.002 325.827 709.983 331.523 724.055 336.987C727.075 338.184 741.223 343.577 743.313 344.821C744.798 346.258 745.332 346.571 747.181 347.525L747.235 348.405L746.594 348.865C725.544 340.501 703.031 331.741 682.405 322.586C675.853 324.874 669.257 327.496 662.839 330.155C646.881 336.767 630.413 342.356 614.479 348.986C614.239 377.615 614.193 406.245 614.341 434.875L613.511 434.609L613.294 431.53L613.353 432.175L612.716 432.668C612.467 435.119 613.785 439.549 612.766 441.361C611.377 434.715 611.841 415.514 611.849 407.751L611.861 346.611C624.778 342.249 636.611 337.654 649.358 332.766C658.542 329.114 673.128 322.799 682.117 319.903Z"/><path fill="#FFFEFE" d="M678.058 386.068C693.619 384.997 707.123 396.697 708.28 412.252C709.436 427.807 697.811 441.375 682.263 442.617C666.593 443.869 652.896 432.133 651.73 416.457C650.564 400.78 662.375 387.148 678.058 386.068Z"/><path fill="#FEB997" d="M674.433 389.61C688.255 386.518 701.944 395.293 704.907 409.143C707.869 422.993 698.966 436.6 685.089 439.432C671.395 442.226 658.006 433.466 655.083 419.799C652.16 406.132 660.794 392.662 674.433 389.61Z"/><path fill="#FFFEFE" d="M676.766 396.483C686.58 394.723 695.968 401.233 697.759 411.04C699.551 420.848 693.071 430.257 683.269 432.08C673.423 433.911 663.962 427.395 662.162 417.543C660.362 407.691 666.908 398.251 676.766 396.483Z"/><path fill="#ACC0E1" d="M300.499 515.743L472.421 515.6C528.297 515.598 585.226 516.155 641.002 515.533C641 518.749 642.045 525.511 640.664 527.896L639.125 528.185L421.655 528.134C381.39 528.036 340.148 528.748 300.038 528.157C300.017 525.615 299.644 517.42 300.499 515.743Z"/><path fill="#ACC0E1" d="M430.52 414.245L602.51 414.565C602.622 418.632 602.806 422.802 602.608 426.856C545.248 427.227 487.886 427.278 430.525 427.008L430.52 414.245Z"/><path fill="#ACC0E1" d="M341.53 463.505L490.844 463.449L490.929 476.996L341.534 477.04L341.53 463.505Z"/><path fill="#ACC0E1" d="M608.342 463.529C610.552 467.063 613.232 472.661 615.156 476.492C578.559 477.689 540.769 476.441 503.994 476.985L503.957 463.489L608.342 463.529Z"/><path fill="#ACC0E1" d="M299.959 414.101C305.698 414.305 311.414 414.324 317.154 414.306C345.758 414.22 374.371 414.252 402.972 414.196L402.978 426.366L402.696 426.657C400.135 427.519 373.11 427.082 368.752 427.075L299.863 427.015L299.959 414.101Z"/><path fill="#ACC0E1" d="M300.014 463.571C309.845 463.826 321.025 463.596 330.95 463.591C330.959 467.7 331.109 472.775 330.706 476.785C320.701 476.455 309.884 476.626 299.823 476.655L300.014 463.571Z"/><path fill="#FED79C" d="M73.736 505.578L75.7382 504.448L76.3829 504.095C86.5269 498.451 76.6038 489.066 78.0408 483.55C78.7052 481 93.6569 476.749 97.6827 475.276C98.8972 480.256 100.411 486.878 101.061 491.865C101.519 492.189 101.976 492.512 102.434 492.836C104.327 501.728 107.082 517.509 108.555 526.029L108.777 527.337C109.247 529.586 109.922 531.806 109.241 533.919C107.858 535.278 108.661 534.854 106.735 535.216C101.787 532.155 62.8939 503.433 62.0392 501.503C62.7726 500.205 62.237 500.694 63.8737 500.2C69.3811 499.811 70.4243 501.642 73.736 505.578Z"/><path fill="#2B0D4C" d="M101.061 491.865C101.519 492.189 101.976 492.512 102.434 492.836C104.327 501.728 107.082 517.509 108.555 526.029L108.777 527.337C109.247 529.586 109.922 531.806 109.241 533.919C107.858 535.278 108.661 534.854 106.735 535.216C101.787 532.155 62.8939 503.433 62.0392 501.503C62.7726 500.205 62.237 500.694 63.8737 500.2C66.3607 502.369 68.3334 503.965 70.9742 505.944C75.3393 509.228 103.623 530.989 106.722 531.693L107.366 531.437C106.194 526.225 100.013 494.879 101.061 491.865Z"/><path fill="#ACC0E1" d="M971.277 573.444C974.113 573.232 976.046 573.024 977.66 575.52C977.96 579.965 973.463 584.142 976.279 588.315C980.555 589.628 986.467 578.362 991.491 582.259C992.737 583.216 993.487 584.684 993.532 586.255C993.717 592.611 980.272 603.794 975.436 609.148C971.607 613.233 967.088 618.87 961.654 620.573C958.05 621.702 955.693 617.991 955.835 615.082C956.311 605.31 965.256 580.328 971.277 573.444Z"/><path fill="#341243" d="M8.38913 929.66C12.7733 929.777 17.0099 929.693 21.7836 929.617C28.5208 929.51 41.1514 928.038 38.3244 939.055C37.817 941.033 36.2465 941.74 34.5127 942.575C30.1342 942.63 26.1234 942.684 21.3283 942.729C15.2496 942.786 -1.15424 944.423 3.57046 933.133C4.4521 931.026 6.29858 930.378 8.38913 929.66Z"/><path fill="#2B0D4C" d="M109.755 488.644C111.033 489.07 110.614 488.828 111.578 489.752C112.879 492.852 113.622 496.247 113.392 499.62C112.358 499.141 112.659 499.316 111.792 498.593C110.647 495.798 109.267 491.667 109.755 488.644Z"/></svg>