<?xml version="1.0" encoding="utf-8" ?><svg xmlns="http://www.w3.org/2000/svg" xmlns:xlink="http://www.w3.org/1999/xlink" width="1024" height="1024" viewBox="0 0 1024 1024"><path fill="#FFFEFE" d="M0 0L1024 0L1024 1024L0 1024L0 0Z"/><path fill="#FFFEFE" d="M721.618 274.032C725.26 275.586 744.541 298.325 748.184 302.459L798.51 360.266C804.935 367.675 813.264 378.242 820.887 384.214C822.194 385.238 823.087 384.865 824.423 384.516C829.952 380.205 823.742 348.608 822.138 341.277C812.716 298.194 819.261 235.957 865.934 217.348C870.435 215.554 877.076 213.96 881.618 215.99C885.722 216.417 888.054 217.759 891.344 220.3C891.871 220.787 893.115 221.656 892.946 222.267C886.004 247.367 881.979 273.643 885.915 299.707C886.923 306.381 889.355 313.485 890.603 320.39C890.32 322.939 891.285 325.968 892.013 328.485C894.601 330.361 900.67 348.958 902.304 353.289C909.787 373.318 920.042 392.117 928.564 411.68C930.599 416.35 938.045 421.133 938.252 426.171C939.293 451.601 937.938 477.62 938.713 503.029C939.576 500.402 940.279 497.482 941.917 495.344L942.842 495.146C945.572 498.451 938.687 506.411 938.685 511.907C938.68 535.88 939.055 559.859 938.932 583.838C938.883 593.376 938.902 601.443 927.32 602.644C925.498 606.658 913.531 623.883 910.584 626.842C898.36 639.119 896.788 647.549 893.559 664.19C892.971 667.223 890.559 675.292 891.146 678.127C892.962 679.056 892.55 678.402 893.2 679.809C891.302 681.961 849.596 691.321 843.592 692.746L804.665 702.289L774.967 709.37C770.836 710.357 763.673 712.289 759.695 712.936C749.984 715.321 680.258 732.577 676.221 731.647L675.967 730.798C676.934 729.326 678.064 729.132 679.74 728.485C674.109 678.773 651.987 638.304 616.687 605.139C615.914 604.413 616.271 604.104 616.443 603.082C613.669 601.631 348.087 602.477 319.021 602.425C317.85 602.516 316.676 602.574 315.5 602.597C297.035 602.893 277.755 602.551 259.218 602.513L155.776 602.44L102.286 602.472C92.8538 602.492 83.1947 602.722 73.784 602.202C71.0297 601.905 67.6466 600.449 65.7705 598.458C59.8065 592.126 61.2455 580.717 61.2286 572.347L61.2254 540.617C61.2991 506.701 61.1378 472.098 61.63 438.273C61.5096 435.76 61.4155 433.245 61.348 430.73C60.9981 413.069 78.6814 416.407 90.95 416.508L130.431 416.827C136.658 416.822 145.469 416.599 151.587 417.016C158.116 416.853 164.916 416.82 171.403 416.323C191.839 415.561 213.647 416.433 234.209 416.133C238.262 416.074 260.708 415.893 263.414 416.309C280.918 416.39 298.423 416.352 315.927 416.194C319.484 416.177 336.398 415.899 339.086 416.387C345.615 416.885 356.99 416.593 363.766 416.587L409.068 416.536L554.08 416.45C552.253 403.467 556.662 390.493 569.805 385.648C576.627 382.877 581.256 383.491 588.427 384.144C583.099 368.052 582.383 353.93 599.093 344.086C602.304 343.275 607.794 339.452 612.069 338.483C616.594 337.457 620.776 337.967 624.869 337.055C624.143 335.618 623.623 334.969 623.771 333.375C624.75 332.298 625.828 332.354 627.325 332.123C628.279 330.27 628.063 319.299 628.086 316.566C622.568 309.299 647.214 292.352 656.498 297.455C660.279 296.969 664.102 296.893 667.899 297.228C666.962 287.511 665.618 277.859 671.723 269.395C681.762 255.477 701.335 252.991 715.035 262.948C715.005 264.787 720.497 273.441 721.618 274.032Z"/><path fill="#FEB997" d="M721.618 274.032C725.26 275.586 744.541 298.325 748.184 302.459L798.51 360.266C804.935 367.675 813.264 378.242 820.887 384.214C822.194 385.238 823.087 384.865 824.423 384.516C829.952 380.205 823.742 348.608 822.138 341.277C812.716 298.194 819.261 235.957 865.934 217.348C870.435 215.554 877.076 213.96 881.618 215.99C885.722 216.417 888.054 217.759 891.344 220.3C891.871 220.787 893.115 221.656 892.946 222.267C886.004 247.367 881.979 273.643 885.915 299.707C886.923 306.381 889.355 313.485 890.603 320.39C890.32 322.939 891.285 325.968 892.013 328.485C891.21 329.751 890.69 330.122 891.181 331.718C900.282 361.322 915.445 388.202 927.79 416.352L761.235 416.542C735.435 416.493 707.771 415.925 682.102 416.507L681.712 418.359C677.826 420.16 660.891 417.44 656.918 419.395C646.489 419.836 633.131 419.487 622.507 419.483L555.773 419.363L556.312 418.042C559.431 416.163 574.428 418.004 580.661 416.572C573.017 416.273 564.265 416.447 556.537 416.424C555.902 400.494 558.76 392.789 574.312 386.704L573.752 386.28C577.875 384.763 583.254 385.834 587.818 385.74L588.123 385.123C584.076 382.879 574.226 385.857 569.805 385.648C576.627 382.877 581.256 383.491 588.427 384.144C583.099 368.052 582.383 353.93 599.093 344.086C602.304 343.275 607.794 339.452 612.069 338.483C616.594 337.457 620.776 337.967 624.869 337.055C624.143 335.618 623.623 334.969 623.771 333.375C624.75 332.298 625.828 332.354 627.325 332.123C628.279 330.27 628.063 319.299 628.086 316.566C622.568 309.299 647.214 292.352 656.498 297.455C660.279 296.969 664.102 296.893 667.899 297.228C666.962 287.511 665.618 277.859 671.723 269.395C681.762 255.477 701.335 252.991 715.035 262.948C715.005 264.787 720.497 273.441 721.618 274.032Z"/><path fill="#F79D67" d="M777.458 340.378C783.997 347.447 790.415 355.159 796.694 362.5C777.485 367.808 758.303 375.813 738.721 380.369C734.05 381.455 726.361 383.701 721.726 384.236C723.279 376.474 722.144 373.595 718.088 367.109C732.997 359.338 750.715 353.41 765.935 345.906C768.795 344.496 775.369 342.291 777.458 340.378Z"/><path fill="#521A58" d="M721.618 274.032C725.26 275.586 744.541 298.325 748.184 302.459L798.51 360.266C804.935 367.675 813.264 378.242 820.887 384.214C822.194 385.238 823.087 384.865 824.423 384.516C829.952 380.205 823.742 348.608 822.138 341.277C812.716 298.194 819.261 235.957 865.934 217.348C870.435 215.554 877.076 213.96 881.618 215.99C879.332 218.029 874.501 218.075 871.221 218.845C868.649 219.45 866.138 220.292 863.721 221.36C834.844 233.977 822.949 268.769 821.238 297.997C820.691 307.349 821.379 316.925 822.532 326.216C823.841 336.765 834.37 381.615 826.688 387.505C825.424 388.475 823.768 388.431 822.317 387.994C813.699 385.403 802.324 369.341 796.694 362.5C790.415 355.159 783.997 347.447 777.458 340.378C765.002 325.673 752.35 311.135 739.503 296.77C733.91 290.558 727.342 283.92 721.934 277.475C720.928 276.277 721.365 275.425 721.618 274.032Z"/><path fill="#521A58" d="M677.985 416.142C666.5 397.315 652.414 378.588 640.115 360.171C638.601 357.903 634.636 353.363 635.239 350.572C636.038 350.519 637.178 350.742 637.666 351.433C652.417 372.305 669.019 394.674 682.102 416.507L681.712 418.359C677.826 420.16 660.891 417.44 656.918 419.395C646.489 419.836 633.131 419.487 622.507 419.483L555.773 419.363L556.312 418.042C559.431 416.163 574.428 418.004 580.661 416.572C590.868 416.449 601.076 416.422 611.283 416.49C609.107 412.918 597.036 394.936 596.311 392.578C597.207 391.316 596.645 391.796 598.101 391.138C600.859 392.327 612.722 412.29 615.056 416.447C636.033 416.47 657.01 416.368 677.985 416.142Z"/><path fill="#521A58" d="M721.726 384.236C718.922 392.175 691.156 409.822 687.744 406.415C689.489 401.023 724.833 390.49 718.678 375.912C715.359 368.051 710.523 361.838 705.705 354.817L684.249 323.735C682.51 321.178 676.968 315.709 678.498 312.776C682.092 312.486 691.263 327.876 693.47 331.081C701.745 343.043 709.951 355.053 718.088 367.109C722.144 373.595 723.279 376.474 721.726 384.236Z"/><path fill="#521A58" d="M891.344 220.3C891.871 220.787 893.115 221.656 892.946 222.267C886.004 247.367 881.979 273.643 885.915 299.707C886.923 306.381 889.355 313.485 890.603 320.39C890.063 320.424 889.113 320.379 888.544 320.368C887.562 319.453 887.295 318.833 886.856 317.589C878.369 293.542 880.704 243.418 891.344 220.3Z"/><path fill="#521A58" d="M667.899 297.228C666.962 287.511 665.618 277.859 671.723 269.395C681.762 255.477 701.335 252.991 715.035 262.948L714.19 264.133C711.408 264.149 705.479 260.916 702.468 260.152C686.375 256.072 668.555 269.075 669.516 286.25C669.678 289.133 671.275 297.246 670.014 298.774C668.424 298.403 669.184 298.758 667.899 297.228Z"/><path fill="#521A58" d="M599.093 344.086C599.364 344.877 599.935 345.697 599.466 346.291C596.591 349.93 591.928 352.645 589.756 356.899C584.483 367.231 590.102 377.01 591.403 387.187C584.626 386.421 581.097 385.91 574.312 386.704L573.752 386.28C577.875 384.763 583.254 385.834 587.818 385.74L588.123 385.123C584.076 382.879 574.226 385.857 569.805 385.648C576.627 382.877 581.256 383.491 588.427 384.144C583.099 368.052 582.383 353.93 599.093 344.086Z"/><defs><linearGradient id="gradient_0" gradientUnits="userSpaceOnUse" x1="642.61902" y1="307.60898" x2="637.71191" y2="301.84171"><stop offset="0" stop-color="#321052"/><stop offset="1" stop-color="#561D5C"/></linearGradient></defs><path fill="url(#gradient_0)" d="M628.086 316.566C622.568 309.299 647.214 292.352 656.498 297.455C654.249 299.246 642.436 300.597 636.767 305.393C631.637 309.733 630.869 314.002 628.086 316.566Z"/><path fill="#521A58" d="M624.869 337.055C624.143 335.618 623.623 334.969 623.771 333.375C624.75 332.298 625.828 332.354 627.325 332.123C627.718 334.795 628.798 337.446 628.358 339.98L627.629 340.688C625.853 340.018 625.092 338.878 624.869 337.055Z"/><path fill="#FEB997" d="M617.857 602.813C620.74 602.194 638.387 602.478 642.086 602.486L695.012 602.517L850.166 602.513L901.337 602.555C909.33 602.565 919.518 602.277 927.32 602.644C925.498 606.658 913.531 623.883 910.584 626.842C898.36 639.119 896.788 647.549 893.559 664.19C892.971 667.223 890.559 675.292 891.146 678.127C892.962 679.056 892.55 678.402 893.2 679.809C891.302 681.961 849.596 691.321 843.592 692.746L804.665 702.289L774.967 709.37C770.836 710.357 763.673 712.289 759.695 712.936C749.984 715.321 680.258 732.577 676.221 731.647L675.967 730.798C676.934 729.326 678.064 729.132 679.74 728.485C674.109 678.773 651.987 638.304 616.687 605.139C615.914 604.413 616.271 604.104 616.443 603.082L617.857 602.813Z"/><path fill="#F79D67" d="M617.857 602.813C620.74 602.194 638.387 602.478 642.086 602.486L695.012 602.517C681.463 619.773 673.573 635.792 671.339 658.295C670.835 663.369 671.492 671.913 669.61 676.329C666.894 670.612 665.041 665.083 661.919 659.143C649.81 636.099 636.849 620.219 617.857 602.813Z"/><path fill="#250F52" d="M616.443 603.082L617.857 602.813C636.849 620.219 649.81 636.099 661.919 659.143C665.041 665.083 666.894 670.612 669.61 676.329C676.624 696.335 679.041 707.079 682.686 728.045C699.603 723.722 717.055 720.464 734.01 716.165C740.548 714.507 747.622 712.785 754.236 711.515C766.985 707.897 783.166 704.504 796.21 701.416C817.996 696.308 839.74 691.019 861.439 685.551C867.831 683.979 886.733 680.391 891.146 678.127C892.962 679.056 892.55 678.402 893.2 679.809C891.302 681.961 849.596 691.321 843.592 692.746L804.665 702.289L774.967 709.37C770.836 710.357 763.673 712.289 759.695 712.936C749.984 715.321 680.258 732.577 676.221 731.647L675.967 730.798C676.934 729.326 678.064 729.132 679.74 728.485C674.109 678.773 651.987 638.304 616.687 605.139C615.914 604.413 616.271 604.104 616.443 603.082Z"/><path fill="#250F52" d="M901.1 628.822C902.951 628.9 902.335 628.535 903.562 629.399C903.753 632.14 896.638 640.347 894.485 643.103C892.534 642.537 893.113 643.111 892.329 641.72C892.901 638.371 898.736 631.776 901.1 628.822Z"/><defs><linearGradient id="gradient_1" gradientUnits="userSpaceOnUse" x1="659.14911" y1="714.70807" x2="551.72656" y2="458.53854"><stop offset="0" stop-color="#271C61"/><stop offset="1" stop-color="#532A5B"/></linearGradient></defs><path fill="url(#gradient_1)" d="M892.013 328.485C894.601 330.361 900.67 348.958 902.304 353.289C909.787 373.318 920.042 392.117 928.564 411.68C930.599 416.35 938.045 421.133 938.252 426.171C939.293 451.601 937.938 477.62 938.713 503.029C939.576 500.402 940.279 497.482 941.917 495.344L942.842 495.146C945.572 498.451 938.687 506.411 938.685 511.907C938.68 535.88 939.055 559.859 938.932 583.838C938.883 593.376 938.902 601.443 927.32 602.644C919.518 602.277 909.33 602.565 901.337 602.555L850.166 602.513L695.012 602.517L642.086 602.486C638.387 602.478 620.74 602.194 617.857 602.813L616.443 603.082C613.669 601.631 348.087 602.477 319.021 602.425C313.01 601.794 301.294 602.056 294.836 602.035L251.325 601.921L250.906 601.434C238.187 601.354 225.509 601.638 212.779 601.311C224.924 598.92 249.09 602.851 261.533 599.477L701.586 599.395L854.658 599.309C878.626 599.285 902.722 599.466 926.697 599.353C929.719 599.339 931.673 598.772 934.078 597.042C937.032 591.623 935.936 560.698 935.921 553.099L935.853 489.797L935.785 450.841C935.786 443.609 935.975 436.283 935.591 429.056C935.152 420.778 931.598 419.669 924.217 419.531C915.228 419.363 906.281 419.446 897.321 419.449L845.761 419.458C783.238 419.456 719.287 420.18 656.918 419.395C660.891 417.44 677.826 420.16 681.712 418.359L682.102 416.507C707.771 415.925 735.435 416.493 761.235 416.542L927.79 416.352C915.445 388.202 900.282 361.322 891.181 331.718C890.69 330.122 891.21 329.751 892.013 328.485Z"/><path fill="#47273E" d="M569.805 385.648C574.226 385.857 584.076 382.879 588.123 385.123L587.818 385.74C583.254 385.834 577.875 384.763 573.752 386.28L574.312 386.704C558.76 392.789 555.902 400.494 556.537 416.424C564.265 416.447 573.017 416.273 580.661 416.572C574.428 418.004 559.431 416.163 556.312 418.042L555.773 419.363L258.772 419.403C246.794 419.958 231.252 419.503 218.946 419.48C197.169 419.586 175.391 419.407 153.619 418.942C151.038 418.034 146.584 418.148 143.657 418.071C146.598 417.256 148.553 418.122 151.587 417.016C158.116 416.853 164.916 416.82 171.403 416.323C191.839 415.561 213.647 416.433 234.209 416.133C238.262 416.074 260.708 415.893 263.414 416.309C280.918 416.39 298.423 416.352 315.927 416.194C319.484 416.177 336.398 415.899 339.086 416.387C345.615 416.885 356.99 416.593 363.766 416.587L409.068 416.536L554.08 416.45C552.253 403.467 556.662 390.493 569.805 385.648Z"/><path fill="#85607E" d="M171.403 416.323C191.839 415.561 213.647 416.433 234.209 416.133C238.262 416.074 260.708 415.893 263.414 416.309L214.215 416.415C207.008 416.465 199.254 416.014 192.284 417.299C190.28 417.668 187.234 416.804 185.665 417.749C190.88 420.543 238.165 417.896 246.94 418.924C249.873 419.267 255.249 418.612 258.772 419.403C246.794 419.958 231.252 419.503 218.946 419.48C197.169 419.586 175.391 419.407 153.619 418.942C151.038 418.034 146.584 418.148 143.657 418.071C146.598 417.256 148.553 418.122 151.587 417.016C158.116 416.853 164.916 416.82 171.403 416.323Z"/><path fill="#ADA3BA" d="M61.63 438.273C62.7622 432.318 60.3969 428.776 64.0537 423.413C65.5677 425.071 62.9554 433.664 64.4891 437.727C65.3639 447.673 64.7093 464.016 64.7312 474.415L65.0566 547.998C65.1061 560.864 64.7141 579.743 65.6018 592.084C67.9068 595.96 68.7884 596.727 72.7316 598.946C94.4896 599.771 117.412 598.764 139.264 599.155C142.922 599.22 160.546 598.928 163.208 599.51L228.063 599.467C238.609 599.457 251.126 599.127 261.533 599.477C249.09 602.851 224.924 598.92 212.779 601.311C225.509 601.638 238.187 601.354 250.906 601.434L251.325 601.921L294.836 602.035C301.294 602.056 313.01 601.794 319.021 602.425C317.85 602.516 316.676 602.574 315.5 602.597C297.035 602.893 277.755 602.551 259.218 602.513L155.776 602.44L102.286 602.472C92.8538 602.492 83.1947 602.722 73.784 602.202C71.0297 601.905 67.6466 600.449 65.7705 598.458C59.8065 592.126 61.2455 580.717 61.2286 572.347L61.2254 540.617C61.2991 506.701 61.1378 472.098 61.63 438.273Z"/><path fill="#85607E" d="M163.208 599.51L228.063 599.467C238.609 599.457 251.126 599.127 261.533 599.477C249.09 602.851 224.924 598.92 212.779 601.311C225.509 601.638 238.187 601.354 250.906 601.434L251.325 601.921C248.986 602.229 242.448 602.058 239.839 602.053L216.18 601.999L182.565 601.902C176.453 601.882 168.321 602.078 162.445 601.573L162.463 601.316C168.922 600.997 175.999 601.692 182.472 601.028L182.346 600.721C176.402 599.758 167.851 600.706 163.208 599.51Z"/><defs><linearGradient id="gradient_2" gradientUnits="userSpaceOnUse" x1="98.989326" y1="426.27118" x2="94.913139" y2="410.98853"><stop offset="0" stop-color="#B8A6B8"/><stop offset="1" stop-color="#E1D7E1"/></linearGradient></defs><path fill="url(#gradient_2)" d="M61.63 438.273C61.5096 435.76 61.4155 433.245 61.348 430.73C60.9981 413.069 78.6814 416.407 90.95 416.508L130.431 416.827C130.641 418.009 130.722 417.911 130.624 419.067C118.581 419.382 106.535 419.53 94.4886 419.511C90.9284 419.522 86.96 419.529 83.4312 419.543C65.3488 419.619 65.0908 421.776 64.4891 437.727C62.9554 433.664 65.5677 425.071 64.0537 423.413C60.3969 428.776 62.7622 432.318 61.63 438.273Z"/><path fill="#ADA3BA" d="M130.431 416.827C136.658 416.822 145.469 416.599 151.587 417.016C148.553 418.122 146.598 417.256 143.657 418.071C146.584 418.148 151.038 418.034 153.619 418.942C146.442 419.234 137.872 419.045 130.624 419.067C130.722 417.911 130.641 418.009 130.431 416.827Z"/><path fill="#040611" d="M299.583 470.06C305.64 470.037 311.698 470.063 317.755 470.138C321.578 478.82 326.307 490.473 330.515 498.696L330.649 470.094L350.221 470.089C349.626 490.972 350.151 512.111 350.012 533.017C349.981 537.698 350.289 542.706 349.792 547.331C348.593 548.417 348.77 548.046 346.625 548.089L333.297 548.076C328.693 536.754 323.941 525.492 319.04 514.295L318.923 547.976C312.785 548.125 305.978 547.957 299.789 547.933C298.921 523.685 299.629 494.648 299.583 470.06Z"/><path fill="#7EBBF8" d="M331.979 471.417L348.942 471.344C348.696 488.356 348.555 505.369 348.52 522.383L348.773 546.962L334.319 546.762L324.113 522.366C323.004 519.78 319.921 511.715 318.052 510.515C317.188 511.767 317.516 512.107 317.5 513.961L317.696 523.563L300.991 523.6L301.005 512.689L300.95 471.469L316.98 471.471C321.178 481.24 327.141 495.708 331.904 504.984L331.979 471.417Z"/><defs><linearGradient id="gradient_3" gradientUnits="userSpaceOnUse" x1="341.59662" y1="546.79175" x2="335.99738" y2="521.203"><stop offset="0" stop-color="#3260B8"/><stop offset="1" stop-color="#537EC5"/></linearGradient></defs><path fill="url(#gradient_3)" d="M348.52 522.383L348.773 546.962L334.319 546.762L324.113 522.366C332.127 522.526 340.479 522.397 348.52 522.383Z"/><path fill="#83A5DC" d="M301.005 512.689C301.795 513.826 301.617 514.089 302.589 514.177C307.262 514.596 312.866 513.861 317.5 513.961L317.696 523.563L300.991 523.6L301.005 512.689Z"/><path fill="#426BBA" d="M300.991 523.6L317.696 523.563C318.085 530.305 317.87 539.565 317.922 546.503C312.272 546.408 306.517 546.433 300.858 546.405L300.991 523.6Z"/><path fill="#040611" d="M171.335 469.168C196.566 467.563 200.832 494.288 199.543 513.471C198.414 530.26 197.392 544.974 177.4 548.607C150.238 551.037 147.777 527.461 147.93 506.953C148.06 489.509 150.378 471.948 171.335 469.168Z"/><path fill="#7EBBF8" d="M149.355 514.74C149.212 512.037 149.142 509.33 149.143 506.623C149.199 496.106 150.002 483.849 158.045 476.08C166.334 468.074 182.417 468.655 189.99 477.368C198.676 487.361 198.781 502.151 198.064 514.589C197.961 516.384 197.898 518.59 197.704 520.34C197.091 527.527 195.932 534.397 191.212 540.214C184.231 548.818 166.896 549.643 158.733 542.429C151.514 536.051 149.758 523.919 149.355 514.74Z"/><defs><linearGradient id="gradient_4" gradientUnits="userSpaceOnUse" x1="176.72011" y1="546.03564" x2="172.46704" y2="512.63885"><stop offset="0" stop-color="#2F58AA"/><stop offset="1" stop-color="#618DD3"/></linearGradient></defs><path fill="url(#gradient_4)" d="M166.013 513.032C166.153 518.642 165.922 527.664 170.497 531.401C178.079 537.592 180.475 524.664 180.795 520.178C183.875 521.075 194.383 520.891 197.704 520.34C197.091 527.527 195.932 534.397 191.212 540.214C184.231 548.818 166.896 549.643 158.733 542.429C151.514 536.051 149.758 523.919 149.355 514.74C154.114 515.289 160.918 513.607 166.013 513.032Z"/><path fill="#040611" d="M166.013 513.032C166.011 509.187 164.989 474.181 178.757 488.515C181.647 491.524 180.975 509.43 180.93 515.295L180.795 520.178C180.475 524.664 178.079 537.592 170.497 531.401C165.922 527.664 166.153 518.642 166.013 513.032Z"/><path fill="#FFFEFE" d="M171.917 486.797C180.72 486.706 179.768 498.338 179.627 504.873C179.478 511.817 180.963 526.156 175.531 530.802C167.57 530.53 167.31 523.87 167.355 517.084C167.41 508.926 166.159 492.781 171.917 486.797Z"/><path fill="#83A5DC" d="M198.064 514.589C197.961 516.384 197.898 518.59 197.704 520.34C194.383 520.891 183.875 521.075 180.795 520.178L180.93 515.295C183.855 515.851 194.008 514.616 198.064 514.589Z"/><path fill="#040611" d="M643.84 470.155C665.626 468.562 678.781 480.225 685.221 500.2C677.971 500.668 668.197 500.44 660.757 500.477C654.624 490.767 643.897 489.503 636.714 498.199C624.582 512.888 646.992 540.899 660.051 520.101L677.75 520.066L683.772 520.103C682.419 525.03 680.618 529.671 677.67 533.889C672.301 541.431 664.138 546.511 655 547.994C605.48 556.37 592.609 477.719 643.84 470.155Z"/><path fill="#7EBBF8" d="M613.78 520.283C609.146 500.617 616.747 480.295 636.759 473.343C645.749 470.286 655.586 470.941 664.092 475.162C674.108 480.201 679.813 488.486 683.307 498.827L661.598 498.746C659.244 495.622 657.477 493.593 653.755 492.055C650.123 490.567 646.047 490.595 642.437 492.133C630.928 496.954 630.875 509.989 634.884 519.997C632.639 520.92 616.854 520.583 613.78 520.283Z"/><defs><linearGradient id="gradient_5" gradientUnits="userSpaceOnUse" x1="649.00098" y1="545.99994" x2="647.87738" y2="519.62085"><stop offset="0" stop-color="#335CAE"/><stop offset="1" stop-color="#557BC3"/></linearGradient></defs><path fill="url(#gradient_5)" d="M634.884 519.997C642.351 530.062 653.107 532.595 661.073 521.507L682.021 521.504C680.115 527.103 678.208 531.694 674.11 536.023C656.317 554.82 626.665 548.836 616.061 526.023C615.18 524.16 614.419 522.243 613.78 520.283C616.854 520.583 632.639 520.92 634.884 519.997Z"/><path fill="#040611" d="M843.558 470.138C858.029 470.02 879.598 469.428 893.698 470.278C894.119 476.455 893.871 485.203 893.745 491.456C883.968 491.95 874.512 491.951 864.74 491.964L864.678 498.988L885.888 498.998C886.13 505.216 885.93 512.702 885.921 519.017L864.531 519.136L864.544 527.377C873.905 527.274 884.236 526.956 893.515 527.326C894.012 533.048 893.723 542.401 893.507 548.247C876.915 547.929 859.942 548.036 843.316 547.963C842.232 524.808 843.272 493.594 843.558 470.138Z"/><path fill="#7EBBF8" d="M844.816 471.479L892.463 471.472L892.473 490.12C882.757 490.433 873.037 490.559 863.317 490.499L863.345 500.554L884.581 500.444C884.605 506.179 884.564 511.913 884.456 517.647C877.435 517.549 870.413 517.495 863.39 517.484L845.097 517.666C845.143 506.934 845.624 491.541 844.822 481.25C844.814 478.017 844.767 474.704 844.816 471.479Z"/><defs><linearGradient id="gradient_6" gradientUnits="userSpaceOnUse" x1="868.05444" y1="545.81915" x2="868.44684" y2="518.09125"><stop offset="0" stop-color="#2E58AD"/><stop offset="1" stop-color="#5D80C4"/></linearGradient></defs><path fill="url(#gradient_6)" d="M844.538 546.65C844.527 525.585 844.174 502.238 844.822 481.25C845.624 491.541 845.143 506.934 845.097 517.666L863.39 517.484C863.152 520.848 863.383 525.474 863.461 528.951L892.378 528.623C892.493 534.623 892.374 541.02 892.366 547.052L844.538 546.65Z"/><path fill="#040611" d="M772.119 470.048C779.536 469.989 786.954 470.014 794.37 470.122C795.959 474.854 797.744 483.597 799.001 488.786C801.39 498.395 803.876 507.98 806.46 517.538C810.284 501.745 814.894 486.015 818.891 470.167C826.33 470.039 833.771 470.039 841.21 470.168C839.365 480.074 837.319 486.323 834.227 495.862L818.563 547.938L794.295 548.002C792.951 541.253 789.982 532.296 787.982 525.463C784.725 513.943 781.382 502.448 777.954 490.978C776.197 485.111 773.123 475.896 772.119 470.048Z"/><path fill="#7EBBF8" d="M820.281 471.495L839.752 471.438C836.441 485.904 830.695 502.949 826.302 517.451C821.65 518.003 812.496 518.514 807.737 518.374C810.533 506.608 816.465 483.027 820.281 471.495Z"/><defs><linearGradient id="gradient_7" gradientUnits="userSpaceOnUse" x1="806.62634" y1="545.54742" x2="806.49359" y2="517.91357"><stop offset="0" stop-color="#2C56AC"/><stop offset="1" stop-color="#6087C9"/></linearGradient></defs><path fill="url(#gradient_7)" d="M804.772 516.651C805.343 519.135 805.9 521.622 806.443 524.112C806.878 522.217 807.353 520.275 807.737 518.374C812.496 518.514 821.65 518.003 826.302 517.451L817.632 546.845C814.489 547.407 798.689 547.144 795.282 546.766C793.888 539.265 789.439 525.294 787.175 517.478C790.87 517.549 802.442 518.389 804.772 516.651Z"/><path fill="#26224E" d="M795.282 546.766C798.907 546.408 814.267 546.248 817.632 546.845C814.489 547.407 798.689 547.144 795.282 546.766Z"/><path fill="#7EBBF8" d="M773.638 471.428C780.202 471.487 786.875 471.411 793.449 471.399C794.152 473.609 794.611 475.89 795.124 478.15C798.056 491.056 801.569 503.811 804.772 516.651C802.442 518.389 790.87 517.549 787.175 517.478C786.721 515.246 785.942 513.08 785.333 510.886C781.665 497.666 777.279 484.655 773.638 471.428Z"/><path fill="#040611" d="M570.407 470.132C576.991 470.004 583.577 469.999 590.16 470.117C597.816 494.789 603.026 522.934 610.727 547.975C603.036 548.11 595.094 548.034 587.382 548.061L584.988 536.108L584.295 531.834L575.241 531.84C573.855 537.187 572.81 542.611 571.704 548.023L549.173 547.978L570.407 470.132Z"/><path fill="#7EBBF8" d="M571.501 471.464L589.207 471.459C593.138 486.291 597.391 505.23 601.724 519.453C604.331 528.203 606.307 537.545 608.989 546.576C602.137 546.496 595.285 546.513 588.434 546.628C587.264 541.247 586.266 535.829 585.443 530.384C581.699 530.25 577.947 530.356 574.2 530.424C573.081 535.903 571.798 540.89 570.725 546.569L551.036 546.471C553.721 537.19 556.272 527.871 558.689 518.517C563.077 502.865 567.348 487.18 571.501 471.464Z"/><defs><linearGradient id="gradient_8" gradientUnits="userSpaceOnUse" x1="579.48608" y1="547.51776" x2="581.79321" y2="518.94891"><stop offset="0" stop-color="#2C5AB3"/><stop offset="1" stop-color="#587EC2"/></linearGradient></defs><path fill="url(#gradient_8)" d="M583.056 518.061L583.44 519.54L601.724 519.453C604.331 528.203 606.307 537.545 608.989 546.576C602.137 546.496 595.285 546.513 588.434 546.628C587.264 541.247 586.266 535.829 585.443 530.384C581.699 530.25 577.947 530.356 574.2 530.424C573.081 535.903 571.798 540.89 570.725 546.569L551.036 546.471C553.721 537.19 556.272 527.871 558.689 518.517L559.839 519.032C564.711 518.447 570.582 519.225 575.86 518.682L576.464 517.929C579.071 517.779 580.462 517.579 583.056 518.061Z"/><path fill="#83A5DC" d="M583.056 518.061L583.44 519.54C579.066 519.858 564.125 519.605 559.839 519.032C564.711 518.447 570.582 519.225 575.86 518.682L576.464 517.929C579.071 517.779 580.462 517.579 583.056 518.061Z"/><path fill="#040611" d="M576.464 517.929C577.749 513.244 579.118 508.582 580.571 503.946C581.276 507.79 582.69 514.34 583.056 518.061C580.462 517.579 579.071 517.779 576.464 517.929Z"/><path fill="#040611" d="M433.116 470.15C446.531 469.849 460.687 470.072 474.157 470.08C474.058 476.302 474.11 482.668 474.095 488.902C467.169 489.027 460.017 488.962 453.071 488.99L453.037 498.436L469.535 498.455L469.523 518.916L453.219 519.033C453.193 522.143 452.442 525.375 453.37 528.173C454.653 529.51 454.346 529.068 456.875 529.177C462.942 529.132 469.116 528.966 475.156 529.441C475.447 535.348 475.28 541.925 475.255 547.884C461.288 548.153 446.795 547.883 432.745 547.96C432.834 522.218 432.681 495.844 433.116 470.15Z"/><path fill="#7EBBF8" d="M434.384 471.474L472.918 471.422C472.878 476.809 472.877 482.198 472.914 487.585L451.725 487.556L451.655 500.006C454.309 499.95 466.372 499.277 467.846 500.446C468.014 502.301 468.034 502.771 467.924 504.622C468.026 509.028 468.068 513.436 468.051 517.843C465.158 517.756 454.068 517 452.233 518.215L451.909 518.847C452.062 522.514 451.956 526.92 451.966 530.646L473.951 530.536L474.036 546.503L434.01 546.416L434.134 498.422C434.149 490.59 433.817 479.064 434.384 471.474Z"/><path fill="#426BBA" d="M434.01 546.416L434.134 498.422C434.149 490.59 433.817 479.064 434.384 471.474C435.361 485.443 434.418 506.043 434.603 520.507C437.968 520.594 448.251 521.185 450.848 520.015L451.582 518.961L451.909 518.847C452.062 522.514 451.956 526.92 451.966 530.646L473.951 530.536L474.036 546.503L434.01 546.416Z"/><path fill="#83A5DC" d="M467.247 513.736C467.504 511.211 467.229 506.576 467.924 504.622C468.026 509.028 468.068 513.436 468.051 517.843C465.158 517.756 454.068 517 452.233 518.215L451.909 518.847L451.582 518.961C451.268 517.766 450.294 516.466 449.57 515.46C451.303 514.856 464.426 513.963 467.247 513.736Z"/><path fill="#040611" d="M100.659 470.184C111.623 469.861 129.429 468.209 138.417 475.632C143.405 480.114 145.707 487.34 145.723 493.861C145.772 514.996 142.176 523.491 119.876 523.547L119.009 523.71C117.945 525.476 118.421 544.196 118.443 547.634C112.468 547.65 106.494 547.701 100.52 547.787L100.659 470.184Z"/><path fill="#7EBBF8" d="M102.012 471.522C125.697 471.33 147.817 468.343 144.236 501.591C142.771 521.471 133.9 521.968 117.097 522.05C117.007 530.169 117.057 538.29 117.246 546.407L101.916 546.292L102.145 491.823L102.012 471.522Z"/><defs><linearGradient id="gradient_9" gradientUnits="userSpaceOnUse" x1="122.74094" y1="544.92047" x2="122.25926" y2="504.09723"><stop offset="0" stop-color="#2E58B3"/><stop offset="1" stop-color="#75A6E6"/></linearGradient></defs><path fill="url(#gradient_9)" d="M102.145 491.823C103.259 495.952 102.631 508.771 102.621 513.563C106.432 513.423 113.774 513.579 116.67 511.671C116.881 511.078 117.066 510.734 117.124 510.128C123.759 510.048 125.914 510.094 127.877 503.131C132.947 504.159 139.322 503.154 144.236 501.591C142.771 521.471 133.9 521.968 117.097 522.05C117.007 530.169 117.057 538.29 117.246 546.407L101.916 546.292L102.145 491.823Z"/><path fill="#040611" d="M117.124 510.128C116.909 506.362 116.465 489.773 117.485 487.188C118.344 486.884 118.797 486.744 119.722 486.731C129.349 486.597 128.231 496.568 127.877 503.131C125.914 510.094 123.759 510.048 117.124 510.128Z"/><path fill="#FFFEFE" d="M118.397 487.87C128.958 488.401 128.571 499.884 125.217 507.012C123.348 508.505 121.307 509.401 119.172 508.105C117.261 504.314 118.271 492.86 118.397 487.87Z"/><path fill="#040611" d="M252.258 470.03L291.559 470.071L291.541 489.355L271.991 489.408L272.018 499.037L287.079 499.015C286.974 505.36 287.034 511.851 287.03 518.209L271.582 518.248C271.598 521.457 271.077 525.791 271.868 528.425C273.149 529.828 272.766 529.373 275.375 529.507C281 529.459 286.625 529.515 292.248 529.677C292.376 535.625 292.247 542.025 292.234 548.009L251.973 547.928C251.983 522.296 251.673 495.577 252.258 470.03Z"/><path fill="#7EBBF8" d="M253.502 471.392L290.256 471.382C290.101 476.786 290.211 482.525 290.225 487.955L270.559 487.724L270.522 500.466C274.685 500.504 278.437 500.523 282.589 500.318C282.993 502.904 284.173 509.247 281.939 510.804C275.841 515.052 260.369 514.954 253.381 514.734L253.502 471.392Z"/><defs><linearGradient id="gradient_10" gradientUnits="userSpaceOnUse" x1="270.43286" y1="546.30725" x2="273.30923" y2="510.14954"><stop offset="0" stop-color="#3460B4"/><stop offset="1" stop-color="#6C9AE1"/></linearGradient></defs><path fill="url(#gradient_10)" d="M282.589 500.318L284.777 500.493C286.775 503.209 285.554 512.658 285.76 516.965C280.874 516.856 275.314 516.864 270.485 516.574C270.393 521.398 270.375 526.224 270.434 531.048L290.937 530.871C290.976 536.012 290.941 541.405 291.077 546.523L253.068 546.474L253.381 514.734C260.369 514.954 275.841 515.052 281.939 510.804C284.173 509.247 282.993 502.904 282.589 500.318Z"/><path fill="#040611" d="M687.506 470.085L743.551 470.071L743.733 491.915L726.522 491.979L726.555 532.125L726.494 548.17C719.874 547.892 712.262 548.039 705.564 548.022C704.969 530.396 705.494 509.788 705.503 491.957C699.507 491.989 693.511 491.975 687.516 491.915C687.448 484.639 687.445 477.362 687.506 470.085Z"/><path fill="#7EBBF8" d="M688.864 471.494L742.206 471.431C741.983 477.527 742.21 484.337 742.296 490.505L724.988 490.484L724.981 517.383C718.966 517.89 712.924 517.995 706.895 517.696C706.944 508.613 706.913 499.529 706.804 490.447C700.914 490.548 694.793 490.468 688.884 490.471L688.864 471.494Z"/><defs><linearGradient id="gradient_11" gradientUnits="userSpaceOnUse" x1="716.57574" y1="545.896" x2="714.85907" y2="518.04639"><stop offset="0" stop-color="#2753AD"/><stop offset="1" stop-color="#638ACC"/></linearGradient></defs><path fill="url(#gradient_11)" d="M706.895 517.696C712.924 517.995 718.966 517.89 724.981 517.383C725.053 527.193 725.18 537.001 725.363 546.809C719.104 546.623 712.841 546.535 706.579 546.547C706.719 537.157 706.618 526.989 706.895 517.696Z"/><path fill="#040611" d="M354.447 470.048L401.039 470.077L401.035 490.076L388.474 490.108L388.414 535.25L388.347 548.015C381.852 547.854 374.937 547.964 368.408 547.962C368.023 529.232 368.446 508.883 368.476 490.032L354.42 490.09L354.447 470.048Z"/><path fill="#7EBBF8" d="M355.712 471.473L399.848 471.407L399.79 488.801C395.648 488.6 391.164 488.595 386.992 488.509L386.996 521.902L369.865 522.008C370.256 511.764 369.923 498.997 369.931 488.565L355.622 488.672L355.712 471.473Z"/><path fill="#426BBA" d="M386.996 521.902L387.129 533.713C387.689 536.229 387.948 544.089 387.413 546.515L369.675 546.447C369.643 538.3 369.707 530.154 369.865 522.008L386.996 521.902Z"/><path fill="#26224E" d="M387.129 533.713C387.689 536.229 387.948 544.089 387.413 546.515C386.671 543.927 387.038 536.797 387.129 533.713Z"/><path fill="#040611" d="M201.147 470.08L246.457 470.047L246.484 490.804C242.144 490.95 237.491 490.91 233.124 490.953C233.035 505.427 233.055 519.901 233.181 534.375L233.284 548.021C226.885 547.919 220.38 547.947 213.971 547.915L213.883 490.885L201.058 490.999C201.171 484.072 201.125 477.018 201.147 470.08Z"/><path fill="#7EBBF8" d="M202.37 471.474L245.03 471.357C244.976 477.369 245.017 483.381 245.155 489.391C242.059 489.364 234.194 489.081 231.659 489.761C232.642 507.041 231.762 528.681 232.057 546.525L215.064 546.445C215.152 534.49 215.159 522.534 215.087 510.579C215.068 504.412 214.805 496.249 215.229 490.315C213.604 488.913 204.971 489.444 202.25 489.47C202.433 483.679 202.342 477.31 202.37 471.474Z"/><defs><linearGradient id="gradient_12" gradientUnits="userSpaceOnUse" x1="222.78271" y1="545.44452" x2="224.24564" y2="523.12286"><stop offset="0" stop-color="#305CB3"/><stop offset="1" stop-color="#5075BF"/></linearGradient></defs><path fill="url(#gradient_12)" d="M231.262 519.997C231.388 512.715 230.813 496.215 231.659 489.761C232.642 507.041 231.762 528.681 232.057 546.525L215.064 546.445C215.152 534.49 215.159 522.534 215.087 510.579C215.068 504.412 214.805 496.249 215.229 490.315C216.492 497.642 214.162 512.903 216.689 519.978C217.586 522.491 225.349 519.563 230.518 519.937L231.262 519.997Z"/><path fill="#040611" d="M480.343 470.106C487.252 470.056 494.162 470.072 501.071 470.156L500.983 529.399L519.515 529.472C519.623 535.646 519.633 541.821 519.547 547.995L480.253 547.953C480.083 544.166 480.102 539.98 480.188 536.169C480.683 514.285 479.492 491.937 480.343 470.106Z"/><path fill="#7EBBF8" d="M481.522 471.51L499.64 471.476C499.519 487.584 499.479 503.693 499.52 519.803C499.618 523.312 499.487 527.361 499.46 530.914C505.733 530.909 512.005 530.838 518.276 530.701L518.277 546.507L481.506 546.416C481.63 529.412 481.176 511.804 481.572 494.959C481.546 487.178 481.448 479.28 481.522 471.51Z"/><path fill="#426BBA" d="M481.572 494.959C482.294 501.431 482.039 513.054 482.071 519.893L499.52 519.803C499.618 523.312 499.487 527.361 499.46 530.914C505.733 530.909 512.005 530.838 518.276 530.701L518.277 546.507L481.506 546.416C481.63 529.412 481.176 511.804 481.572 494.959Z"/><path fill="#040611" d="M747.521 470.063C754.663 470.027 761.806 470.052 768.947 470.136C769.605 495.119 769.104 522.852 768.999 547.999L747.468 547.979C747.286 522.007 747.303 496.034 747.521 470.063Z"/><path fill="#7EBBF8" d="M748.778 471.398L767.711 471.32L767.75 490.74L768.021 546.624C761.549 546.551 755.077 546.517 748.605 546.522C748.868 537.422 748.395 526.689 748.831 518.056C748.709 502.503 748.691 486.951 748.778 471.398Z"/><defs><linearGradient id="gradient_13" gradientUnits="userSpaceOnUse" x1="759.53326" y1="546.19836" x2="756.51434" y2="518.24255"><stop offset="0" stop-color="#2954AF"/><stop offset="1" stop-color="#6287CB"/></linearGradient></defs><path fill="url(#gradient_13)" d="M767.307 517.865C767.289 510.76 766.931 497.535 767.75 490.74L768.021 546.624C761.549 546.551 755.077 546.517 748.605 546.522C748.868 537.422 748.395 526.689 748.831 518.056C754.746 518.203 761.33 517.967 767.307 517.865Z"/><path fill="#040611" d="M405.595 470.19C412.096 469.932 418.93 470.076 425.467 470.113L425.506 547.962L405.452 547.952C405.49 522.751 404.838 495.117 405.595 470.19Z"/><path fill="#7EBBF8" d="M406.934 471.46L424.075 471.399C424.013 487.922 424.041 504.445 424.158 520.968L406.932 521.013L406.934 471.46Z"/><path fill="#426BBA" d="M406.932 521.013L424.158 520.968C424.465 529.007 424.252 538.37 424.266 546.51L406.69 546.467C407.111 538.809 406.872 528.857 406.932 521.013Z"/><path fill="#FED79C" d="M223.279 137.464C234.889 128.069 249.63 124.085 264.163 128.872C269.856 130.746 274.625 133.868 279.708 136.956L287.078 137.079C314.639 135.358 330.101 137.867 343.932 164.13C349.912 175.486 356.287 188.188 363.167 198.993C367.934 206.336 373.006 213.476 378.369 220.396C388.287 233.197 393.058 237.494 394.173 254.606C396.348 261.613 392.125 281.28 387.769 287.157C381.822 299.632 371.165 309.616 359.211 316.33C358.105 317.414 356.506 318.665 355.588 319.61C347.753 343.044 345.358 364.647 342.368 389.166C341.485 396.412 340.419 409.667 339.086 416.387C336.398 415.899 319.484 416.177 315.927 416.194C298.423 416.352 280.918 416.39 263.414 416.309C260.708 415.893 238.262 416.074 234.209 416.133C213.647 416.433 191.839 415.561 171.403 416.323C153.587 409.4 148.034 397.755 144.124 380.061C142.073 370.779 139.96 361.36 137.857 352.08C135.792 342.965 130.951 334.347 126.921 325.934L112.71 296.44C107.97 286.642 101.639 275.915 101.843 264.802C100.626 240.761 138.545 215.45 141.545 195.251C150.371 135.826 152.51 135.818 212.379 137.593C215.792 137.432 219.816 137.495 223.279 137.464Z"/><path fill="#AD6153" d="M171.403 416.323C153.587 409.4 148.034 397.755 144.124 380.061C142.073 370.779 139.96 361.36 137.857 352.08C135.792 342.965 130.951 334.347 126.921 325.934L112.71 296.44C107.97 286.642 101.639 275.915 101.843 264.802C100.626 240.761 138.545 215.45 141.545 195.251C150.371 135.826 152.51 135.818 212.379 137.593C216.107 137.999 218.792 137.909 222.56 137.834L153.414 207.952L130.613 231.125C120.263 241.535 107.719 251.31 107.545 267.021C107.473 273.528 110.054 281.469 113.749 287.048C122.12 297.073 133.606 307.674 142.822 317.246L191.813 367.712C201.446 377.612 211.193 387.484 220.841 397.384C229.545 406.315 238.28 409.921 250.717 409.831C264.923 409.728 274.959 401.542 284.348 391.865C304.005 371.604 323.925 351.646 343.575 331.383C346.143 328.734 352.736 320.998 355.588 319.61C347.753 343.044 345.358 364.647 342.368 389.166C341.485 396.412 340.419 409.667 339.086 416.387C336.398 415.899 319.484 416.177 315.927 416.194C298.423 416.352 280.918 416.39 263.414 416.309C260.708 415.893 238.262 416.074 234.209 416.133C213.647 416.433 191.839 415.561 171.403 416.323Z"/><path fill="#AD6153" d="M287.078 137.079C314.639 135.358 330.101 137.867 343.932 164.13C349.912 175.486 356.287 188.188 363.167 198.993C367.934 206.336 373.006 213.476 378.369 220.396C388.287 233.197 393.058 237.494 394.173 254.606L394.095 261.895C389.512 250.134 381.934 243.629 373.473 234.555L342.104 201.47L307.125 164.625C298.727 155.711 289.634 145.39 280.513 137.437C283.201 137.486 284.408 137.411 287.078 137.079Z"/><path fill="#AD6153" d="M359.211 316.33C359.665 314.691 386.217 287.725 387.769 287.157C381.822 299.632 371.165 309.616 359.211 316.33Z"/><path fill="#26224E" d="M319.321 220.906C322.449 221.075 323.949 221.662 324.485 224.943C323.962 226.811 322.845 228.266 321.613 229.747C297.201 259.1 272.537 288.259 248.58 317.986C246.389 320.434 243.872 324.211 241.285 326.147C238.635 328.13 236.35 326.79 234.8 324.702C231.168 319.811 227.148 314.111 223.701 309.27C216.466 299.043 209.157 288.87 201.774 278.75C200.36 276.853 198.881 274.941 197.715 272.887C195.605 269.17 201.296 265.776 203.956 269.192C207.942 274.311 211.671 279.648 215.454 284.923C223.272 295.767 231.032 306.653 238.735 317.579C265.957 286.662 291.806 252.436 319.321 220.906Z"/><path fill="#ACC0E1" d="M915.315 720.576C920.587 710.265 938.612 693.685 950.013 689.812C966.787 684.112 980.412 697.108 984.33 712.437C985.577 717.314 986.307 722.265 986.427 727.337C986.877 752.151 978.615 776.105 970.057 799.026C963.853 815.642 957.142 831.811 948.584 847.351C948.177 848.093 947.811 848.594 947.313 849.253C950.154 860.171 953.281 871.636 955.764 882.606C939.529 882.256 921.937 882.642 905.581 882.645L802.784 882.637L712.795 882.766C697.017 882.805 677.849 883.351 662.309 882.617C665.906 882.323 671.61 882.511 675.36 882.521L669.337 782.233C672.293 781.679 675.236 781.064 678.166 780.387C680.367 779.68 679.892 780.201 680.81 778.614L681.127 779.145C683.036 779.701 690.713 777.085 693.151 776.429C747.719 761.731 803.262 749.755 858.123 736.208C869.584 732.414 906.722 726.404 915.315 720.576Z"/><path fill="#7EBBF8" d="M680.81 778.614L681.127 779.145C683.036 779.701 690.713 777.085 693.151 776.429C747.719 761.731 803.262 749.755 858.123 736.208C858.397 737.542 858.617 737.303 857.529 738.716C854.516 742.625 851.18 746.479 848.07 750.319C842.981 756.653 838.135 763.178 833.542 769.88C810.751 803.036 801.276 842.72 802.784 882.637L712.795 882.766C697.017 882.805 677.849 883.351 662.309 882.617C665.906 882.323 671.61 882.511 675.36 882.521L669.337 782.233C672.293 781.679 675.236 781.064 678.166 780.387C680.367 779.68 679.892 780.201 680.81 778.614Z"/><path fill="#FED79C" d="M915.315 720.576C920.587 710.265 938.612 693.685 950.013 689.812C966.787 684.112 980.412 697.108 984.33 712.437C985.577 717.314 986.307 722.265 986.427 727.337C986.877 752.151 978.615 776.105 970.057 799.026C963.853 815.642 957.142 831.811 948.584 847.351C948.177 848.093 947.811 848.594 947.313 849.253C946.03 846.23 942.577 832.578 941.508 828.652C940.878 826.324 940.271 823.99 939.688 821.65C935.292 807.572 931.345 790.269 927.605 775.882C927.185 773.947 926.745 772.017 926.287 770.091C922.559 754.743 918.277 735.959 915.315 720.576Z"/><path fill="#F8E5CD" d="M926.287 770.091C931.014 765.987 936.516 755.354 940.696 750.283C943.749 746.579 946.646 742.123 949.827 738.423C951.371 736.465 953.074 732.805 955.528 732.792C956.868 734.083 956.514 733.333 956.788 735.035C954.557 741.423 946.213 748.648 943.004 754.202C940.737 758.125 928.305 773.283 927.605 775.882C927.185 773.947 926.745 772.017 926.287 770.091Z"/><path fill="#F8E5CD" d="M939.688 821.65C945.395 818.218 950.04 800.581 956.084 799.605L957.103 800.412C957.287 803.562 944.06 824.002 941.508 828.652C940.878 826.324 940.271 823.99 939.688 821.65Z"/><path fill="#FED79C" d="M73.9294 882.506C69.1107 871.825 64.2339 861.917 59.7393 850.852C44.8432 814.179 18.3709 697.332 96.5952 725.216C117.899 732.81 130.27 753.095 138.133 773.081C149.369 801.376 155.937 834.94 158.611 865.28C159.047 870.219 160.094 877.967 160.022 882.694C132.588 883.432 101.736 882.546 73.9294 882.506Z"/><path fill="#F8E5CD" d="M82.0374 754.663C82.4277 754.7 83.2047 754.733 83.4765 754.989C105.9 776.096 121.283 806.427 133.346 834.213C136.345 841.12 149.338 877.592 147.534 881.903C145.698 882.603 143.199 882.332 141.164 882.282C139.632 879.641 136.198 875.511 134.282 872.961C121.308 855.704 101.499 838.65 81.166 831.045C78.1953 830.09 73.4065 829.181 72.2103 826.235L72.771 825.068C76.1528 823.344 90.8652 830.957 94.4606 832.725C110.254 840.49 122.697 853.026 134.558 865.721C137.117 868.46 139.861 871.347 142.728 873.744C139.146 865.516 134.747 850.156 131.083 840.48C119.758 809.822 102.663 781.617 80.7234 757.392C80.7364 755.828 80.8376 756.219 82.0374 754.663Z"/><path fill="#26224E" d="M73.9294 882.506C101.736 882.546 132.588 883.432 160.022 882.694C205.131 882.077 251.292 882.592 296.5 882.593L529.577 882.455L618.09 882.555C632.068 882.582 648.503 883.008 662.309 882.617C677.849 883.351 697.017 882.805 712.795 882.766L802.784 882.637L905.581 882.645C921.937 882.642 939.529 882.256 955.764 882.606C965.789 882.862 976.498 882.184 986.587 882.5C989.172 882.581 991.632 883.121 993.36 885.138C993.788 887.14 993.755 886.115 993.081 888.329C990.519 891.276 985.338 890.634 981.69 890.575C969.667 890.38 957.644 890.464 945.619 890.471L808.541 890.536L287.761 890.56L117.974 890.54L61.7442 890.548C57.6436 890.547 34.3587 891.018 32.2212 889.814C31.6621 889.018 31.0945 888.504 30.9838 887.508C30.8304 886.127 31.1128 884.88 32.0651 883.841C34.21 881.501 68.3492 882.534 73.9294 882.506Z"/><path fill="#FED79C" d="M568.679 212.433C584.953 210.771 599.496 222.611 601.167 238.884C602.839 255.157 591.007 269.707 574.734 271.387C558.449 273.069 543.886 261.226 542.213 244.94C540.54 228.654 552.392 214.097 568.679 212.433Z"/><path fill="#F8E5CD" d="M107.049 624.189C121.323 623.723 133.309 634.841 133.915 649.11C134.521 663.379 123.522 675.473 109.26 676.22C94.7977 676.978 82.4958 665.79 81.8809 651.321C81.2661 636.852 92.5746 624.661 107.049 624.189Z"/><path fill="#FFFEFE" d="M114.215 671.515C102.544 674.983 90.2547 668.417 86.6481 656.788C83.0415 645.159 89.4593 632.792 101.044 629.046C112.63 625.301 125.072 631.57 128.956 643.109C130.882 648.829 130.399 655.086 127.619 660.443C124.839 665.8 120.001 669.797 114.215 671.515Z"/><path fill="#FEF9F4" d="M128.956 643.109C130.882 648.829 130.399 655.086 127.619 660.443C124.839 665.8 120.001 669.797 114.215 671.515C114.473 669.529 127.017 647.063 128.956 643.109Z"/><path fill="#F8E5CD" d="M564.457 663.82C578.548 662.082 591.38 672.098 593.116 686.19C594.851 700.282 584.834 713.112 570.742 714.845C556.653 716.579 543.825 706.564 542.09 692.475C540.355 678.386 550.368 665.557 564.457 663.82Z"/><path fill="#FEF9F4" d="M567.047 667.486C579.019 667.142 589.034 676.502 589.5 688.47C589.965 700.437 580.706 710.547 568.744 711.133C560.898 711.518 553.449 707.659 549.238 701.027C545.026 694.396 544.7 686.014 548.385 679.076C552.069 672.137 559.195 667.712 567.047 667.486Z"/><path fill="#26224E" d="M328.609 825.028C335.604 824.448 346.448 824.811 353.896 824.828L400.754 824.96L475.832 824.992C487.267 824.993 498.751 824.968 510.187 824.921C511.461 824.916 514.315 825.249 515.399 825.917C516.938 826.866 516.77 826.983 517.263 828.455C516.994 830.426 516.65 830.605 515.322 832.053C510.113 832.568 499.31 832.252 493.685 832.246L452.189 832.197L334.736 832.505C329.587 832.476 324.305 830.987 328.609 825.028Z"/><path fill="#FED79C" d="M277.601 665.819C279.247 667.456 280.904 673.298 282.13 675.938C287.864 688.28 296.606 690.382 308.25 694.604C287.156 701.123 285.813 702.762 277.873 723.145C276.202 720.186 274.662 713.837 271.685 708.899C265.781 699.107 258.406 697.51 247.966 694.471C267.397 686.748 270.628 687.458 277.601 665.819Z"/><path fill="#26224E" d="M532.145 825.077C538.637 824.708 571.68 823.823 575.721 825.952C577.697 828.442 577.339 830.012 575.052 832.131C569.93 832.755 533.936 833.106 531.834 831.61C530.775 830.856 530.388 829.983 530.31 828.702C530.212 827.079 531.173 826.17 532.145 825.077Z"/><path fill="#250F52" d="M678.166 780.387C676.612 766.946 676.139 752.611 675.082 739.066C675.021 738.283 675.619 737.507 676.076 736.911L676.864 736.958C677.725 738.641 680.154 773.831 680.81 778.614C679.892 780.201 680.367 779.68 678.166 780.387Z"/><path fill="#250F52" d="M896.848 690.202C897.512 690.449 898.202 690.534 898.386 691.061C900.005 695.698 906.214 719.662 905.452 722.953C904.718 722.802 904.304 722.875 904.136 722.377C902.534 717.63 896.179 693.21 896.848 690.202Z"/></svg>