<?xml version="1.0" encoding="utf-8" ?><svg xmlns="http://www.w3.org/2000/svg" xmlns:xlink="http://www.w3.org/1999/xlink" width="1024" height="1024" viewBox="0 0 1024 1024"><path fill="#FEF9F4" d="M0 0L1024 0L1024 1024L0 1024L0 0Z"/><defs><linearGradient id="gradient_0" gradientUnits="userSpaceOnUse" x1="451.67233" y1="331.76202" x2="519.37726" y2="1028.0139"><stop offset="0" stop-color="#211A38"/><stop offset="1" stop-color="#4D3D60"/></linearGradient></defs><path fill="url(#gradient_0)" d="M811.606 360.14C818.088 330.553 842.119 309.992 873.156 316.938C886.378 319.903 897.861 328.041 905.04 339.534C913.143 352.176 915.809 367.55 912.435 382.181C909.563 394.403 903.748 404.804 896.279 414.701C894.13 417.549 892.946 419.071 892.531 422.731L892.486 446.625C895.493 443.675 901.216 433.695 905.999 428.796C912.331 423.433 919.771 421.225 927.974 421.845C936.891 422.607 945.131 426.911 950.851 433.795C956.601 440.529 959.429 449.278 958.708 458.105C957.921 466.959 952.201 475.369 946.76 482.21C937.13 496.836 926.055 510.971 916.048 525.374C908.417 536.357 899.993 546.639 892.92 558.047C892.789 574.467 892.749 590.888 892.801 607.309C892.799 613.546 893.144 626.286 892.581 632.152C892.397 662.832 892.257 694.534 892.621 725.192C892.629 727.307 892.6 729.526 892.654 731.63L892.713 887.199L892.824 931.743C892.881 940.345 893.065 949.181 892.898 957.779C892.691 968.434 888.455 973.749 880.993 980.491C901.246 980.498 921.498 980.376 941.749 980.126C947.085 980.081 973.446 979.122 975.639 981.172C976.378 982.878 976.36 982.044 975.745 983.756C974.809 984.496 974.22 984.942 972.958 984.964C964.452 985.112 955.775 985.269 947.285 985.34L897.465 985.721C838.308 986.325 779.148 986.529 719.988 986.331L230.693 986.539L112.101 986.472L76.2711 986.411C71.8654 986.421 57.4375 987.474 54.6605 985.157C53.9122 983.119 53.8481 984.045 54.4741 982.279C56.6357 980.702 76.5747 981.313 80.6156 981.321C96.1188 981.398 111.622 981.366 127.125 981.226C119.928 974.936 116.145 969.263 116.03 959.313C115.872 945.618 116.001 931.91 115.974 918.213L115.898 832.448L116.087 580.937L116.048 448.424L116.106 410.561C116.115 405.107 115.821 395.348 116.442 390.402C116.169 383.191 120.349 374.24 125.386 369.102C136.226 358.046 151.462 360.038 165.635 360.193L606.255 360.113L743.176 360.09C765.796 360.096 789.086 360.448 811.606 360.14Z"/><path fill="#FFFEFE" d="M161.009 411.448L584.714 411.333L752.069 411.359C783.945 411.328 816.924 410.799 848.706 411.322C847.971 425.917 848.576 444.636 848.67 459.417L848.574 525.918L848.515 778.304L848.499 861.689C848.491 871.389 848.208 881.769 848.533 891.572C849.122 909.319 834.211 924.166 816.805 925.243C806.652 925.605 796.315 925.443 786.121 925.425L728.486 925.407L540.001 925.471L309.716 925.525L230.987 925.575C217.21 925.57 203.305 925.724 189.507 925.379C176.072 925.043 162.218 910.663 161.345 897.321C160.929 890.947 160.945 884.897 160.949 878.515L160.982 847.505L161.073 747.981L160.932 449.453L161.009 411.448Z"/><path fill="#83A5DC" d="M222.787 690.148C254.268 689.329 289.287 690.056 321.036 690.099L502.001 690.166L699.398 690.167C728.606 690.199 757.908 689.99 787.12 690.062C790.697 690.071 791.449 690.59 794.538 691.707C797.779 692.944 802.087 697.784 802.717 701.082C803.927 707.419 803.595 714.369 803.535 720.862C803.413 734.215 803.893 747.694 803.137 761.017C802.912 764.988 800.796 769.062 798.08 771.877C795.003 775.065 792.14 776.062 788.06 777.029L419.397 776.649L286.819 776.66L244.865 776.693C232.299 776.725 209.959 780.529 206.866 763.882C206.204 760.321 206.261 755.461 206.305 751.766C206.59 735.982 205.664 719.874 206.693 704.143C207.187 696.609 216.027 691.231 222.787 690.148Z"/><path fill="#D9EAFA" d="M220.698 694.164C230.414 693.686 242.493 694.002 252.378 694.009L307.04 694.019L480.286 694.2L689.37 694.085L753.443 694.089C764.498 694.089 775.667 694.008 786.722 694.204C788.677 694.207 790.29 694.711 792.113 695.351C796.98 697.06 799.385 704.119 799.466 708.812C799.598 716.552 799.394 724.427 799.434 732.194C799.279 740.945 799.677 749.787 799.404 758.53C799.18 765.741 794.761 770.663 788.253 772.945C782.565 773.641 775.197 773.446 769.3 773.453L741.618 773.481L648.747 773.495L340.694 773.467L261.849 773.441C248.67 773.434 234.889 774.222 221.765 773.263C219.988 773.133 218.342 772.755 216.724 771.998C213.466 770.472 211.545 767.554 210.509 764.189C209.036 759.405 209.003 713.78 209.608 707.417C209.83 705.08 210.369 702.75 211.514 700.683C213.57 696.973 216.786 695.37 220.698 694.164Z"/><path fill="#110E24" d="M479.15 715.627C506.283 713.198 505.494 743.776 488.938 749.347C480.142 750.881 471.996 748.461 469.078 739.49C465.651 728.953 468.7 719.526 479.15 715.627Z"/><path fill="#D9EAFA" d="M479.984 719.584C491.89 718.303 497.528 725.339 495.016 737.566C494.217 741.454 491.29 743.956 487.836 745.726C470.249 748.833 467.248 726.239 479.984 719.584Z"/><path fill="#110E24" d="M537.29 715.713C539.184 715.631 540.838 715.398 542.619 716.008C544.876 719.635 552.563 738.162 554.528 742.775C558.077 733.905 561.551 725.007 564.951 716.079L570.988 716.009C570.98 720.652 572.8 746.155 571.704 748.19C569.918 748.435 569.634 748.545 567.817 748.138C567.302 746.261 567.179 730.782 567.103 727.794C567.115 726.303 567.332 725.014 566.572 723.804C564.592 725.989 558.273 745.421 555.553 748.498C555.148 748.956 554.718 748.693 553.934 748.563C550.183 745.855 543.294 727.571 540.986 722.144C540.856 727.35 541.685 744.203 540.643 748.04C538.949 748.59 538.724 748.44 536.974 748.268L536.63 747.629C536.775 742.866 536.098 718.13 537.29 715.713Z"/><path fill="#110E24" d="M507.1 715.92C515.953 715.777 531.887 713.738 529.44 727.901C528.839 731.382 526.086 733.022 523.327 734.76C525.881 739.059 528.71 743.581 530.839 748.075L530.561 748.528C528.895 748.622 527.72 748.805 526.095 748.393L525.447 747.303C523.063 742.584 521.405 739.552 518.015 735.518L511.603 735.537C511.633 737.877 512.1 747.688 511.048 748.807C508.804 748.821 508.905 749.177 507.301 748.192C506.698 744.528 507.083 720.482 507.1 715.92Z"/><path fill="#FFFEFE" d="M511.609 719.738C518.086 719.467 530.88 720.168 523.373 729.989C519.067 731.977 516.369 731.631 511.576 731.775C511.545 727.781 511.594 723.737 511.609 719.738Z"/><path fill="#110E24" d="M444.878 715.6C450.145 715.604 458.414 715.258 463.205 715.943C463.83 717.391 463.734 716.626 463.24 718.333C460.807 720.449 453.267 719.579 449.486 719.578L449.438 731.046C452.637 731.003 459.381 730.068 461.487 732.204L461.396 734.541L449.187 734.571C449.196 736.973 449.478 747.321 448.821 748.858L447.583 749.343C445.648 749.047 446.291 749.518 445.169 748.403C444.383 742.27 444.869 722.829 444.878 715.6Z"/><path fill="#C07450" d="M343.911 450.227C357.393 449.786 372.353 450.077 385.952 450.071L460.034 450.034L680.63 450.106L758.326 450.026C764.644 450.017 771.027 450.073 777.403 450.001C787.245 449.89 796.24 449.157 801.577 459.397C804.309 464.636 803.242 471.25 803.506 476.957C803.407 492.316 803.659 507.723 803.337 523.077C803.19 530.053 797.71 535.031 791.888 537.793C786.37 539.467 763.841 538.627 756.918 538.616L683.229 538.565L489.196 538.664L391.453 538.685C376.765 538.666 362.063 538.702 347.373 538.719C345.016 538.721 339.076 538.22 337.289 536.843C336.101 535.928 334.779 530.934 334.714 529.395C334.256 518.502 334.56 506.71 334.555 495.83L334.506 472.539C334.431 462.91 331.691 451.791 343.911 450.227Z"/><path fill="#FED79C" d="M545.442 453.245L713.05 453.415L763.022 453.4C771.532 453.399 780.315 453.197 788.737 453.625C796.255 454.269 800.138 461.85 800.067 468.619C799.878 486.651 800.374 504.789 799.821 522.763C799.661 527.959 794.315 534.749 789.017 535.259C782.78 535.86 775.603 535.612 769.195 535.608L731.255 535.558L593.25 535.509L425.086 535.498C412.183 535.501 346.666 536.798 339.728 534.224C338.115 531.957 337.453 529.002 337.463 526.193C337.54 504.434 337.332 482.616 337.635 460.873C337.669 458.406 338.832 455.987 340.492 454.203C344.953 453.025 359.463 453.421 364.764 453.433L397.409 453.446L545.442 453.245Z"/><path fill="#C07450" d="M429.582 482.019C478.214 482.257 526.847 482.251 575.478 482.001L616.812 482.11C620.87 482.131 631.043 481.78 634.515 482.33C635.289 483.586 634.994 484.43 634.816 485.925C590.146 485.611 545.475 485.569 500.805 485.801L454.96 485.971C447.526 485.987 437.558 486.3 430.278 485.894C429.125 484.51 429.56 484.409 429.582 482.019Z"/><path fill="#C07450" d="M499.01 502.543L562.173 502.681C570.693 502.681 585.168 502.087 593.215 502.739C594.123 504.364 593.769 504.771 593.773 506.944L529.592 506.838C522.459 506.844 505.734 507.414 499.549 506.717C498.719 505.584 498.989 504.056 499.01 502.543Z"/><path fill="#C07450" d="M429.79 502.515L466.773 502.496C472.079 502.487 481.835 502.205 486.784 502.698C487.683 503.9 487.406 505.36 487.383 506.963L451.571 507.02C445.318 507.02 436.474 507.261 430.421 506.792C429.583 505.598 429.806 504.067 429.79 502.515Z"/><path fill="#C07450" d="M646.481 482.159C651.994 482.353 657.554 482.092 663.223 482.314C664.297 483.351 663.978 483.932 664.193 485.869C658.525 485.84 652.683 486.124 647.043 485.768C646.211 484.541 646.521 483.947 646.481 482.159Z"/><path fill="#83A5DC" d="M339.494 572.584C345.696 572.426 353.026 572.717 359.402 572.727L408.903 572.838L545.567 572.925L703 572.845C730.952 572.825 764.376 572.455 792.71 573.365C795.759 573.463 802.124 580.286 802.278 583.595C803.168 602.697 802.363 622.246 802.48 641.42C802.521 648.193 800.812 650.65 796.181 654.913C795.613 655.188 795.037 655.447 794.454 655.69L793.752 655.982C789.576 657.743 770.41 657.053 764.832 657.046L703.221 657.047L408.646 657.057C400.308 657.051 340.241 658.077 337.2 656.086C334.213 651.021 335.112 637.451 335.121 631.03L335.311 596.429C335.363 590.251 334.89 583.188 335.565 577.083C335.802 574.932 337.754 573.65 339.494 572.584Z"/><path fill="#FFFEFE" d="M341.731 574.224C376.393 573.388 414.202 574.33 449.138 574.432L630.394 574.449L739.688 574.191L772.169 574.281C783.129 574.342 800.334 571.882 800.711 587.182C801.161 605.469 800.296 624.426 800.624 642.817C800.707 647.475 798.362 650.904 794.943 653.743C791.805 655.321 788.261 655.435 784.789 655.448C752.404 655.572 719.955 655.404 687.574 655.392L501.783 655.425L396.345 655.429C379.936 655.427 353.544 656.176 338.151 654.755C336.409 651.396 336.81 638.678 336.813 634.506C336.826 616.256 336.607 597.972 336.86 579.726C336.91 576.119 338.417 574.921 341.731 574.224Z"/><path fill="#83A5DC" d="M487.197 626.369L552.948 626.393C563.635 626.377 579.593 625.875 589.913 626.541C590.925 627.704 590.696 628.385 590.98 630.21C567.434 629.753 543.261 630.496 519.686 630.173C510.34 630.045 497.124 630.677 488.088 629.983C487.201 628.769 487.413 628.096 487.197 626.369Z"/><path fill="#83A5DC" d="M429.607 602.626L487.186 602.723C496.698 602.744 507.92 602.413 517.219 602.825C518.479 603.935 518.135 604.42 518.485 606.574L458.798 606.59C452.456 606.592 435.658 606.981 430.188 606.289C429.368 604.985 429.662 604.433 429.607 602.626Z"/><path fill="#83A5DC" d="M530.482 602.536L583.568 602.543C589.837 602.547 604.527 602.177 610.265 602.832C611.315 604.281 610.934 604.363 610.97 606.584L557.746 606.659C551.704 606.667 536.543 607.064 531.096 606.4C530.236 604.958 530.542 604.471 530.482 602.536Z"/><path fill="#83A5DC" d="M430.11 626.24L458.857 626.215C463.573 626.197 470.947 625.903 475.365 626.448C476.393 627.801 476.189 628.233 476.457 630.087C471.223 630.18 432.118 630.603 430.073 629.71C429.545 628.342 429.829 627.684 430.11 626.24Z"/><path fill="#83A5DC" d="M621.233 602.755C634.978 603.118 653.678 602.05 666.394 602.965C667.333 604.208 667.083 604.687 667.305 606.49C652.748 606.355 636.375 606.958 622.024 606.34C621.286 605.425 621.403 604.166 621.233 602.755Z"/><path fill="#83A5DC" d="M250.39 564.022C278.291 563.025 301.7 584.871 302.631 612.774C303.562 640.678 281.661 664.036 253.756 664.901C225.943 665.763 202.68 643.951 201.752 616.14C200.824 588.329 222.582 565.015 250.39 564.022Z"/><path fill="#D9EAFA" d="M248.342 567.473C274.268 565.309 297.044 584.562 299.226 610.486C301.407 636.411 282.169 659.199 256.246 661.398C230.299 663.598 207.485 644.338 205.302 618.39C203.118 592.441 222.393 569.64 248.342 567.473Z"/><path fill="#ACC0E1" d="M247.305 622.682C249.715 622.205 255.943 622.378 258.446 622.669C292.006 626.567 290.153 645.51 258.496 652.749C248.359 654.128 237.71 651.909 229.021 646.41C224.134 643.316 219.484 637.084 224.122 631.677C229.314 625.624 239.752 623.624 247.305 622.682Z"/><path fill="#ACC0E1" d="M250.592 586.667C259.544 585.397 267.831 591.622 269.104 600.574C270.378 609.525 264.156 617.815 255.205 619.092C246.249 620.37 237.953 614.144 236.678 605.187C235.404 596.23 241.634 587.937 250.592 586.667Z"/><path fill="#C07450" d="M246.551 441.482C274.184 438.631 298.891 458.731 301.724 486.365C304.557 514 284.441 538.695 256.805 541.51C229.194 544.322 204.526 524.229 201.696 496.619C198.866 469.01 218.943 444.33 246.551 441.482Z"/><path fill="#FED79C" d="M250.403 444.509C276.415 443.74 298.132 464.192 298.922 490.204C299.713 516.215 279.278 537.948 253.267 538.76C227.226 539.573 205.462 519.11 204.671 493.068C203.88 467.026 224.361 445.279 250.403 444.509Z"/><path fill="#FEB997" d="M243.756 498.68C246.609 498.281 250.451 498.463 253.408 498.361C284.657 497.277 299.397 520.593 261.091 530.168C226.091 536.383 199.547 504.035 243.756 498.68Z"/><path fill="#FEB997" d="M250.509 460.59C259.637 459.331 268.092 465.611 269.524 474.713C270.957 483.815 264.838 492.388 255.765 493.993C249.741 495.059 243.61 492.787 239.735 488.053C235.86 483.319 234.843 476.861 237.078 471.165C239.312 465.47 244.448 461.426 250.509 460.59Z"/><path fill="#FED79C" d="M209.747 812.732C222.537 812.675 235.327 812.708 248.116 812.833C255.878 812.847 275.592 811.783 281.519 813.885C284.861 817.333 283.412 832.615 283.423 837.729C283.48 848.815 283.479 859.901 283.42 870.986C283.4 876.911 284.252 890.393 281.347 896.065C280.527 897.665 277.323 897.498 275.559 897.479C264.827 897.334 208.988 898.727 203.611 896.675C202.132 896.111 200.983 894.756 200.463 893.263C199.189 889.606 199.636 827.814 200.031 819.356C200.107 817.731 200.129 816.128 200.861 814.641C203.325 812.196 206.187 812.749 209.747 812.732Z"/><path fill="#FED79C" d="M335.275 812.552C345.264 812.345 356.063 812.489 366.082 812.547L391.695 812.81C395.746 812.836 409.484 812.266 411.774 814.585C412.225 816.309 412.924 819.663 412.89 821.979C412.533 845.789 413.347 870.011 412.553 893.718C412.499 895.339 410.371 896.558 408.977 897.163C406.163 897.319 403.275 897.263 400.415 897.23C379.023 896.985 357.542 897.613 336.175 897.044C332.627 896.95 331.591 893.588 331.594 890.47C331.618 865.787 331.355 841.018 331.735 816.352C331.76 814.704 334.065 813.319 335.275 812.552Z"/><path fill="#D9EAFA" d="M597.204 812.584C608.085 812.117 623.015 812.982 634.235 812.811C641.214 812.704 667.281 812.21 672.718 813.563C676.359 817.06 673.686 876.363 674.528 884.905C674.945 889.141 674.779 892.714 671.799 895.98C649.119 895.999 626.436 896.053 603.757 896.027C598.886 895.846 594.587 896.618 594.421 890.239C593.858 868.656 594.288 847.074 594.034 825.488C593.995 822.23 593.885 818.828 594.262 815.657C594.431 814.243 596.166 813.259 597.204 812.584Z"/><path fill="#FED79C" d="M729.586 812.567C747.114 812.479 764.617 812.834 782.143 812.784C787.461 812.769 792.703 812.725 798.014 813.073C803.458 816.845 803.467 819.816 803.416 826.101C803.242 847.221 803.765 868.387 803.228 889.492C803.144 892.792 801.523 895.588 798.125 896.156C781.986 895.931 765.804 896.113 749.663 896.194C742.968 896.228 734.99 897.164 728.479 896.035C727.096 895.795 725.562 894.615 724.91 893.336C723.935 891.424 724.102 816.704 724.81 815.577C725.94 813.775 727.683 813.203 729.586 812.567Z"/><path fill="#D9EAFA" d="M530.165 812.736C533.76 812.56 537.547 811.757 540.129 814.097C542.155 818.65 540.964 873.204 541.11 882.712C541.159 885.891 541.88 892.851 539.236 895.167C537.133 897.008 481.801 895.995 474.75 895.985C470.898 896.042 465.929 896.806 463.367 893.49C462.804 890.432 462.761 886.878 462.788 883.767C462.972 862.888 462.808 841.998 463.036 821.123C463.06 818.902 463.473 816.242 464.095 814.13C468.766 812.272 521.169 812.828 530.165 812.736Z"/><path fill="#E59F7E" d="M848.706 411.322C849.388 421.753 848.874 438.462 848.84 449.389L888.451 449.47L888.406 504.943C888.403 509.991 888.058 526.966 888.56 530.833C888.244 542.509 888.513 555.406 888.513 567.154L888.514 635.463L888.518 843.422L888.533 922.111L888.579 945.812C888.592 955.627 889.748 964.963 881.984 972.705C876.222 978.452 870.664 981.537 862.282 981.576C844.535 981.66 826.748 981.616 808.98 981.599L710.307 981.55L407.559 981.609L228.422 981.637L171.724 981.602C162.331 981.596 152.552 981.705 143.195 981.46C137.327 981.093 131.897 978.902 127.706 974.88C118.544 966.089 120.504 953.662 120.497 941.834L120.498 907.724L120.48 797.596L120.462 449.815C124.512 448.697 154.821 449.504 160.932 449.453L161.073 747.981L160.982 847.505L160.949 878.515C160.945 884.897 160.929 890.947 161.345 897.321C162.218 910.663 176.072 925.043 189.507 925.379C203.305 925.724 217.21 925.57 230.987 925.575L309.716 925.525L540.001 925.471L728.486 925.407L786.121 925.425C796.315 925.443 806.652 925.605 816.805 925.243C834.211 924.166 849.122 909.319 848.533 891.572C848.208 881.769 848.491 871.389 848.499 861.689L848.515 778.304L848.574 525.918L848.67 459.417C848.576 444.636 847.971 425.917 848.706 411.322Z"/><path fill="#F79D67" d="M444.737 946.081C448.011 945.253 451.476 946.269 453.785 948.733C456.094 951.197 456.882 954.721 455.843 957.934C454.804 961.147 452.102 963.542 448.788 964.188C443.855 965.149 439.053 962.009 437.956 957.105C436.859 952.2 439.865 947.314 444.737 946.081Z"/><path fill="#FFFEFE" d="M479.426 944.362C484.184 943.921 488.413 947.383 488.92 952.135C489.426 956.886 486.022 961.162 481.278 961.734C478.151 962.11 475.063 960.775 473.197 958.238C471.33 955.701 470.974 952.356 472.264 949.483C473.554 946.609 476.29 944.653 479.426 944.362Z"/><path fill="#FFFEFE" d="M559.706 944.582C563.775 944.868 566.717 945.962 568.401 949.99C569.395 952.424 569.299 955.167 568.138 957.526C566.693 960.53 565 961.218 562.067 962.289C557.644 962.115 554.075 961.277 552.421 956.576C551.639 954.329 551.796 951.863 552.856 949.733C554.48 946.479 556.46 945.562 559.706 944.582Z"/><path fill="#F8E5CD" d="M519.005 944.9C523.594 943.924 528.11 946.834 529.118 951.415C530.126 955.997 527.247 960.533 522.672 961.573C518.053 962.622 513.462 959.71 512.444 955.083C511.427 950.456 514.371 945.886 519.005 944.9Z"/><path fill="#594B5A" d="M229.697 364.881C280.849 365.481 333.362 364.809 384.596 364.823L662.26 364.747L792.026 364.73L838.42 364.589C845.786 364.575 855.423 363.868 862.52 364.785C889.262 368.238 888.826 390.684 888.956 410.411L888.974 442.758C889.008 451.001 889.931 528.213 888.857 530.584L888.56 530.833C888.058 526.966 888.403 509.991 888.406 504.943L888.451 449.47L848.84 449.389C848.874 438.462 849.388 421.753 848.706 411.322C816.924 410.799 783.945 411.328 752.069 411.359L584.714 411.333L161.009 411.448L160.932 449.453C154.821 449.504 124.512 448.697 120.462 449.815L120.363 449.477C120.932 444.765 120.706 437.805 120.709 432.896L120.722 404.803C120.711 398.184 120.388 390.839 122.1 384.453C123.335 379.74 125.81 375.443 129.268 372.011C131.55 369.71 136.04 366.406 139.053 365.832C150.345 363.683 165.494 364.659 177.148 364.744C194.664 364.896 212.181 364.941 229.697 364.881Z"/><path fill="#110E24" d="M499.699 370.294C508.381 368.268 517.051 373.702 519.013 382.398C520.974 391.094 515.476 399.724 506.766 401.621C498.146 403.498 489.626 398.07 487.685 389.465C485.743 380.859 491.108 372.299 499.699 370.294Z"/><path fill="#FFFEFE" d="M501.282 374.291C507.758 373.223 513.878 377.596 514.965 384.07C516.053 390.543 511.698 396.676 505.228 397.783C498.73 398.895 492.565 394.517 491.473 388.016C490.381 381.515 494.777 375.363 501.282 374.291Z"/><path fill="#FED79C" d="M905.999 428.796C912.331 423.433 919.771 421.225 927.974 421.845C936.891 422.607 945.131 426.911 950.851 433.795C956.601 440.529 959.429 449.278 958.708 458.105C957.921 466.959 952.201 475.369 946.76 482.21C937.13 496.836 926.055 510.971 916.048 525.374C908.417 536.357 899.993 546.639 892.92 558.047C892.789 574.467 892.749 590.888 892.801 607.309C892.799 613.546 893.144 626.286 892.581 632.152C891.928 611.244 892.479 587.297 892.491 566.165L892.486 446.625C895.493 443.675 901.216 433.695 905.999 428.796Z"/><path fill="#FEB997" d="M905.999 428.796C912.331 423.433 919.771 421.225 927.974 421.845C936.891 422.607 945.131 426.911 950.851 433.795C956.601 440.529 959.429 449.278 958.708 458.105C957.921 466.959 952.201 475.369 946.76 482.21C945.636 480.094 945.489 478.575 945.501 476.269C945.594 458.075 933.992 441.261 918.002 433.162C914.68 431.48 910.292 430.576 906.65 429.069L905.999 428.796Z"/><path fill="#FED79C" d="M811.606 360.14C818.088 330.553 842.119 309.992 873.156 316.938C886.378 319.903 897.861 328.041 905.04 339.534C913.143 352.176 915.809 367.55 912.435 382.181C909.563 394.403 903.748 404.804 896.279 414.701C894.13 417.549 892.946 419.071 892.531 422.731C892.032 404.474 896.443 383.044 883.069 369.663C879.21 365.791 874.42 362.977 869.159 361.491C861.87 359.45 849.436 360.032 841.513 360.05L811.606 360.14Z"/><path fill="#110E24" d="M116.442 390.402C116.169 383.191 120.349 374.24 125.386 369.102C136.226 358.046 151.462 360.038 165.635 360.193C169.841 362.778 307.085 359.299 322.969 360.733C327.703 361.16 343.585 359.742 348.278 360.927C302.773 361.42 256.529 361.024 210.986 361.018L170.906 361.009C165.024 361.006 159.142 360.973 153.262 360.924C151.722 360.911 150.928 361.943 150.188 363.111C151.847 364.365 285.985 364.051 301.5 363.985L336.153 363.97C339.945 364.003 346.541 363.798 350.09 364.107C321.839 364.797 293.004 363.969 264.714 364.273C258.963 364.334 232.863 363.845 229.697 364.881C212.181 364.941 194.664 364.896 177.148 364.744C165.494 364.659 150.345 363.683 139.053 365.832C136.04 366.406 131.55 369.71 129.268 372.011C125.81 375.443 123.335 379.74 122.1 384.453C120.388 390.839 120.711 398.184 120.722 404.803L120.709 432.896C120.706 437.805 120.932 444.765 120.363 449.477C118.897 449.413 118.08 449.542 116.897 448.695C116.453 445.914 116.683 437.577 116.691 434.249L116.742 407.074C116.743 402.105 116.924 395.19 116.442 390.402Z"/><path fill="#110E24" d="M151.872 241.959C165.58 240.652 177.762 250.682 179.112 264.386C180.462 278.091 170.47 290.304 156.77 291.697C143.009 293.096 130.729 283.05 129.374 269.285C128.018 255.52 138.102 243.271 151.872 241.959Z"/><path fill="#FEF9F4" d="M150.261 245.155C158.103 243.716 166.113 246.602 171.235 252.711C176.357 258.821 177.8 267.212 175.014 274.682C172.228 282.153 165.643 287.549 157.771 288.813C145.787 290.736 134.488 282.658 132.43 270.697C130.373 258.736 138.324 247.347 150.261 245.155Z"/><path fill="#110E24" d="M849.871 209.174C863.476 207.706 875.671 217.609 877.025 231.227C878.379 244.844 868.374 256.955 854.745 258.195C841.278 259.421 829.34 249.559 828.002 236.102C826.664 222.645 836.425 210.625 849.871 209.174Z"/><path fill="#FEB997" d="M847.549 212.915C854.98 211.128 862.798 213.476 868.013 219.063C873.229 224.649 875.035 232.61 872.742 239.9C870.449 247.191 864.412 252.684 856.937 254.279C845.586 256.702 834.395 249.551 831.826 238.231C829.257 226.912 836.264 215.63 847.549 212.915Z"/><path fill="#070410" d="M303.533 259.103C321.979 257.989 327.679 274.727 323.155 289.914C321.198 296.485 316.602 299.973 310.734 302.856C315.653 304.731 320.548 306.688 325.601 308.159C324.822 310.006 324.591 311.44 323.15 312.299C318.706 310.238 314.07 308.014 309.515 306.224C305.057 304.471 297.46 303.393 293.472 300.673C289.85 297.765 287.29 292.711 286.613 288.268C284.606 275.088 289.084 261.826 303.533 259.103Z"/><path fill="#FEF9F4" d="M303.723 263.127C323.562 261.826 325.335 294.426 307.097 300.047C286.474 301.288 285.904 267.637 303.723 263.127Z"/><path fill="#110E24" d="M498.128 259.085C510.351 258.095 519.274 265.876 520.27 277.901C521.388 291.407 516.856 301.165 503.089 304.379C476.025 306.327 471.519 264.71 498.128 259.085Z"/><path fill="#FEF9F4" d="M496.578 263.126C513.573 260.81 518.366 277.611 513.69 290.919C511.985 295.773 508.765 298.257 504.197 300.209C482.575 303.758 479.708 270.624 496.578 263.126Z"/><path fill="#110E24" d="M455.82 179.208C466.588 178.539 480.536 180.918 478.495 195.873C477.789 201.048 473.697 204.383 469.578 207.158C478.177 211.743 476.027 222.712 480.873 232.396L474.284 232.418C472.5 228.55 471.42 222.89 470.482 218.603C467.542 208.353 462.112 208.545 452.767 208.567C452.557 216.191 452.793 224.821 452.828 232.521C451.1 232.611 448.474 232.828 447.039 231.994C446.555 229.144 446.815 218.727 446.828 215.185L446.944 180.411C450.087 179.747 452.63 179.524 455.82 179.208Z"/><path fill="#FEF9F4" d="M453.042 184.038C458.575 183.774 464.274 183.468 469.113 186.701C475.012 190.644 473.361 196.865 469.46 201.644C464.225 205.291 459.188 204.53 452.967 204.45L453.042 184.038Z"/><path fill="#110E24" d="M502.553 179.16L509.617 179.371C515.954 196.216 522.586 215.876 528.21 233.034L521.899 233.01C519.815 227.64 517.917 221.596 515.826 216.034L511.046 216L496.607 216.006C494.666 221.514 492.788 227.043 490.972 232.592L484.867 232.576C491.091 214.881 496.987 197.072 502.553 179.16Z"/><path fill="#FEF9F4" d="M505.78 185.905C506.912 187.358 513.644 208.266 514.607 211.121L508.125 211.183L497.865 211.19C500.72 202.832 503.36 194.4 505.78 185.905Z"/><path fill="#110E24" d="M320.251 179.201C321.049 179.194 323.588 179.131 323.888 179.496C331.65 188.922 346.317 214.862 351.579 224.345C351.52 212.468 351.514 200.558 351.261 188.682C351.184 185.104 350.039 180.911 353.659 179.128C355.308 179.226 355.192 179.269 356.528 180.285C357.208 184.425 357.606 228.3 356.787 232.19L355.625 232.592C354.341 232.628 352.882 232.785 351.625 232.512C348.303 231.792 326.498 193.058 323.375 187.664C323.576 197.191 323.678 206.719 323.683 216.248C323.702 220.41 323.966 228.311 323.309 232.021C322.065 232.63 319.523 232.431 317.995 232.422C318.002 227.097 317.458 181.24 318.492 179.46L320.251 179.201Z"/><defs><linearGradient id="gradient_1" gradientUnits="userSpaceOnUse" x1="664.16083" y1="289.33936" x2="697.67194" y2="275.20718"><stop offset="0" stop-color="black"/><stop offset="1" stop-color="#110C1F"/></linearGradient></defs><path fill="url(#gradient_1)" d="M677.554 259.215C683.394 258.64 690.678 260.107 694.252 265.179C696.028 267.703 696.63 270.87 695.902 273.869C694.814 278.445 691.996 280.569 688.359 282.886C694.327 286.463 694.556 289.806 695.414 296.28C695.755 298.846 697.835 301.395 696.276 303.79C694.664 304.231 694.784 304.235 693.193 303.724C690.284 301.26 690.206 296.115 689.61 292.105C686.901 283.553 681.361 284.401 673.59 284.43C673.564 288.1 674.268 301.16 672.858 303.232C671.255 303.945 671.334 303.837 669.571 303.544C667.869 301.796 668.755 265.831 668.812 259.924C671.405 259.577 674.871 259.412 677.554 259.215Z"/><path fill="#FEF9F4" d="M673.691 263.679C678.322 263.316 682.332 262.751 686.677 264.918C692.873 268.008 691.898 273.289 688.298 278.067C683.535 281.45 679.451 280.703 673.669 280.64L673.691 263.679Z"/><path fill="#110E24" d="M684.326 179.713C688.621 179.732 711.749 178.99 713.848 180.395C713.966 182.134 714.084 182.577 713.605 184.297C711.161 184.898 694.331 184.683 690.464 184.682L690.416 202.474C694.711 202.511 708.492 202.17 711.756 202.721C712.505 203.762 712.204 203.918 712.152 205.54C709.428 210.165 699.149 205.597 691.399 207.643C690.118 208.881 690.528 208.469 690.438 210.875L690.399 227.524C697.359 227.528 704.445 227.432 711.403 227.485C713.089 227.498 713.471 227.578 714.296 228.545C714.412 230.298 714.695 230.792 714.036 232.251C709.23 233.038 690.057 232.552 684.073 232.508C683.848 215.365 684.101 196.887 684.326 179.713Z"/><path fill="#110E24" d="M625.365 259.133C627.585 259.022 628.107 258.944 630.251 259.336C632.174 262.91 645.14 299.044 645.829 303.077C644.994 303.523 642.234 303.939 641.742 303.368C639.122 300.326 637.28 293.414 635.974 289.601L629.981 289.696L619.497 289.7C617.695 294.979 617.069 304.059 610.282 303.64L609.945 303.116C611.175 297.978 613.774 291.448 615.609 286.377C618.918 277.316 622.171 268.235 625.365 259.133Z"/><path fill="#FEF9F4" d="M627.741 264.875C628.723 265.939 634.075 282.928 635.009 285.749L628.639 285.778L620.641 285.685C623.188 278.811 625.556 271.872 627.741 264.875Z"/><path fill="#110E24" d="M409.39 179.587C415.161 179.627 431.095 179.116 435.991 179.962C436.812 181.488 436.514 181.39 436.499 183.385C434.429 185.295 419.097 184.555 415.568 184.527L415.54 202.44C420.612 202.553 430.283 202.262 434.435 202.95L435.001 203.78C434.872 205.822 435.234 204.981 434.08 206.468C430.721 208.188 420.119 207.382 415.475 207.357L415.478 213.464L415.481 227.413C419.724 227.399 433.741 227.036 437.139 227.7C438.086 228.718 437.713 229.757 437.744 231.619C435.965 233.341 413.631 232.56 409.304 232.538C409.614 215.134 409.376 197.045 409.39 179.587Z"/><path fill="#110E24" d="M655.996 227.01C660.039 213.964 664.259 200.974 668.656 188.044C669.523 185.572 671.117 180.603 673.434 179.487C675.599 179.482 674.584 179.23 676.539 180.452C677.372 182.282 676.948 182.053 676.187 184.62C670.536 200.068 664.91 218.087 658.881 233.027L652.489 233.124C645.736 215.801 640.051 197.725 634.352 180.031L640.468 179.874C645.461 195.68 650.849 211.254 655.996 227.01Z"/><path fill="#070410" d="M528.492 259.473C529.772 259.416 531.337 259.254 532.595 259.469C534.975 259.876 554.03 291.635 556.52 296.038C556.476 287.128 556.125 270.814 556.431 261.342C556.463 260.369 558.063 259.609 558.918 259.195C559.309 259.262 560.304 259.266 560.361 259.754C561.029 265.514 562.369 301.989 559.354 304.378C558.463 304.204 557.645 304.011 556.76 303.808C551.974 299.429 536.333 272.653 532.55 265.788C532.63 270.361 533.588 301.884 532.236 303.444C530.6 303.669 530.429 303.821 528.846 303.279C527.896 300.48 528.483 265.068 528.492 259.473Z"/><path fill="#070410" d="M571.215 259.4L576.966 259.455C583.501 271.373 591.978 283.274 599.147 296.135C599 291.66 598.274 261.402 599.279 259.582C601.335 259.416 601.346 259.339 603.298 259.824C603.662 264.523 603.432 271.73 603.41 276.659C603.397 285.714 603.335 294.768 603.223 303.821C601.977 303.873 600.765 303.975 599.54 303.68C596.343 302.91 578.647 271.275 575.607 266.176C575.822 277.926 575.43 289.819 575.738 301.583C575.768 302.743 575.381 303.079 574.734 303.86C572.6 303.919 572.73 304.299 571.595 303.235C570.685 290.299 571.633 273.207 571.215 259.4Z"/><path fill="#110E24" d="M556.933 179.195C562.302 178.958 566.148 179.687 571.39 180.775L570.002 186.033C564.715 184.643 559.465 183.456 553.992 184.678C548.877 185.807 544.472 189.035 541.855 193.573C536.246 203.084 537.441 219.737 548.018 225.532C554.386 229.022 560.117 228.348 566.768 226.681C568.654 225.85 567.885 225.775 569.51 226.042C570.527 227.5 570.755 228.794 571.245 230.502C550.353 238.335 531.153 229.093 532.256 204.856C532.954 189.541 542.044 180.779 556.933 179.195Z"/><path fill="#110E24" d="M931.697 340.313C938.67 339.19 945.256 343.866 946.494 350.819C947.733 357.772 943.168 364.435 936.236 365.789C931.648 366.685 926.934 365.038 923.903 361.479C920.872 357.92 919.996 353.004 921.611 348.617C923.227 344.231 927.082 341.056 931.697 340.313Z"/><path fill="#FFFEFE" d="M931.861 343.734C937.018 342.684 942.053 346.005 943.118 351.159C944.183 356.313 940.877 361.358 935.726 362.438C930.554 363.523 925.484 360.2 924.414 355.024C923.345 349.849 926.682 344.788 931.861 343.734Z"/><path fill="#110E24" d="M363.958 179.529C373.593 179.685 383.25 179.585 392.886 179.636C395.414 179.649 401.354 179.118 402.942 180.782C403.035 182.927 403.269 181.959 402.275 183.807C399.091 185.801 390.791 184.807 386.387 184.774L386.364 215.75L386.371 232.671L380.134 232.69L380.077 184.697C375.738 184.605 368.393 185.008 364.385 184.369C363.724 183.115 363.94 181.051 363.958 179.529Z"/><path fill="#110E24" d="M575.291 179.619C580.579 179.859 610.565 179.297 612.531 180.753C612.518 182.883 612.803 181.945 611.749 183.702C608.552 185.59 600.828 184.716 596.539 184.697L596.504 218.25L596.495 232.5L590.243 232.495L590.387 184.839C586.872 184.896 578.093 185.536 574.906 184.153C574.302 183.891 574.267 183.166 574.013 182.379C574.428 180.849 574.337 180.846 575.291 179.619Z"/><defs><linearGradient id="gradient_2" gradientUnits="userSpaceOnUse" x1="330.92163" y1="263.38147" x2="363.97418" y2="292.22754"><stop offset="0" stop-color="black"/><stop offset="1" stop-color="#070319"/></linearGradient></defs><path fill="url(#gradient_2)" d="M332.494 259.613C334.452 259.522 334.906 259.473 336.808 259.797C339.061 262.866 336.059 287.075 338.103 293.191C340.25 299.614 347.254 302.29 352.866 299.425C363.811 293.839 356.643 269.835 359.464 259.892C359.612 259.369 360.497 259.293 361.001 259.14C364.198 259.923 363.837 259.892 363.961 262.875C363.888 270.547 365.825 293.716 359.232 299.687C348.396 309.499 332.65 304.418 332.482 288.253C332.392 279.542 332.407 269.026 332.494 259.613Z"/><path fill="#070410" d="M705.824 259.443C710.176 259.389 725.859 258.819 728.871 260.089C729.12 261.892 729.304 261.087 728.341 262.594C725.046 264.317 715.12 263.561 710.588 263.555L710.527 278.212C713.51 278.287 716.798 278.05 719.64 278.164C723.704 278.328 725.368 277.174 727.997 279.756C728.45 281.426 728.598 280.7 727.939 282.046C724.459 283.789 716.59 281.427 710.979 282.832C710.217 284.393 710.483 284.989 710.504 286.875L710.503 299.481C713.449 299.509 728.979 298.851 730.38 300.008C730.399 302.007 730.809 302.683 729.822 303.794C725.265 304.461 710.733 303.956 705.5 303.911C705.494 289.087 705.602 274.264 705.824 259.443Z"/><defs><linearGradient id="gradient_3" gradientUnits="userSpaceOnUse" x1="402.12387" y1="287.02271" x2="369.71896" y2="275.93668"><stop offset="0" stop-color="#040008"/><stop offset="1" stop-color="#0F0A21"/></linearGradient></defs><path fill="url(#gradient_3)" d="M374.367 259.496C377.682 259.493 395.478 258.81 396.953 260.427C397.121 262.081 397.312 261.875 396.74 263.26C393.221 264.239 383.62 263.878 379.467 263.841L379.442 277.887C384.142 277.956 390.925 276.842 394.761 278.581C395.921 280.071 395.566 279.226 395.657 281.279L395.027 281.945C390.952 282.571 383.849 282.27 379.411 282.25L379.374 289.125L379.349 299.392C384.258 299.464 393.585 298.476 397.556 300.19C398.687 301.627 398.448 300.837 398.343 302.626C395.822 304.278 378.424 303.548 374.237 303.529L374.367 259.496Z"/><path fill="#070410" d="M413.589 259.123C417.102 258.764 424.013 258.198 425.97 261.632C426.107 263.159 426.264 263.222 425.622 264.564C422.827 264.88 419.077 262.706 415.571 262.996C412.21 262.572 406.976 268.193 408.407 271.375C413.305 282.266 436.513 280.797 426.414 299.065C424.563 302.413 419.726 303.642 415.98 304.389C412.738 304.462 405.845 303.911 403.784 301.165C403.741 299.347 403.671 299.446 404.398 297.801C407.55 297.269 413.369 302.45 418.551 299.416C427.656 294.64 424.102 286.613 415.933 283.584C402.532 278.615 397.568 265.483 413.589 259.123Z"/><path fill="#110E24" d="M431.005 259.49C435.265 259.473 459.806 259.067 462.225 259.973C462.848 261.853 462.756 260.895 462.329 262.966C460.886 264.064 452.073 263.644 449.471 263.659L449.419 291.25C449.448 294.976 449.597 299.47 449.309 303.11L448.242 303.742C446.461 303.892 446.118 304.031 444.456 303.287C443.678 300.1 444.035 269.342 444.048 263.814C439.461 263.679 435.751 264.735 431.837 263.381C430.614 261.787 431.034 262.015 431.005 259.49Z"/><path fill="#110E24" d="M620.026 180.009L626.408 179.961L626.195 232.932C624.39 233.062 621.671 233.014 619.789 233.043L620.026 180.009Z"/><path fill="#110E24" d="M299.024 179.554L305.164 179.562L305.047 232.505L298.949 232.503L299.024 179.554Z"/><path fill="#F8E5CD" d="M892.621 725.192L893.224 727.91C893.78 728.241 894.037 728.559 894.419 728.248C898.845 724.641 906.69 716.869 910.605 712.969C934.109 689.849 955.28 664.472 973.81 637.202C985.134 620.309 995.835 603.005 1005.89 585.328C1007.78 582.062 1018.14 562.408 1019.52 561.496C1020.36 565.468 986.342 620.367 981.722 627.482C960.916 659.65 936.554 689.372 909.096 716.088C904.988 720.085 896.907 728.342 892.654 731.63C892.6 729.526 892.629 727.307 892.621 725.192Z"/><path fill="#070410" d="M652.592 259.572C654.412 259.499 655.61 259.263 657.249 260.027C657.817 263.414 657.582 271.192 657.577 274.95L657.526 303.61C655.461 303.673 654.721 303.831 652.806 303.209C652.327 299.873 652.541 291.611 652.549 287.858L652.592 259.572Z"/><path fill="#070410" d="M467.301 259.541C469.339 259.479 469.745 259.466 471.729 259.817C472.82 262.726 472.315 298.032 472.222 303.876C470.509 304.022 469.167 304.351 467.653 303.642C467.206 299.072 467.385 292.416 467.372 287.71L467.301 259.541Z"/><path fill="#F8E5CD" d="M186.734 179.75C188.965 180.936 191.672 185.952 193.427 188.393C197.932 194.618 202.685 200.66 207.676 206.503C221.95 223.65 237.699 239.513 254.741 253.911C258.285 256.933 279.877 274.333 280.661 275.826C271.94 272.772 234.213 237.57 225.612 228.455C214.94 217.145 195.653 195.348 186.714 181.217C186.721 180.728 186.727 180.239 186.734 179.75Z"/></svg>