<?xml version="1.0" encoding="utf-8" ?><svg xmlns="http://www.w3.org/2000/svg" xmlns:xlink="http://www.w3.org/1999/xlink" width="1024" height="1024" viewBox="0 0 1024 1024"><path fill="#FFFEFE" d="M0 0L1024 0L1024 1024L0 1024L0 0Z"/><defs><linearGradient id="gradient_0" gradientUnits="userSpaceOnUse" x1="510.72159" y1="916.71594" x2="555.0929" y2="241.67627"><stop offset="0" stop-color="#342846"/><stop offset="1" stop-color="#5F526B"/></linearGradient></defs><path fill="url(#gradient_0)" d="M343.826 306.36C349.868 303.323 368.46 287.213 374.273 282.346L440.758 227.28C450.269 219.358 471.474 200.791 480.671 195.337C488.219 190.954 496.624 188.254 505.312 187.421C528.888 185.195 542.561 195.739 559.102 209.802C566.194 215.901 573.358 221.915 580.593 227.844C594.329 220.687 608.398 215.32 622.728 209.997C684.389 187.091 748.213 186.396 810.769 207.159C867.797 226.086 929.401 270.778 957.39 324.895C965.639 340.65 971.954 357.344 976.197 374.615C986.111 414.903 981.862 439.601 969.479 479C964.431 495.063 956.573 508.508 951.681 524.07C936.449 572.519 940.976 621.772 964.508 666.864C968.597 674.841 973.741 682.391 977.647 690.45C988.322 712.473 991.178 738.453 984.033 761.944C976.809 785.693 951.087 811.982 929.79 824.671C929.736 826.231 929.937 828.267 929.2 829.368C929.214 837.731 929.227 846.157 929.28 854.513C929.332 862.615 929.54 866.109 924.292 872.492L984.263 872.688C993.572 872.704 1003.02 872.502 1012.31 872.759C1016.25 872.868 1019.14 874.906 1019.19 878.997C1019.11 883.591 1015.56 884.993 1011.54 885.059C1003.88 885.185 996.235 885.125 988.577 885.107L946.752 885.09L821.897 885.362L230.372 885.294L74.285 885.092L31.2457 885.035C25.1647 885.032 18.1939 885.768 12.2585 884.86C10.8858 884.65 9.73123 883.927 8.89332 882.81C7.92085 881.515 7.35779 879.053 7.76246 877.471C8.20887 875.726 9.14057 874.357 10.7632 873.505C14.0684 871.769 67.9876 872.781 75.1096 872.844C81.5554 872.901 89.0391 873.716 95.3418 872.53C96.8249 872.251 98.2921 871.164 99.5501 870.362C97.8142 867.834 95.9174 865.284 95.4523 862.178C91.7457 860.405 87.4887 856.108 84.7467 853.035C58.0344 823.105 34.146 785.316 36.4308 743.631C38.3343 708.902 57.2589 678.025 78.2301 651.466C82.0426 646.637 91.3193 635.117 95.5232 631.281L95.4748 539.405C95.4597 525.341 94.5204 497.463 96.9622 485.176C100.403 468.641 110.245 454.14 124.339 444.836C123.942 437.797 124.149 428.817 124.134 421.645L124.061 381.115L124.053 337.35C124.062 330.932 123.432 311.521 125.287 306.386C128.592 304.954 161.043 305.832 167.284 305.844L298.515 305.928L327.58 305.863C331.624 305.855 340.111 305.669 343.826 306.36Z"/><path fill="#FFFEFE" d="M449.14 315.091L882.009 315.523L882.124 537.011C866.901 547.595 848.333 563.194 833.368 574.848L751.668 637.822C740.512 646.449 722.645 661.045 711.212 668.74C704.17 668.186 681.19 668.097 674.409 668.799C663.029 660.206 652.33 649.874 641.087 641.014C632.404 634.171 624.243 623.181 612.058 630.713C602.886 636.382 594.041 642.608 585.111 648.663C567.479 660.733 549.749 672.659 531.924 684.441C509.829 699.062 513.555 697.219 491.986 683.386C489.754 681.994 487.275 680.25 485.106 678.733C473.543 670.647 460.827 663.425 449.536 655.027C447.607 654.075 443.585 651.221 441.875 649.935C442.271 646.348 442.07 638.613 442.07 634.819C442.094 625.856 442.059 616.894 441.966 607.931L442.007 607.628L449.547 607.462C449.732 597.13 449.551 586.16 449.55 575.779L441.868 575.61C442.095 562.809 441.914 549.328 441.983 536.461L442.026 490.944C442.122 473.322 442.439 455.112 442.077 437.538C441.74 427.819 441.522 406.37 442.171 397.134C442.532 394.794 442.414 394.331 442.159 391.924C441.657 386.732 441.928 379.563 442.006 374.244L442.007 369.852C441.973 363.373 441.768 355.732 442.174 349.365L449.485 349.166C449.399 341.916 450.094 321.054 449.14 315.091Z"/><path fill="#ACC0E1" d="M491.986 683.386C495.069 675.985 497.55 669.806 505.738 666.416C510.463 664.446 515.798 664.549 520.443 666.701C525.296 668.916 529.055 672.99 530.873 678.006C531.535 679.888 531.731 682.427 531.924 684.441C509.829 699.062 513.555 697.219 491.986 683.386Z"/><path fill="#FFFEFE" d="M511.067 678.747C514.636 677.932 518.206 680.101 519.126 683.644C520.047 687.187 517.985 690.819 514.472 691.845C512.104 692.536 509.548 691.885 507.8 690.145C506.051 688.405 505.388 685.852 506.068 683.481C506.747 681.11 508.663 679.297 511.067 678.747Z"/><path fill="#E6C6BB" d="M442.077 437.538L449.516 437.617L449.516 490.999L442.026 490.944C442.122 473.322 442.439 455.112 442.077 437.538Z"/><path fill="#AFA0A7" d="M442.026 490.944L449.516 490.999L449.595 536.446L441.983 536.461L442.026 490.944Z"/><path fill="#AFA0A7" d="M442.007 607.628L449.547 607.462C449.515 623.273 449.376 639.229 449.536 655.027C447.607 654.075 443.585 651.221 441.875 649.935C442.271 646.348 442.07 638.613 442.07 634.819C442.094 625.856 442.059 616.894 441.966 607.931L442.007 607.628Z"/><path fill="#A29FBB" d="M442.171 397.134L449.507 397.027L449.516 437.617L442.077 437.538C441.74 427.819 441.522 406.37 442.171 397.134Z"/><path fill="#E6C6BB" d="M449.595 536.446L449.55 575.779L441.868 575.61C442.095 562.809 441.914 549.328 441.983 536.461L449.595 536.446Z"/><path fill="#A29FBB" d="M449.539 369.808L449.544 374.359L449.523 392.007L449.507 397.027L442.171 397.134C442.532 394.794 442.414 394.331 442.159 391.924C441.657 386.732 441.928 379.563 442.006 374.244L442.007 369.852L449.539 369.808Z"/><path fill="#E6C6BB" d="M442.159 391.924L449.523 392.007L449.507 397.027L442.171 397.134C442.532 394.794 442.414 394.331 442.159 391.924Z"/><path fill="#E6C6BB" d="M449.539 369.808L449.544 374.359C447.034 374.399 444.517 374.307 442.006 374.244L442.007 369.852L449.539 369.808Z"/><path fill="#A29FBB" d="M442.174 349.365L449.485 349.166L449.539 369.808L442.007 369.852C441.973 363.373 441.768 355.732 442.174 349.365Z"/><path fill="#CBDAF9" d="M570.11 466.02C596.822 466.589 624.669 466.061 651.437 466.046L831.019 466.123L830.947 474.18C798.029 474.843 762.53 474.209 729.471 474.177L570.117 474.441L570.11 466.02Z"/><path fill="#CBDAF9" d="M780.133 566.756C797.217 566.596 814.303 566.553 831.388 566.625L831.479 574.48C804.857 575.146 777.479 574.863 750.784 574.919L618.875 575.162C602.867 575.193 585.977 575.413 570.033 574.948C569.853 572.43 569.904 569.66 569.889 567.118C600.02 567.712 631.923 567.394 662.122 567.252L780.133 566.756Z"/><path fill="#CBDAF9" d="M569.807 363.849L743.681 364.021C771.663 364.034 802.865 364.653 830.6 363.791C830.629 366.667 830.699 369.059 830.359 371.939L569.752 371.989L569.807 363.849Z"/><path fill="#CBDAF9" d="M570.033 590.546L728.492 590.467L728.371 598.35L570.111 598.366L570.033 590.546Z"/><path fill="#CBDAF9" d="M569.863 491.012C622.046 492.02 676.081 491.499 728.388 491.483C728.406 494.059 728.207 496.552 728.042 499.121L569.873 499.27L569.863 491.012Z"/><path fill="#CBDAF9" d="M569.98 388.493C622.414 389.036 675.689 388.567 728.169 388.492L728.051 396.316C675.362 395.98 622.672 396.013 569.984 396.413L569.98 388.493Z"/><path fill="#FED79C" d="M508.672 565.452C518.902 563.598 528.695 570.398 530.532 580.63C532.369 590.863 525.552 600.645 515.316 602.464C505.105 604.28 495.352 597.483 493.519 587.275C491.687 577.067 498.467 567.302 508.672 565.452Z"/><path fill="#FFFEFE" d="M517.349 578.278C527.183 580.073 514.098 590.713 511.235 593.518C509.166 591.558 508.174 590.392 506.407 588.241C504.847 586.403 503.266 584.582 501.664 582.781C502.844 581.149 504.144 579.772 505.488 578.275C507.222 579.832 509.585 582.52 511.237 584.287C513.656 582.615 515.367 580.47 517.349 578.278Z"/><path fill="#ACC0E1" d="M507.287 464.46C513.834 462.849 520.741 464.888 525.364 469.795C529.987 474.703 531.609 481.72 529.61 488.159C527.61 494.598 522.298 499.461 515.709 500.887C505.718 503.049 495.843 496.785 493.54 486.825C491.237 476.866 497.361 466.903 507.287 464.46Z"/><path fill="#FFFEFE" d="M517.002 475.933C518.889 475.742 518.838 475.773 520.583 476.146C524.304 479.71 514.005 489.249 511.152 491.359L507.58 487.894C505.019 485.244 501.783 482.569 503.837 478.613C507.491 476.536 509.484 479.584 511.812 482.067C513.507 480.196 515.356 477.893 517.002 475.933Z"/><path fill="#E59F7E" d="M510.131 362.817C520.309 361.958 529.287 369.442 530.275 379.609C531.263 389.776 523.894 398.849 513.741 399.966C507.056 400.702 500.493 397.785 496.56 392.33C492.627 386.876 491.933 379.727 494.742 373.617C497.551 367.508 503.43 363.382 510.131 362.817Z"/><path fill="#FFFEFE" d="M519.438 373.802C521.32 374.192 522.129 374.571 522.797 376.33C521.771 380.161 513.938 387.635 510.806 390.452L506.68 386.464C504.143 384.081 501.507 382.361 503.092 378.576C506.43 376.507 509.062 380.021 511.048 382.163C513.859 379.391 516.656 376.604 519.438 373.802Z"/><path fill="#CBDAF9" d="M738.558 590.344C741.831 590.159 746.938 590.4 750.341 590.455L750.165 598.107L738.501 598.26L738.558 590.344Z"/><path fill="#CBDAF9" d="M738.22 491.458L749.823 491.509L749.691 499.018L738.143 499.007C738.232 496.536 738.205 493.941 738.22 491.458Z"/><path fill="#CBDAF9" d="M739.007 388.526L749.691 388.558L749.596 396.483L738.968 396.42L739.007 388.526Z"/><path fill="#FFFEFE" d="M352.066 306.826C357.381 303.85 382.87 304.728 390.448 304.751L441.887 304.873L441.984 305.252L442.022 310.565C444.111 310.624 446.34 310.738 448.416 310.677C448.452 312.321 448.247 313.807 449.14 315.091C450.094 321.054 449.399 341.916 449.485 349.166L442.174 349.365C441.768 355.732 441.973 363.373 442.007 369.852L442.006 374.244C441.928 379.563 441.657 386.732 442.159 391.924C442.414 394.331 442.532 394.794 442.171 397.134C441.522 406.37 441.74 427.819 442.077 437.538C442.439 455.112 442.122 473.322 442.026 490.944L441.983 536.461C441.914 549.328 442.095 562.809 441.868 575.61L272.913 575.521L218.915 575.6C211.392 575.631 199.566 575.337 192.44 575.807C189.308 574.106 175.859 563.464 172.607 560.973C158.337 550.154 144.161 539.21 130.081 528.144C126.54 525.724 123.055 522.929 119.655 520.291C120.373 518.001 120.825 509.978 120.527 507.689C119.57 500.343 122.383 457.524 119.888 453.554C123.421 450.203 125.927 448.572 130.049 446.062L130.01 442.088C128.352 442.879 125.873 443.964 124.339 444.836C123.942 437.797 124.149 428.817 124.134 421.645L124.061 381.115L124.053 337.35C124.062 330.932 123.432 311.521 125.287 306.386C128.592 304.954 161.043 305.832 167.284 305.844L298.515 305.928L327.58 305.863C331.624 305.855 340.111 305.669 343.826 306.36C346.21 307.39 349.524 307.154 352.066 306.826Z"/><path fill="#ACC0E1" d="M442.077 437.538L332.045 437.318C320.404 437.3 295.041 438.083 282.459 436.785C281.344 436.669 279.535 433.79 279.318 432.307C278.389 422.829 278.146 409.66 278.748 400.294C279.394 390.254 276.539 358.133 280.711 351.029C283.488 348.687 293.055 349.281 296.794 349.242C345.126 348.739 393.891 350.34 442.174 349.365C441.768 355.732 441.973 363.373 442.007 369.852L442.006 374.244C441.928 379.563 441.657 386.732 442.159 391.924C442.414 394.331 442.532 394.794 442.171 397.134C441.522 406.37 441.74 427.819 442.077 437.538Z"/><path fill="#FFFEFE" d="M442.171 397.134C439.407 396.85 438.914 396.986 437.118 395.074C436.756 393.334 436.629 394.134 437.513 392.592C439.042 391.505 440.234 391.825 442.159 391.924C442.414 394.331 442.532 394.794 442.171 397.134Z"/><path fill="#FFFEFE" d="M307.193 369.739L368.861 369.796C373.921 369.837 392.253 368.633 395.573 371.362C396.161 373.143 396.101 372.227 395.493 374.21C394.054 375.398 394.535 375.029 392.363 375.259C379.157 374.973 306.907 376.482 302.304 374.68C301.575 374.395 301.586 374.037 301.26 373.388C301.867 369.48 303.986 369.896 307.193 369.739Z"/><path fill="#FFFEFE" d="M301.565 392.09C308.9 391.819 374.377 391.158 378.05 392.393C378.964 393.922 378.624 395.151 378.48 396.977C364.057 397.868 346.151 396.769 331.39 397.239C327.162 397.373 305.579 397.365 302.168 396.697C301.185 395.324 301.506 393.871 301.565 392.09Z"/><path fill="#FFFEFE" d="M301.958 413.994C309.414 413.892 364.445 413.266 366.55 414.664C367.168 416.225 366.717 417.524 366.422 419.229C360.178 420.087 308.338 419.986 302.506 418.924C301.748 417.596 301.956 415.614 301.958 413.994Z"/><path fill="#FFFEFE" d="M387.44 392.001C392.014 391.917 423.431 391.448 425.385 392.465C426.203 394.17 425.944 395.181 425.819 397.075C421.88 397.63 391.47 397.857 388.146 397.019C387.175 395.598 387.43 393.795 387.44 392.001Z"/><path fill="#FFFEFE" d="M405.434 370.027C412.324 369.848 426.017 369.583 433.397 370.159C433.748 370.439 434.098 370.718 434.448 370.998C435.13 372.686 434.916 373.192 434.667 374.978C429.803 375.015 407.51 376.193 405.066 374.013C404.625 372.286 404.945 371.731 405.434 370.027Z"/><path fill="#CBDAF9" d="M441.983 536.461C434.21 535.802 423.984 536.072 415.981 536.074L374.034 536.106L246.606 535.924L212.679 535.846C206.356 535.832 200.027 535.887 193.668 535.629C183.829 535.692 180.709 528.824 181.114 519.587C181.413 512.748 179.326 499.93 184.389 494.664C186.783 492.175 191.333 490.719 194.645 490.629C204.206 490.371 213.796 490.791 223.366 490.88L280.505 491.039L386.507 490.976C404.729 490.954 423.912 490.544 442.026 490.944L441.983 536.461Z"/><path fill="#FFFEFE" d="M190.005 511.18C202.078 510.864 317.587 510.063 320.87 511.717C321.889 513.601 321.512 513.453 321.448 515.949C293.521 516.447 264.341 516.11 236.305 516.115L207.675 516.099C202.812 516.092 195.248 516.286 190.639 515.811C189.652 514.089 190.031 513.5 190.005 511.18Z"/><path fill="#FFFEFE" d="M335.567 511.155C358.86 510.085 409.679 511.479 435.745 511.399C435.997 511.622 436.25 511.846 436.502 512.069C437.04 513.663 436.716 514.3 436.322 515.937L435.482 516.45L367.137 516.098C358.113 516.084 349.052 516.243 340.028 516.101C337.573 516.063 335.514 515.943 334.131 513.844C334.371 511.933 334.056 512.86 335.567 511.155Z"/><defs><linearGradient id="gradient_1" gradientUnits="userSpaceOnUse" x1="329.36115" y1="420.76636" x2="170.88756" y2="261.76221"><stop offset="0" stop-color="#E39176"/><stop offset="1" stop-color="#F7C9A7"/></linearGradient></defs><path fill="url(#gradient_1)" d="M352.066 306.826C357.381 303.85 382.87 304.728 390.448 304.751L441.887 304.873L441.984 305.252L442.022 310.565L344.256 310.419C332.94 310.299 321.623 310.238 310.306 310.236C308.071 310.236 298.713 310.07 296.99 310.523L296.654 310.878C241.37 311.045 185.256 310.46 130.068 311.262L129.986 399.9C129.979 413.364 129.602 428.758 130.01 442.088C128.352 442.879 125.873 443.964 124.339 444.836C123.942 437.797 124.149 428.817 124.134 421.645L124.061 381.115L124.053 337.35C124.062 330.932 123.432 311.521 125.287 306.386C128.592 304.954 161.043 305.832 167.284 305.844L298.515 305.928L327.58 305.863C331.624 305.855 340.111 305.669 343.826 306.36C346.21 307.39 349.524 307.154 352.066 306.826Z"/><path fill="#E59F7E" d="M130.049 446.062C129.895 472.391 129.263 502.03 130.081 528.144C126.54 525.724 123.055 522.929 119.655 520.291C120.373 518.001 120.825 509.978 120.527 507.689C119.57 500.343 122.383 457.524 119.888 453.554C123.421 450.203 125.927 448.572 130.049 446.062Z"/><path fill="#E6C6BB" d="M296.654 310.878L296.99 310.523C298.713 310.07 308.071 310.236 310.306 310.236C321.623 310.238 332.94 310.299 344.256 310.419L442.022 310.565C444.111 310.624 446.34 310.738 448.416 310.677C448.452 312.321 448.247 313.807 449.14 315.091C450.094 321.054 449.399 341.916 449.485 349.166L442.174 349.365C442.93 344.77 442.357 316.718 442.266 310.946L355.016 310.895C337.381 310.979 314.066 311.696 296.654 310.878Z"/><path fill="#FED79C" d="M184.901 349.085C207.033 348.166 235.507 348.855 258.037 349.063C261.128 350.984 261.625 351.938 263.459 355.147L263.485 405.035C263.495 413.18 263.681 421.418 263.284 429.541C263.07 433.908 260.878 436.614 256.625 437.462L212.143 437.381C203.796 437.358 193.264 438.495 185.176 436.47C182.252 435.738 179.865 433.527 178.468 430.889C177.776 429.583 177.58 428.452 177.45 426.985C176.69 418.396 176.127 360.732 178.194 355.341C179.448 352.071 181.888 350.566 184.901 349.085Z"/><path fill="#83B56D" d="M224.866 381.658C228.168 385.246 232.368 390.142 235.781 393.446C243.216 401.868 255.196 412.785 261.517 420.95L184.997 421.023C187.309 417.39 206.141 394.547 209.711 393.719C214.529 389.893 219.914 384.982 224.866 381.658Z"/><path fill="#FFFEFE" d="M224.866 381.658C228.168 385.246 232.368 390.142 235.781 393.446L221.386 406.134L212.768 397.829C211.105 396.21 209.735 395.507 209.711 393.719C214.529 389.893 219.914 384.982 224.866 381.658Z"/><path fill="#FEF9F4" d="M580.593 227.844C594.329 220.687 608.398 215.32 622.728 209.997C684.389 187.091 748.213 186.396 810.769 207.159C867.797 226.086 929.401 270.778 957.39 324.895C965.639 340.65 971.954 357.344 976.197 374.615C986.111 414.903 981.862 439.601 969.479 479C964.431 495.063 956.573 508.508 951.681 524.07C936.449 572.519 940.976 621.772 964.508 666.864C968.597 674.841 973.741 682.391 977.647 690.45C988.322 712.473 991.178 738.453 984.033 761.944C976.809 785.693 951.087 811.982 929.79 824.671C929.736 826.231 929.937 828.267 929.2 829.368L929.103 600.278L929.119 530.809C929.118 471.46 931.689 472.366 886.168 433.381L886.283 324.182L886.267 289.733C886.26 283.024 886.355 276.337 885.988 269.635C886.085 266.145 883.529 262.813 879.91 262.608C872.752 262.203 865.343 262.407 858.162 262.437L818.662 262.48L687.374 262.459L645.657 262.52C638.479 262.534 628.594 262.795 621.625 262.336L621.082 262.297C617.167 258.481 611.244 253.771 606.931 250.151C598.078 242.802 589.299 235.366 580.593 227.844Z"/><path fill="#F79D67" d="M343.826 306.36C349.868 303.323 368.46 287.213 374.273 282.346L440.758 227.28C450.269 219.358 471.474 200.791 480.671 195.337C488.219 190.954 496.624 188.254 505.312 187.421C528.888 185.195 542.561 195.739 559.102 209.802C566.194 215.901 573.358 221.915 580.593 227.844C589.299 235.366 598.078 242.802 606.931 250.151C611.244 253.771 617.167 258.481 621.082 262.297C618.331 262.86 617.638 262.965 614.879 262.494L505.337 262.462L470.617 262.451C465.298 262.45 452.079 261.574 448.253 264.055C441.082 268.887 441.976 274.707 441.886 282.491C441.801 289.872 442.269 297.522 441.887 304.873L390.448 304.751C382.87 304.728 357.381 303.85 352.066 306.826C349.524 307.154 346.21 307.39 343.826 306.36Z"/><path fill="#47273E" d="M343.826 306.36C349.868 303.323 368.46 287.213 374.273 282.346L440.758 227.28C450.269 219.358 471.474 200.791 480.671 195.337C488.219 190.954 496.624 188.254 505.312 187.421C528.888 185.195 542.561 195.739 559.102 209.802C566.194 215.901 573.358 221.915 580.593 227.844C589.299 235.366 598.078 242.802 606.931 250.151C611.244 253.771 617.167 258.481 621.082 262.297C618.331 262.86 617.638 262.965 614.879 262.494C600.182 249.855 584.697 237.306 569.903 224.681C560.493 216.651 544.845 202.127 534.91 197.11C526.252 192.759 516.567 190.862 506.907 191.627C497.792 192.34 488.983 195.242 481.229 200.088C475.216 203.821 464.099 213.511 458.271 218.378C444.674 229.913 430.994 241.351 417.234 252.692L373.002 289.247C367.233 293.96 356.498 301.533 352.066 306.826C349.524 307.154 346.21 307.39 343.826 306.36Z"/><path fill="#FEF9F4" d="M95.4523 862.178C91.7457 860.405 87.4887 856.108 84.7467 853.035C58.0344 823.105 34.146 785.316 36.4308 743.631C38.3343 708.902 57.2589 678.025 78.2301 651.466C82.0426 646.637 91.3193 635.117 95.5232 631.281L95.5098 783.589C95.5127 808.418 96.294 837.724 95.4523 862.178Z"/><path fill="#ACC0E1" d="M192.44 575.807C199.566 575.337 211.392 575.631 218.915 575.6L272.913 575.521L441.868 575.61L449.55 575.779C449.551 586.16 449.732 597.13 449.547 607.462L442.007 607.628L441.966 607.931L291.728 607.897L253.507 607.906C250.063 607.908 237.814 607.734 234.886 608.317C229.896 604.944 222.715 599.053 217.695 595.209C209.461 588.904 200.371 582.324 192.44 575.807Z"/><path fill="#A29FBB" d="M441.868 575.61L449.55 575.779C449.551 586.16 449.732 597.13 449.547 607.462L442.007 607.628C441.642 597.371 441.876 585.953 441.868 575.61Z"/><path fill="#CBDAF9" d="M234.886 608.317C237.814 607.734 250.063 607.908 253.507 607.906L291.728 607.897L441.966 607.931C442.059 616.894 442.094 625.856 442.07 634.819C442.07 638.613 442.271 646.348 441.875 649.935C434.66 645.312 427.174 640.077 420.025 635.268C417.167 633.815 414.363 632.211 411.562 630.647C404.44 627.865 399.884 628.172 393.725 633.097L390.674 636.048C387.758 638.66 378.393 647.015 375.534 648.889C369.565 647.562 289.441 647.679 287.593 648.604C284.207 646.617 273.327 637.698 269.867 634.968C267.504 633.357 265.159 631.484 262.882 629.736C261.654 629.058 255.301 624.101 253.825 622.973C247.455 618.162 241.141 613.277 234.886 608.317Z"/><path fill="#FFFEFE" d="M262.882 629.736C268.744 629.069 284.726 629.127 291.235 629.193C301.516 629.297 317.294 628.6 327.342 629.421L328.117 630.116C328.122 632.437 328.462 631.867 327.335 633.46C322.166 636.249 278.803 632.779 269.867 634.968C267.504 633.357 265.159 631.484 262.882 629.736Z"/><path fill="#FEF9F4" d="M411.562 630.647C415.105 628.775 425.753 629.431 429.086 632.285L428.615 633.963C425.288 635.702 423.753 635.36 420.025 635.268C417.167 633.815 414.363 632.211 411.562 630.647Z"/><path fill="#FFFEFE" d="M390.674 636.048C388.978 634.405 388.833 634.039 388.756 632.008C389.805 630.194 389.098 630.875 390.969 629.901C392.799 630.087 392.043 629.749 393.396 630.749L393.725 633.097L390.674 636.048Z"/><path fill="#FFFEFE" d="M287.593 648.604C289.441 647.679 369.565 647.562 375.534 648.889C362.343 660.524 347.178 672.538 333.568 683.934L287.593 648.604Z"/><path fill="#F79D67" d="M119.888 453.554C122.383 457.524 119.57 500.343 120.527 507.689C120.825 509.978 120.373 518.001 119.655 520.291C113.031 515.166 105.582 509.471 99.4824 503.815C99.4533 501.898 99.4282 499.909 99.4927 497.996C100.204 481.082 107.528 465.123 119.888 453.554Z"/><path fill="#CBDAF9" d="M674.409 668.799C681.19 668.097 704.17 668.186 711.212 668.74L692.163 683.825C686.364 679.264 680.006 673.663 674.409 668.799Z"/><path fill="#D86E62" d="M441.887 304.873C442.269 297.522 441.801 289.872 441.886 282.491C441.976 274.707 441.082 268.887 448.253 264.055L448.394 305.169L448.416 310.677C446.34 310.738 444.111 310.624 442.022 310.565L441.984 305.252L441.887 304.873Z"/><path fill="#7C4D50" d="M441.984 305.252C444.008 305.118 446.342 305.172 448.394 305.169L448.416 310.677C446.34 310.738 444.111 310.624 442.022 310.565L441.984 305.252Z"/><path fill="#FED79C" d="M450.815 661.05L488.154 685.897C490.936 687.745 493.801 689.636 496.579 691.487C505.217 697.242 511.046 702.77 521.564 696.306C529.872 691.2 538.015 685.575 546.177 680.126L595.265 647.018C600.915 643.16 617.711 629.212 624.265 633.177C627.632 635.214 634.143 640.832 637.503 643.614L659.311 661.75L731.685 722.318L735.666 725.576C792.659 773.826 850.05 821.604 907.831 868.906L757.532 869.025C733.454 869.027 704.14 869.763 680.402 868.916C670.042 869.424 656.125 869.008 645.551 869.007L577.305 868.992C568.631 869.068 559.956 869.04 551.282 868.909C531.185 869.645 506.362 869.007 485.916 869.015L331.306 869.03L311.374 869.08L249.187 869.131L215.777 869.121C183.885 868.738 147.826 868.519 115.959 869.32C142.142 847.953 168.173 826.401 194.051 804.665L333.795 689.296L374.57 655.167C378.137 652.129 398.969 633.058 402.261 632.762C409.793 632.086 424.634 643.216 431.384 647.797C437.735 652.397 444.214 656.816 450.815 661.05Z"/><path fill="#FED79C" d="M731.685 722.318L735.666 725.576C792.659 773.826 850.05 821.604 907.831 868.906L757.532 869.025C733.454 869.027 704.14 869.763 680.402 868.916C670.042 869.424 656.125 869.008 645.551 869.007L577.305 868.992C582.075 866.829 599.147 848.757 604.314 843.829L676.762 775.004L713.558 740.48C718.642 735.634 727.555 727.468 731.685 722.318Z"/><path fill="#FEB997" d="M731.685 722.318L735.666 725.576C715.191 751.665 690.467 775.516 669.669 800.045C662.451 808.558 612.128 862.264 610.149 867.173C611.584 869.842 635.045 868.03 638.883 868.497C646.55 869.429 675.473 867.007 680.402 868.916C670.042 869.424 656.125 869.008 645.551 869.007L577.305 868.992C582.075 866.829 599.147 848.757 604.314 843.829L676.762 775.004L713.558 740.48C718.642 735.634 727.555 727.468 731.685 722.318Z"/><path fill="#FED79C" d="M115.959 869.32C142.142 847.953 168.173 826.401 194.051 804.665L333.795 689.296L374.57 655.167C378.137 652.129 398.969 633.058 402.261 632.762C409.793 632.086 424.634 643.216 431.384 647.797C437.735 652.397 444.214 656.816 450.815 661.05C437.281 673.675 425.277 687.655 412.3 700.865C366.088 747.335 320.361 794.285 275.126 841.706C270.752 846.29 251.147 865.057 249.187 869.131L215.777 869.121C183.885 868.738 147.826 868.519 115.959 869.32Z"/><path fill="#FEB997" d="M431.384 647.797C437.735 652.397 444.214 656.816 450.815 661.05C437.281 673.675 425.277 687.655 412.3 700.865C366.088 747.335 320.361 794.285 275.126 841.706C270.752 846.29 251.147 865.057 249.187 869.131L215.777 869.121C217.142 865.451 292.575 790.369 300.406 782.429L392.878 688.024C398.206 682.671 429.632 652.352 431.384 647.797Z"/><path fill="#FEB997" d="M485.916 869.015C490.105 862.767 511.556 843.113 518.183 836.808L561.733 794.698L619.341 739.47C630.462 728.755 645.638 713.411 657.115 703.838C655.852 708.119 635.941 729.595 631.735 734.406L555.419 820.959L527.513 852.067C523.16 856.987 517.583 862.925 513.751 868.132C521.378 868.712 546.556 867.725 551.282 868.909C531.185 869.645 506.362 869.007 485.916 869.015Z"/><path fill="#FEB997" d="M436.479 748.272C431.197 755.889 419.951 767.302 413.398 774.635L359.871 834.883C355.167 840.142 331.902 864.143 331.306 869.03L311.374 869.08C312.999 865.989 330.862 849.049 334.33 845.698L396.95 786.002L421.565 762.073C425.449 758.279 432.253 751.211 436.479 748.272Z"/><path fill="#FED79C" d="M924.909 509.043L925.002 603.174C925.027 607.488 925.204 612.75 925.036 616.986L925.062 785.061L925.04 836.028C925.036 844.895 925.155 853.779 924.848 862.645C924.72 866.368 922.82 868.936 918.89 869.09C915.746 869.214 915.078 869.364 912.528 867.41C902.888 860.021 893.699 851.941 884.347 844.168C867.049 830.017 849.836 815.761 832.71 801.403L733.952 718.769C721.213 708.003 708.159 697.512 695.674 686.473C705.76 677.998 719.171 668.388 729.89 660.155L790.624 613.311L924.909 509.043Z"/><path fill="#D86E62" d="M850.982 684.931C853.593 680.788 867.033 666.88 870.937 662.518C888.579 642.806 908.059 623.472 925.002 603.174C925.027 607.488 925.204 612.75 925.036 616.986C912.461 629.179 900.457 639.577 887.537 651.221C875.262 662.36 863.077 673.597 850.982 684.931Z"/><path fill="#FED79C" d="M100.02 509.841C119.112 525.512 138.885 540.188 158.46 555.265L259.418 632.459L305.005 667.114C313.322 673.499 322.151 679.961 330.081 686.712L189.816 802.674L135.825 847.688C127.57 854.523 119.377 861.453 110.995 868.13C109.416 869.388 107.068 869.744 105.144 869.074C102.131 868.027 100.137 866.005 99.9726 862.691C99.6503 856.212 99.7554 849.683 99.7497 843.182L99.7004 807.855L99.558 748.058C99.5645 737.86 99.2547 725.364 99.765 715.417L99.8885 700.456L99.8727 575.259C99.9044 553.94 99.5075 531.046 100.02 509.841Z"/><path fill="#D86E62" d="M171.735 634.815C168.272 641.454 105.386 711.052 99.765 715.417L99.8885 700.456C123.659 678.138 148.02 657.005 171.735 634.815Z"/><path fill="#F79D67" d="M886.224 439.206C891.59 442.719 902.986 453.345 907.818 458.035C921.634 471.444 924.878 484.787 924.984 503.298L908.165 516.944C900.716 522.722 893.688 528.665 886.09 534.353C885.768 502.834 886.615 471.007 886.224 439.206Z"/><path fill="#0DBEFE" d="M834.867 286.604C837.684 285.434 840.915 286.775 842.076 289.595C843.237 292.415 841.886 295.642 839.063 296.795C836.251 297.942 833.041 296.599 831.885 293.791C830.729 290.983 832.063 287.768 834.867 286.604Z"/><path fill="#F79D67" d="M813.871 287.486C821.063 287.269 825.076 291.533 818.674 296.761C812.297 298.349 808.377 292.488 813.871 287.486Z"/><path fill="#FFFEFE" d="M855.048 287.152C857.447 286.605 859.843 288.076 860.44 290.463C861.036 292.85 859.615 295.276 857.24 295.923C855.66 296.353 853.971 295.895 852.825 294.725C851.678 293.556 851.254 291.858 851.715 290.286C852.176 288.715 853.451 287.516 855.048 287.152Z"/><path fill="#47273E" d="M135.581 235.076C147.797 234.55 163.073 234.985 175.484 234.988L243.203 234.817L303.024 234.974C311.951 235.006 321.04 234.989 329.975 234.968C331.001 234.966 333.228 235.353 334.087 235.953C334.819 236.465 334.595 236.442 334.913 237.409C334.264 238.59 334.072 238.531 332.875 239.248L198.406 239.274L154.65 239.272C150.522 239.267 137.665 240.259 135.019 238.217C134.669 236.441 134.753 237.035 135.581 235.076Z"/><path fill="#47273E" d="M255.29 209.224C268.802 209.177 364.381 208.177 369.064 209.873C370.19 210.28 370.238 210.552 370.736 211.568C369.947 213.019 370.44 212.349 368.796 213.397C342.691 213.255 316.586 213.271 290.481 213.442C281.69 213.464 262.058 214.101 254.722 213.327C253.234 212.231 253.643 212.929 253.299 211.261C254.138 209.491 253.512 210.161 255.29 209.224Z"/><path fill="#47273E" d="M205.558 209.116C209.857 209.01 223.349 207.93 226.018 210.229C226.634 212.113 226.528 211.111 225.828 213.364C221.918 213.777 208.355 214.497 205.519 212.464C204.86 210.765 205.09 211.235 205.558 209.116Z"/><path fill="#47273E" d="M236.263 209.081C239.411 208.913 241.679 208.306 243.989 210.246C244.381 212.343 244.395 211.286 243.639 213.516C240.545 213.599 237.184 214.222 235.077 212.227C235.08 210.255 234.988 210.959 236.263 209.081Z"/></svg>